<svg xmlns="http://www.w3.org/2000/svg" width="350" height="66" fill="none" viewBox="0 0 350 66">
    <g fill="#C49A6C" clip-path="url(#a)">
        <path d="M91.803 51.823h3.523c.835 0 1.598.146 2.215.474a3.573 3.573 0 0 1 1.489 1.349c.363.583.545 1.239.545 2.004 0 .765-.182 1.421-.545 2.004-.363.583-.872 1.02-1.489 1.349-.654.328-1.38.474-2.215.474h-3.523v-7.654zm3.414 6.232c.763 0 1.38-.218 1.852-.656.472-.437.69-1.02.69-1.75 0-.728-.218-1.311-.69-1.748-.472-.438-1.09-.656-1.852-.656h-1.634v4.774h1.634v.036zM109.489 51.823h1.779v7.69h-1.779v-7.69zM126.774 57.873h-3.595l-.69 1.64h-1.816l3.45-7.69h1.78l3.45 7.69h-1.889l-.69-1.64zm-.581-1.348l-1.234-2.952-1.235 2.952h2.469zM143.624 55.54h1.634v3.098c-.435.328-.907.547-1.452.73a5.321 5.321 0 0 1-1.671.254 4.8 4.8 0 0 1-2.179-.51c-.653-.328-1.125-.802-1.525-1.421a3.901 3.901 0 0 1-.544-2.041c0-.765.181-1.458.544-2.04.363-.62.872-1.058 1.525-1.422a4.8 4.8 0 0 1 2.179-.51c.69 0 1.308.109 1.852.328a3.429 3.429 0 0 1 1.38.983l-1.162 1.057a2.664 2.664 0 0 0-1.997-.874c-.508 0-.944.11-1.307.291-.4.219-.69.51-.908.875a2.468 2.468 0 0 0-.327 1.276c0 .473.109.91.327 1.275.218.364.508.656.871.875.363.218.799.328 1.308.328.508 0 .98-.11 1.38-.328V55.54h.072zM162.544 51.823v7.69h-1.452l-3.85-4.665v4.665h-1.779v-7.69h1.489l3.849 4.665v-4.665h1.743zM174.528 59.112a3.596 3.596 0 0 1-1.525-1.421 3.902 3.902 0 0 1-.545-2.041c0-.765.182-1.421.545-2.04a3.595 3.595 0 0 1 1.525-1.422 4.8 4.8 0 0 1 2.179-.51 4.8 4.8 0 0 1 2.179.51 3.601 3.601 0 0 1 1.525 1.421c.363.62.545 1.276.545 2.04 0 .766-.182 1.422-.545 2.042-.363.62-.872 1.057-1.525 1.421a4.692 4.692 0 0 1-2.179.51c-.835 0-1.562-.145-2.179-.51zm3.377-1.312c.363-.218.654-.51.872-.874.218-.365.327-.802.327-1.276s-.109-.911-.327-1.276a2.512 2.512 0 0 0-.872-.874 2.408 2.408 0 0 0-1.234-.328c-.473 0-.872.11-1.235.328-.363.218-.654.51-.872.874a2.468 2.468 0 0 0-.327 1.276c0 .474.109.911.327 1.276.218.364.509.655.872.874.363.219.762.328 1.235.328.472 0 .871-.11 1.234-.328zM191.559 59.404c-.581-.183-1.016-.365-1.379-.656l.617-1.349c.327.255.726.438 1.198.583.472.146.908.219 1.38.219.509 0 .872-.073 1.126-.219.254-.145.363-.364.363-.583a.52.52 0 0 0-.218-.437 1.92 1.92 0 0 0-.545-.292c-.217-.073-.508-.145-.907-.255-.581-.145-1.054-.291-1.453-.4a2.897 2.897 0 0 1-.98-.657c-.255-.291-.4-.728-.4-1.239 0-.437.109-.838.363-1.202.254-.365.618-.656 1.09-.875.508-.219 1.089-.328 1.779-.328.508 0 .981.073 1.453.182.472.11.871.292 1.234.51l-.544 1.349c-.727-.401-1.417-.62-2.143-.62-.508 0-.871.073-1.126.255a.677.677 0 0 0-.363.62c0 .255.145.474.4.583.29.146.69.255 1.271.364.581.146 1.053.292 1.452.401.363.146.69.365.981.656.254.292.399.693.399 1.203 0 .437-.109.838-.363 1.203-.254.364-.617.656-1.089.874-.509.219-1.09.328-1.816.328a7.222 7.222 0 0 1-1.78-.218zM208.083 53.281h-2.47v-1.458h6.718v1.458h-2.469v6.232h-1.779v-6.232zM221.81 51.823h1.779v7.69h-1.779v-7.69zM235.573 59.112c-.654-.328-1.126-.802-1.489-1.421a3.902 3.902 0 0 1-.545-2.041c0-.765.182-1.458.545-2.04.363-.62.871-1.058 1.489-1.422a4.644 4.644 0 0 1 2.142-.51c.654 0 1.271.109 1.816.364.545.219.981.583 1.38 1.02l-1.162 1.057c-.508-.583-1.162-.91-1.925-.91-.472 0-.908.108-1.271.327a2.51 2.51 0 0 0-.871.875 2.468 2.468 0 0 0-.327 1.275c0 .474.109.911.327 1.276.218.364.508.656.871.875.363.218.799.328 1.271.328.763 0 1.417-.292 1.925-.911l1.162 1.056a3.51 3.51 0 0 1-1.38 1.02 4.891 4.891 0 0 1-1.816.365c-.799-.073-1.525-.218-2.142-.583zM263.353 59.112c-.653-.328-1.125-.802-1.488-1.421a3.893 3.893 0 0 1-.545-2.041c0-.765.181-1.458.545-2.04.363-.62.871-1.058 1.488-1.422a4.65 4.65 0 0 1 2.143-.51c.654 0 1.271.109 1.816.364.544.219.98.583 1.38 1.02l-1.162 1.057c-.509-.583-1.162-.91-1.925-.91-.472 0-.908.108-1.271.327-.363.219-.654.51-.872.875a2.477 2.477 0 0 0-.326 1.275c0 .474.109.911.326 1.276.218.364.509.656.872.875.363.218.799.328 1.271.328.763 0 1.416-.292 1.925-.911l1.162 1.056a3.517 3.517 0 0 1-1.38 1.02 4.891 4.891 0 0 1-1.816.365c-.799-.073-1.525-.218-2.143-.583zM284.343 58.092v1.421h-5.992v-7.69h5.847v1.422h-4.067v1.676h3.595v1.385h-3.595v1.786h4.212zM301.447 51.823v7.69h-1.452l-3.849-4.665v4.665h-1.78v-7.69h1.489l3.849 4.665v-4.665h1.743zM313.395 53.281h-2.469v-1.458h6.718v1.458h-2.47v6.232h-1.779v-6.232zM333.114 58.092v1.421h-5.992v-7.69h5.846v1.422h-4.067v1.676h3.595v1.385h-3.595v1.786h4.213zM348.075 59.513l-1.489-2.15H344.952v2.15h-1.779v-7.69h3.341c.69 0 1.271.11 1.779.328.509.219.908.547 1.162.948.291.4.4.91.4 1.494 0 .583-.145 1.057-.4 1.458-.29.4-.653.729-1.162.947l1.743 2.479h-1.961v.036zm-.472-5.904c-.29-.219-.69-.328-1.234-.328h-1.453v2.66h1.453c.544 0 .944-.109 1.234-.364.291-.219.436-.547.436-.984 0-.4-.145-.729-.436-.984zM75.208 8.857c.036-.692-.4-1.348-1.053-1.64L57.267.11c-.363-.145-.799-.182-1.162-.036l-18.52 6.05-18.52-6.05c-.364-.11-.763-.11-1.127.073L1.053 7.217C.4 7.509-.037 8.165 0 8.857c0 .146.036.292.073.437L17.722 64.8c.181.51.58.947 1.09 1.093.18.073.362.073.508.073.363 0 .726-.11 1.016-.328l17.25-12.792 17.25 12.792c.29.218.653.328 1.016.328.181 0 .363-.037.508-.073a1.802 1.802 0 0 0 1.09-1.093L75.099 9.294a.78.78 0 0 0 .109-.437zm-58.54 6.596l.364 17.967-7.481-5.503-5.266-16.473 12.384 4.01zm.436 22.268l.29 14.978-6.1-19.279 5.81 4.3zm3.45 2.55l9.442 6.998-9.079 12.1-.363-19.097zm-.109-4.263l-.327-16.582L35.48 39.907l-3.45 4.629-11.585-8.528zm2.47-18.514l14.162 4.629c.182.072.363.072.509.072.181 0 .363-.036.508-.072l14.163-4.629-14.708 19.607-14.634-19.607zM37.622 42.75l2.869 3.827-2.869 2.113-2.869-2.113 2.869-3.827zm2.106-2.806L55.09 19.462l-.326 16.546-11.585 8.564-3.45-4.628zm14.926.328l-.4 19.096-9.079-12.1 9.479-6.996zm3.45-2.551l5.846-4.3-6.137 19.278.29-14.978zm7.553-9.804l-7.48 5.54.362-17.967 12.383-4.046-5.265 16.473zM56.578 3.5l12.093 5.102-11.802 3.863-13.8-4.52L56.58 3.5zm-5.156 10.714l-13.8 4.52-13.836-4.52 13.8-4.519 13.836 4.52zM18.666 3.5l13.509 4.41-13.8 4.518L6.537 8.602 18.666 3.5zm8.97 52.552l5.083-6.779 2.034 1.494-7.117 5.285zm14.852-6.779l5.084 6.779-7.117-5.285 2.033-1.494zM111.195 23.58c1.09 1.275 1.671 2.878 1.671 4.81 0 2.587-.981 4.665-2.905 6.159-1.925 1.494-4.54 2.26-7.808 2.26-2.724 0-5.048-.584-6.936-1.713-1.888-1.13-3.341-2.807-4.322-4.957L95 28.208c1.489 3.134 3.85 4.7 7.118 4.7 1.743 0 3.086-.4 4.103-1.238.981-.838 1.489-2.005 1.489-3.462 0-1.823-.654-3.135-1.925-4.01-1.307-.837-3.304-1.275-6.028-1.275v-3.389c2.47 0 4.322-.437 5.629-1.24 1.307-.837 1.961-2.04 1.961-3.68 0-1.276-.436-2.26-1.344-2.988-.908-.73-2.142-1.094-3.74-1.094-1.598 0-3.014.401-4.14 1.24-1.126.838-1.925 2.04-2.36 3.534l-4.25-1.676c.763-2.223 2.07-3.936 3.995-5.139 1.925-1.202 4.25-1.822 6.936-1.822 3.015 0 5.375.693 7.118 2.041 1.743 1.385 2.615 3.207 2.615 5.503 0 1.64-.509 3.061-1.489 4.264-.981 1.203-2.288 2.041-3.922 2.551 1.852.438 3.304 1.276 4.43 2.551zM114.972 32.69h3.559V10.751h-3.559V7.179h16.233c3.232 0 5.992.656 8.279 1.968 2.288 1.312 3.995 3.062 5.121 5.212 1.125 2.187 1.67 4.519 1.67 7.106 0 2.953-.545 5.503-1.67 7.727-1.126 2.223-2.797 3.972-5.048 5.211-2.252 1.24-5.011 1.859-8.28 1.859h-16.305V32.69zm15.47 0c3.377 0 5.883-1.02 7.481-3.025 1.598-2.004 2.433-4.7 2.433-8.09 0-3.098-.799-5.685-2.47-7.726-1.634-2.041-4.067-3.062-7.299-3.062h-6.318v21.94h6.173v-.037zM159.131 32.69h3.558V10.751h-3.558V7.179h16.232c3.232 0 5.992.656 8.28 1.968 2.288 1.312 3.994 3.062 5.12 5.212 1.126 2.187 1.671 4.519 1.671 7.106 0 2.953-.545 5.503-1.671 7.727-1.126 2.223-2.796 3.972-5.047 5.211-2.252 1.24-5.012 1.859-8.28 1.859h-16.305V32.69zm15.47 0c3.377 0 5.883-1.02 7.48-3.025 1.598-2.004 2.433-4.7 2.433-8.09 0-3.098-.798-5.685-2.469-7.726-1.634-2.041-4.067-3.062-7.299-3.062h-6.319v21.94h6.174v-.037zM192.576 36.298V32.69h3.632V10.751h-3.632V7.179h26.001v9.112h-3.958v-5.54h-12.71v8.783h7.408v-3.28h2.869v10.095h-2.796v-3.28h-7.481v9.658h12.964v-5.831h3.922v9.439h-26.219v-.037zM223.081 36.298V32.69h3.74V10.751h-3.74V7.179h10.277l15.07 21.721V10.751h-3.813V7.179h11.548v3.572h-3.631v25.547h-5.665L230.816 13.01v19.68h3.849v3.572h-11.584v.036zM267.566 36.298V32.69h3.74V10.715h-6.936v6.815h-3.994V7.18h27.381v10.35h-3.922v-6.816h-6.864V32.69h3.741v3.572h-13.146v.036zM287.757 36.298V32.69h3.413l7.953-21.939H296V7.179h16.196v3.572h-3.159l8.171 21.94h3.268v3.57h-12.819v-3.57h3.632l-2.506-7.326h-9.95l-2.47 7.325h3.486v3.572h-12.092v.036zm12.165-14.359h7.88l-3.74-11.115h-.291l-3.849 11.115zM324.761 36.298V32.69h3.632V10.605h-3.632V7.18h12.928v3.426h-3.631V32.69h10.64V24.2h4.249v12.1h-24.186z"/>
    </g>
    <defs>
        <clipPath id="a">
            <path fill="#fff" d="M0 0h350v66H0z"/>
        </clipPath>
    </defs>
</svg>
