<svg width="726" height="628" viewBox="0 0 726 628" fill="none" xmlns="http://www.w3.org/2000/svg">
<path d="M12.672 134.096C14.208 123.632 17.136 114.512 21.456 106.736C25.872 98.96 31.296 92.48 37.728 87.296C44.256 82.112 51.696 78.272 60.048 75.776C68.4 73.184 77.376 71.888 86.976 71.888C97.344 71.888 106.56 73.376 114.624 76.352C122.688 79.232 129.504 83.168 135.072 88.16C140.64 93.152 144.864 98.96 147.744 105.584C150.624 112.112 152.064 119.024 152.064 126.32C152.064 132.944 151.392 138.8 150.048 143.888C148.704 148.88 146.688 153.248 144 156.992C141.408 160.64 138.144 163.76 134.208 166.352C130.368 168.848 125.952 170.96 120.96 172.688C144.192 180.848 155.808 196.688 155.808 220.208C155.808 231.344 153.792 241.04 149.76 249.296C145.728 257.552 140.304 264.416 133.488 269.888C126.768 275.36 118.944 279.488 110.016 282.272C101.088 284.96 91.776 286.304 82.08 286.304C72.096 286.304 63.216 285.248 55.44 283.136C47.664 280.928 40.752 277.568 34.704 273.056C28.656 268.448 23.328 262.592 18.72 255.488C14.208 248.384 10.272 239.936 6.912 230.144L26.784 222.08C31.968 220.064 36.768 219.536 41.184 220.496C45.6 221.456 48.768 223.664 50.688 227.12C55.008 235.088 59.568 240.896 64.368 244.544C69.264 248.096 74.976 249.872 81.504 249.872C86.496 249.872 90.816 249.056 94.464 247.424C98.208 245.696 101.28 243.536 103.68 240.944C106.176 238.256 108.048 235.232 109.296 231.872C110.544 228.512 111.168 225.104 111.168 221.648C111.168 217.136 110.832 213.104 110.16 209.552C109.584 205.904 107.856 202.784 104.976 200.192C102.096 197.6 97.728 195.632 91.872 194.288C86.112 192.848 78.048 192.128 67.68 192.128V161.312C76.416 161.312 83.472 160.64 88.848 159.296C94.224 157.952 98.352 156.128 101.232 153.824C104.208 151.424 106.176 148.544 107.136 145.184C108.096 141.824 108.576 138.128 108.576 134.096C108.576 125.84 106.56 119.504 102.528 115.088C98.592 110.576 92.544 108.32 84.384 108.32C77.76 108.32 72.144 110.096 67.536 113.648C63.024 117.104 59.904 121.424 58.176 126.608C56.16 131.888 53.52 135.392 50.256 137.12C46.992 138.848 42.336 139.232 36.288 138.272L12.672 134.096ZM176.135 261.392C176.135 257.936 176.759 254.72 178.007 251.744C179.351 248.768 181.127 246.176 183.335 243.968C185.639 241.76 188.327 240.032 191.399 238.784C194.471 237.44 197.831 236.768 201.479 236.768C205.031 236.768 208.343 237.44 211.415 238.784C214.487 240.032 217.175 241.76 219.479 243.968C221.783 246.176 223.559 248.768 224.807 251.744C226.151 254.72 226.823 257.936 226.823 261.392C226.823 264.848 226.151 268.112 224.807 271.184C223.559 274.16 221.783 276.752 219.479 278.96C217.175 281.168 214.487 282.896 211.415 284.144C208.343 285.392 205.031 286.016 201.479 286.016C197.831 286.016 194.471 285.392 191.399 284.144C188.327 282.896 185.639 281.168 183.335 278.96C181.127 276.752 179.351 274.16 178.007 271.184C176.759 268.112 176.135 264.848 176.135 261.392ZM397.249 179.024C397.249 197.36 395.281 213.248 391.345 226.688C387.409 240.128 381.937 251.264 374.929 260.096C368.017 268.928 359.761 275.504 350.161 279.824C340.657 284.144 330.337 286.304 319.201 286.304C308.065 286.304 297.745 284.144 288.241 279.824C278.833 275.504 270.673 268.928 263.761 260.096C256.849 251.264 251.425 240.128 247.489 226.688C243.649 213.248 241.729 197.36 241.729 179.024C241.729 160.688 243.649 144.8 247.489 131.36C251.425 117.92 256.849 106.784 263.761 97.952C270.673 89.12 278.833 82.592 288.241 78.368C297.745 74.048 308.065 71.888 319.201 71.888C330.337 71.888 340.657 74.048 350.161 78.368C359.761 82.592 368.017 89.12 374.929 97.952C381.937 106.784 387.409 117.92 391.345 131.36C395.281 144.8 397.249 160.688 397.249 179.024ZM351.169 179.024C351.169 164.528 350.257 152.672 348.433 143.456C346.609 134.144 344.161 126.848 341.089 121.568C338.113 116.288 334.705 112.688 330.865 110.768C327.025 108.752 323.137 107.744 319.201 107.744C315.265 107.744 311.377 108.752 307.537 110.768C303.793 112.688 300.433 116.288 297.457 121.568C294.577 126.848 292.225 134.144 290.401 143.456C288.673 152.672 287.809 164.528 287.809 179.024C287.809 193.616 288.673 205.52 290.401 214.736C292.225 223.952 294.577 231.248 297.457 236.624C300.433 241.904 303.793 245.552 307.537 247.568C311.377 249.488 315.265 250.448 319.201 250.448C323.137 250.448 327.025 249.488 330.865 247.568C334.705 245.552 338.113 241.904 341.089 236.624C344.161 231.248 346.609 223.952 348.433 214.736C350.257 205.52 351.169 193.616 351.169 179.024ZM564.311 179.024C564.311 197.36 562.343 213.248 558.407 226.688C554.471 240.128 548.999 251.264 541.991 260.096C535.079 268.928 526.823 275.504 517.223 279.824C507.719 284.144 497.399 286.304 486.263 286.304C475.127 286.304 464.807 284.144 455.303 279.824C445.895 275.504 437.735 268.928 430.823 260.096C423.911 251.264 418.487 240.128 414.551 226.688C410.711 213.248 408.791 197.36 408.791 179.024C408.791 160.688 410.711 144.8 414.551 131.36C418.487 117.92 423.911 106.784 430.823 97.952C437.735 89.12 445.895 82.592 455.303 78.368C464.807 74.048 475.127 71.888 486.263 71.888C497.399 71.888 507.719 74.048 517.223 78.368C526.823 82.592 535.079 89.12 541.991 97.952C548.999 106.784 554.471 117.92 558.407 131.36C562.343 144.8 564.311 160.688 564.311 179.024ZM518.231 179.024C518.231 164.528 517.319 152.672 515.495 143.456C513.671 134.144 511.223 126.848 508.151 121.568C505.175 116.288 501.767 112.688 497.927 110.768C494.087 108.752 490.199 107.744 486.263 107.744C482.327 107.744 478.439 108.752 474.599 110.768C470.855 112.688 467.495 116.288 464.519 121.568C461.639 126.848 459.287 134.144 457.463 143.456C455.735 152.672 454.871 164.528 454.871 179.024C454.871 193.616 455.735 205.52 457.463 214.736C459.287 223.952 461.639 231.248 464.519 236.624C467.495 241.904 470.855 245.552 474.599 247.568C478.439 249.488 482.327 250.448 486.263 250.448C490.199 250.448 494.087 249.488 497.927 247.568C501.767 245.552 505.175 241.904 508.151 236.624C511.223 231.248 513.671 223.952 515.495 214.736C517.319 205.52 518.231 193.616 518.231 179.024ZM731.374 179.024C731.374 197.36 729.406 213.248 725.47 226.688C721.534 240.128 716.062 251.264 709.054 260.096C702.142 268.928 693.886 275.504 684.286 279.824C674.782 284.144 664.462 286.304 653.326 286.304C642.19 286.304 631.87 284.144 622.366 279.824C612.958 275.504 604.798 268.928 597.886 260.096C590.974 251.264 585.55 240.128 581.614 226.688C577.774 213.248 575.854 197.36 575.854 179.024C575.854 160.688 577.774 144.8 581.614 131.36C585.55 117.92 590.974 106.784 597.886 97.952C604.798 89.12 612.958 82.592 622.366 78.368C631.87 74.048 642.19 71.888 653.326 71.888C664.462 71.888 674.782 74.048 684.286 78.368C693.886 82.592 702.142 89.12 709.054 97.952C716.062 106.784 721.534 117.92 725.47 131.36C729.406 144.8 731.374 160.688 731.374 179.024ZM685.294 179.024C685.294 164.528 684.382 152.672 682.558 143.456C680.734 134.144 678.286 126.848 675.214 121.568C672.238 116.288 668.83 112.688 664.99 110.768C661.15 108.752 657.262 107.744 653.326 107.744C649.39 107.744 645.502 108.752 641.662 110.768C637.918 112.688 634.558 116.288 631.582 121.568C628.702 126.848 626.35 134.144 624.526 143.456C622.798 152.672 621.934 164.528 621.934 179.024C621.934 193.616 622.798 205.52 624.526 214.736C626.35 223.952 628.702 231.248 631.582 236.624C634.558 241.904 637.918 245.552 641.662 247.568C645.502 249.488 649.39 250.448 653.326 250.448C657.262 250.448 661.15 249.488 664.99 247.568C668.83 245.552 672.238 241.904 675.214 236.624C678.286 231.248 680.734 223.952 682.558 214.736C684.382 205.52 685.294 193.616 685.294 179.024ZM746.228 261.392C746.228 257.936 746.852 254.72 748.1 251.744C749.444 248.768 751.22 246.176 753.428 243.968C755.732 241.76 758.42 240.032 761.492 238.784C764.564 237.44 767.924 236.768 771.572 236.768C775.124 236.768 778.436 237.44 781.508 238.784C784.58 240.032 787.268 241.76 789.572 243.968C791.876 246.176 793.652 248.768 794.9 251.744C796.244 254.72 796.916 257.936 796.916 261.392C796.916 264.848 796.244 268.112 794.9 271.184C793.652 274.16 791.876 276.752 789.572 278.96C787.268 281.168 784.58 282.896 781.508 284.144C778.436 285.392 775.124 286.016 771.572 286.016C767.924 286.016 764.564 285.392 761.492 284.144C758.42 282.896 755.732 281.168 753.428 278.96C751.22 276.752 749.444 274.16 748.1 271.184C746.852 268.112 746.228 264.848 746.228 261.392ZM967.343 179.024C967.343 197.36 965.375 213.248 961.438 226.688C957.503 240.128 952.031 251.264 945.023 260.096C938.111 268.928 929.855 275.504 920.255 279.824C910.751 284.144 900.431 286.304 889.295 286.304C878.159 286.304 867.839 284.144 858.335 279.824C848.927 275.504 840.767 268.928 833.855 260.096C826.943 251.264 821.519 240.128 817.583 226.688C813.743 213.248 811.823 197.36 811.823 179.024C811.823 160.688 813.743 144.8 817.583 131.36C821.519 117.92 826.943 106.784 833.855 97.952C840.767 89.12 848.927 82.592 858.335 78.368C867.839 74.048 878.159 71.888 889.295 71.888C900.431 71.888 910.751 74.048 920.255 78.368C929.855 82.592 938.111 89.12 945.023 97.952C952.031 106.784 957.503 117.92 961.438 131.36C965.375 144.8 967.343 160.688 967.343 179.024ZM921.263 179.024C921.263 164.528 920.351 152.672 918.527 143.456C916.703 134.144 914.255 126.848 911.183 121.568C908.207 116.288 904.799 112.688 900.959 110.768C897.119 108.752 893.231 107.744 889.295 107.744C885.359 107.744 881.471 108.752 877.631 110.768C873.887 112.688 870.527 116.288 867.551 121.568C864.671 126.848 862.319 134.144 860.495 143.456C858.767 152.672 857.903 164.528 857.903 179.024C857.903 193.616 858.767 205.52 860.495 214.736C862.319 223.952 864.671 231.248 867.551 236.624C870.527 241.904 873.887 245.552 877.631 247.568C881.471 249.488 885.359 250.448 889.295 250.448C893.231 250.448 897.119 249.488 900.959 247.568C904.799 245.552 908.207 241.904 911.183 236.624C914.255 231.248 916.703 223.952 918.527 214.736C920.351 205.52 921.263 193.616 921.263 179.024ZM1134.41 179.024C1134.41 197.36 1132.44 213.248 1128.5 226.688C1124.57 240.128 1119.09 251.264 1112.09 260.096C1105.17 268.928 1096.92 275.504 1087.32 279.824C1077.81 284.144 1067.49 286.304 1056.36 286.304C1045.22 286.304 1034.9 284.144 1025.4 279.824C1015.99 275.504 1007.83 268.928 1000.92 260.096C994.005 251.264 988.581 240.128 984.645 226.688C980.805 213.248 978.885 197.36 978.885 179.024C978.885 160.688 980.805 144.8 984.645 131.36C988.581 117.92 994.005 106.784 1000.92 97.952C1007.83 89.12 1015.99 82.592 1025.4 78.368C1034.9 74.048 1045.22 71.888 1056.36 71.888C1067.49 71.888 1077.81 74.048 1087.32 78.368C1096.92 82.592 1105.17 89.12 1112.09 97.952C1119.09 106.784 1124.57 117.92 1128.5 131.36C1132.44 144.8 1134.41 160.688 1134.41 179.024ZM1088.33 179.024C1088.33 164.528 1087.41 152.672 1085.59 143.456C1083.77 134.144 1081.32 126.848 1078.25 121.568C1075.27 116.288 1071.86 112.688 1068.02 110.768C1064.18 108.752 1060.29 107.744 1056.36 107.744C1052.42 107.744 1048.53 108.752 1044.69 110.768C1040.95 112.688 1037.59 116.288 1034.61 121.568C1031.73 126.848 1029.38 134.144 1027.56 143.456C1025.83 152.672 1024.97 164.528 1024.97 179.024C1024.97 193.616 1025.83 205.52 1027.56 214.736C1029.38 223.952 1031.73 231.248 1034.61 236.624C1037.59 241.904 1040.95 245.552 1044.69 247.568C1048.53 249.488 1052.42 250.448 1056.36 250.448C1060.29 250.448 1064.18 249.488 1068.02 247.568C1071.86 245.552 1075.27 241.904 1078.25 236.624C1081.32 231.248 1083.77 223.952 1085.59 214.736C1087.41 205.52 1088.33 193.616 1088.33 179.024ZM1301.47 179.024C1301.47 197.36 1299.5 213.248 1295.56 226.688C1291.63 240.128 1286.16 251.264 1279.15 260.096C1272.24 268.928 1263.98 275.504 1254.38 279.824C1244.88 284.144 1234.56 286.304 1223.42 286.304C1212.28 286.304 1201.96 284.144 1192.46 279.824C1183.05 275.504 1174.89 268.928 1167.98 260.096C1161.07 251.264 1155.64 240.128 1151.71 226.688C1147.87 213.248 1145.95 197.36 1145.95 179.024C1145.95 160.688 1147.87 144.8 1151.71 131.36C1155.64 117.92 1161.07 106.784 1167.98 97.952C1174.89 89.12 1183.05 82.592 1192.46 78.368C1201.96 74.048 1212.28 71.888 1223.42 71.888C1234.56 71.888 1244.88 74.048 1254.38 78.368C1263.98 82.592 1272.24 89.12 1279.15 97.952C1286.16 106.784 1291.63 117.92 1295.56 131.36C1299.5 144.8 1301.47 160.688 1301.47 179.024ZM1255.39 179.024C1255.39 164.528 1254.48 152.672 1252.65 143.456C1250.83 134.144 1248.38 126.848 1245.31 121.568C1242.33 116.288 1238.92 112.688 1235.08 110.768C1231.24 108.752 1227.36 107.744 1223.42 107.744C1219.48 107.744 1215.6 108.752 1211.76 110.768C1208.01 112.688 1204.65 116.288 1201.68 121.568C1198.8 126.848 1196.44 134.144 1194.62 143.456C1192.89 152.672 1192.03 164.528 1192.03 179.024C1192.03 193.616 1192.89 205.52 1194.62 214.736C1196.44 223.952 1198.8 231.248 1201.68 236.624C1204.65 241.904 1208.01 245.552 1211.76 247.568C1215.6 249.488 1219.48 250.448 1223.42 250.448C1227.36 250.448 1231.24 249.488 1235.08 247.568C1238.92 245.552 1242.33 241.904 1245.31 236.624C1248.38 231.248 1250.83 223.952 1252.65 214.736C1254.48 205.52 1255.39 193.616 1255.39 179.024Z" fill="#F1F2F4"/>
<path d="M151.344 533.744V566H31.824V533.744H72.144V427.904C72.144 425.216 72.192 422.528 72.288 419.84C72.384 417.056 72.528 414.272 72.72 411.488L48.816 431.36C46.704 432.992 44.592 434 42.48 434.384C40.464 434.672 38.544 434.672 36.72 434.384C34.896 434 33.264 433.376 31.824 432.512C30.384 431.552 29.328 430.592 28.656 429.632L14.544 410.912L79.92 356.048H116.784V533.744H151.344ZM328.343 461.024C328.343 479.36 326.375 495.248 322.438 508.688C318.503 522.128 313.031 533.264 306.023 542.096C299.111 550.928 290.855 557.504 281.255 561.824C271.751 566.144 261.431 568.304 250.295 568.304C239.159 568.304 228.839 566.144 219.335 561.824C209.927 557.504 201.767 550.928 194.855 542.096C187.943 533.264 182.519 522.128 178.583 508.688C174.743 495.248 172.823 479.36 172.823 461.024C172.823 442.688 174.743 426.8 178.583 413.36C182.519 399.92 187.943 388.784 194.855 379.952C201.767 371.12 209.927 364.592 219.335 360.368C228.839 356.048 239.159 353.888 250.295 353.888C261.431 353.888 271.751 356.048 281.255 360.368C290.855 364.592 299.111 371.12 306.023 379.952C313.031 388.784 318.503 399.92 322.438 413.36C326.375 426.8 328.343 442.688 328.343 461.024ZM282.263 461.024C282.263 446.528 281.351 434.672 279.527 425.456C277.703 416.144 275.255 408.848 272.183 403.568C269.207 398.288 265.799 394.688 261.959 392.768C258.119 390.752 254.231 389.744 250.295 389.744C246.359 389.744 242.471 390.752 238.631 392.768C234.887 394.688 231.527 398.288 228.551 403.568C225.671 408.848 223.319 416.144 221.495 425.456C219.767 434.672 218.903 446.528 218.903 461.024C218.903 475.616 219.767 487.52 221.495 496.736C223.319 505.952 225.671 513.248 228.551 518.624C231.527 523.904 234.887 527.552 238.631 529.568C242.471 531.488 246.359 532.448 250.295 532.448C254.231 532.448 258.119 531.488 261.959 529.568C265.799 527.552 269.207 523.904 272.183 518.624C275.255 513.248 277.703 505.952 279.527 496.736C281.351 487.52 282.263 475.616 282.263 461.024ZM444.429 407.024C444.429 414.704 443.037 421.712 440.253 428.048C437.469 434.384 433.773 439.856 429.165 444.464C424.557 448.976 419.181 452.48 413.037 454.976C406.989 457.472 400.653 458.72 394.029 458.72C386.733 458.72 380.013 457.472 373.869 454.976C367.821 452.48 362.541 448.976 358.029 444.464C353.613 439.856 350.157 434.384 347.661 428.048C345.165 421.712 343.917 414.704 343.917 407.024C343.917 399.056 345.165 391.856 347.661 385.424C350.157 378.896 353.613 373.328 358.029 368.72C362.541 364.112 367.821 360.56 373.869 358.064C380.013 355.472 386.733 354.176 394.029 354.176C401.325 354.176 408.045 355.472 414.189 358.064C420.429 360.56 425.757 364.112 430.173 368.72C434.685 373.328 438.189 378.896 440.685 385.424C443.181 391.856 444.429 399.056 444.429 407.024ZM410.157 407.024C410.157 402.128 409.725 398.096 408.861 394.928C408.093 391.664 406.989 389.072 405.549 387.152C404.109 385.232 402.381 383.888 400.365 383.12C398.445 382.352 396.333 381.968 394.029 381.968C391.725 381.968 389.613 382.352 387.693 383.12C385.773 383.888 384.141 385.232 382.797 387.152C381.453 389.072 380.397 391.664 379.629 394.928C378.861 398.096 378.477 402.128 378.477 407.024C378.477 411.632 378.861 415.472 379.629 418.544C380.397 421.616 381.453 424.064 382.797 425.888C384.141 427.712 385.773 429.008 387.693 429.776C389.613 430.544 391.725 430.928 394.029 430.928C396.333 430.928 398.445 430.544 400.365 429.776C402.381 429.008 404.109 427.712 405.549 425.888C406.989 424.064 408.093 421.616 408.861 418.544C409.725 415.472 410.157 411.632 410.157 407.024ZM510.381 362.816C511.821 361.184 513.597 359.696 515.709 358.352C517.821 356.912 520.749 356.192 524.493 356.192H557.037L398.925 559.664C397.485 561.488 395.661 563.024 393.453 564.272C391.341 565.424 388.749 566 385.677 566H352.269L510.381 362.816ZM565.101 516.752C565.101 524.432 563.709 531.488 560.925 537.92C558.141 544.256 554.445 549.728 549.837 554.336C545.229 558.848 539.853 562.352 533.709 564.848C527.661 567.344 521.325 568.592 514.701 568.592C507.405 568.592 500.685 567.344 494.541 564.848C488.493 562.352 483.213 558.848 478.701 554.336C474.285 549.728 470.829 544.256 468.333 537.92C465.837 531.488 464.589 524.432 464.589 516.752C464.589 508.784 465.837 501.584 468.333 495.152C470.829 488.624 474.285 483.056 478.701 478.448C483.213 473.84 488.493 470.288 494.541 467.792C500.685 465.2 507.405 463.904 514.701 463.904C521.997 463.904 528.717 465.2 534.861 467.792C541.101 470.288 546.429 473.84 550.845 478.448C555.357 483.056 558.861 488.624 561.357 495.152C563.853 501.584 565.101 508.784 565.101 516.752ZM530.829 516.752C530.829 511.952 530.397 507.968 529.533 504.8C528.765 501.536 527.661 498.944 526.221 497.024C524.781 495.104 523.053 493.76 521.037 492.992C519.117 492.224 517.005 491.84 514.701 491.84C512.397 491.84 510.285 492.224 508.365 492.992C506.445 493.76 504.813 495.104 503.469 497.024C502.125 498.944 501.069 501.536 500.301 504.8C499.533 507.968 499.149 511.952 499.149 516.752C499.149 521.36 499.533 525.2 500.301 528.272C501.069 531.344 502.125 533.792 503.469 535.616C504.813 537.44 506.445 538.736 508.365 539.504C510.285 540.272 512.397 540.656 514.701 540.656C517.005 540.656 519.117 540.272 521.037 539.504C523.053 538.736 524.781 537.44 526.221 535.616C527.661 533.792 528.765 531.344 529.533 528.272C530.397 525.2 530.829 521.36 530.829 516.752Z" fill="#F1F2F4"/>
</svg>
