<svg width="24" height="19" viewBox="0 0 24 19" fill="none" xmlns="http://www.w3.org/2000/svg">
<path d="M19.4046 7.80238C19.1589 4.08425 16.532 0.5 11.7143 0.5C11.1263 0.5 10.5463 0.55625 9.98971 0.667062C9.91538 0.681906 9.85008 0.725211 9.80818 0.787449C9.76627 0.849688 9.75121 0.925763 9.76629 0.998938C9.78137 1.07211 9.82536 1.13639 9.88858 1.17764C9.95181 1.21889 10.0291 1.23372 10.1034 1.21887C10.6337 1.11386 11.1734 1.06148 11.7143 1.0625C16.6217 1.0625 18.8571 4.85319 18.8571 8.375V9.21875C18.8571 9.29334 18.8872 9.36488 18.9408 9.41762C18.9944 9.47037 19.0671 9.5 19.1429 9.5C19.2186 9.5 19.2913 9.47037 19.3449 9.41762C19.3985 9.36488 19.4286 9.29334 19.4286 9.21875V8.375L19.428 8.366C21.1783 8.5145 23.4286 10.0153 23.4286 13.1562C23.4286 15.8377 21.4206 17.9375 18.8571 17.9375H5.14286C2.87086 17.9375 0.571429 16.295 0.571429 13.1562C0.571429 10.8534 2.00229 8.375 5.14286 8.375H6C6.07578 8.375 6.14845 8.34537 6.20203 8.29262C6.25561 8.23988 6.28571 8.16834 6.28571 8.09375C6.28571 8.01916 6.25561 7.94762 6.20203 7.89488C6.14845 7.84213 6.07578 7.8125 6 7.8125H5.14286V6.6875C5.14286 4.59106 6.45657 3.28888 8.57143 3.28888C10.4937 3.28888 12 4.78175 12 6.6875V13.9961L9.62286 11.8248C9.59539 11.7997 9.56317 11.7802 9.52803 11.7673C9.4929 11.7544 9.45553 11.7485 9.41807 11.7499C9.34241 11.7526 9.27096 11.7848 9.21943 11.8394C9.1679 11.894 9.14052 11.9666 9.1433 12.041C9.14609 12.1155 9.17882 12.1858 9.23429 12.2366L11.8149 14.5929C11.9857 14.7605 12.1366 14.8432 12.2874 14.8432C12.4366 14.8432 12.5846 14.7616 12.7491 14.5996L15.3371 12.236C15.3647 12.2109 15.387 12.1808 15.4027 12.1472C15.4183 12.1137 15.4271 12.0774 15.4285 12.0405C15.4299 12.0036 15.4238 11.9668 15.4107 11.9322C15.3976 11.8976 15.3776 11.8659 15.352 11.8389C15.3266 11.8117 15.296 11.7897 15.2619 11.7742C15.2278 11.7587 15.1909 11.7501 15.1534 11.7487C15.1159 11.7474 15.0785 11.7533 15.0433 11.7663C15.0081 11.7793 14.9759 11.799 14.9486 11.8243L12.5714 13.9961V6.6875C12.5714 4.46619 10.8143 2.72637 8.57143 2.72637C6.14171 2.72637 4.57143 4.28113 4.57143 6.6875V7.84119C1.56857 8.12694 0 10.6554 0 13.1562C0 15.7466 1.80229 18.5 5.14286 18.5H18.8571C21.7411 18.5 24 16.1527 24 13.1562C24 9.61025 21.396 7.93738 19.4046 7.80238Z" fill="#03264A"/>
</svg>
