<svg width="25" height="25" viewBox="0 0 25 25" fill="none" xmlns="http://www.w3.org/2000/svg">
<path d="M12.5 21C7.8 21 4 17.2 4 12.5C4 7.8 7.8 4 12.5 4C17.2 4 21 7.8 21 12.5C21 17.2 17.2 21 12.5 21ZM12.5 5C8.35 5 5 8.35 5 12.5C5 16.65 8.35 20 12.5 20C16.65 20 20 16.65 20 12.5C20 8.35 16.65 5 12.5 5Z" fill="#ffffff"/>
<path d="M9.90001 9.7998C10.05 9.3998 10.2 9.0998 10.5 8.8498C10.75 8.5998 11.05 8.3998 11.45 8.2498C11.85 8.0998 12.25 8.0498 12.7 8.0498C13.05 8.0498 13.4 8.0998 13.7 8.1998C14 8.2998 14.3 8.4498 14.55 8.6498C14.8 8.8498 15 9.0998 15.1 9.3998C15.25 9.6998 15.3 10.0498 15.3 10.3998C15.3 10.8998 15.2 11.2998 15 11.6498C14.8 11.9998 14.5 12.2998 14.2 12.6498L13.55 13.2998C13.4 13.4498 13.25 13.5998 13.2 13.7498C13.1 13.8998 13.05 14.0998 13.05 14.2998C13 14.4998 13 14.6498 13 15.0498H12.2C12.2 14.6498 12.2 14.4998 12.25 14.1998C12.3 13.9498 12.4 13.6998 12.5 13.4498C12.6 13.2498 12.75 13.0498 12.95 12.8498C13.15 12.6498 13.4 12.4498 13.65 12.1498C13.9 11.8998 14.1 11.6498 14.25 11.3998C14.4 11.1498 14.5 10.7998 14.5 10.4998C14.5 10.2498 14.45 9.9998 14.35 9.7998C14.25 9.5998 14.1 9.3998 13.95 9.2498C13.8 9.0998 13.6 8.9998 13.35 8.8998C13.1 8.7998 12.9 8.7498 12.65 8.7498C12.3 8.7498 12 8.7998 11.75 8.9498C11.5 9.0498 11.25 9.2498 11.1 9.4498C10.95 9.6498 10.8 9.8998 10.7 10.1998C10.6 10.4998 10.5 10.6498 10.5 10.9998H9.70001C9.70001 10.5498 9.75001 10.1998 9.90001 9.7998ZM13 15.9998V16.9998H12V15.9998H13Z" fill="#ffffff"/>
</svg>
