<svg width="19" height="19" viewBox="0 0 19 19" fill="none" xmlns="http://www.w3.org/2000/svg">
<path d="M9.50002 0.918679C6.12532 0.872904 2.87368 3.04477 1.59362 6.16216C0.25659 9.2251 0.951296 13.03 3.2901 15.4188C5.53952 17.8401 9.24569 18.7289 12.3496 17.5959C15.5664 16.5005 17.9413 13.3414 18.0704 9.94129C18.2869 6.60023 16.3213 3.26697 13.3115 1.81162C12.133 1.2235 10.8169 0.916795 9.50002 0.918679ZM9.50002 1.84641C12.8332 1.78844 16.0033 4.18278 16.8639 7.40289C17.7641 10.4357 16.5465 13.9472 13.9331 15.7434C11.2184 17.7388 7.19274 17.5944 4.6292 15.408C2.04625 13.3486 1.12168 9.53941 2.44691 6.51865C3.59552 3.72605 6.47874 1.81096 9.50002 1.84641ZM5.60701 6.53102V12.4694H13.393V6.53101H5.60701V6.53102ZM7.33662 7.45879H11.6628C10.8965 7.93031 10.1302 8.96541 9.36399 9.07835C8.68823 8.53847 8.01242 7.99863 7.33661 7.45879H7.33662ZM12.4664 8.00497V11.5417H6.53362V8.00524C7.52212 8.79524 8.5106 9.58528 9.49914 10.3752C10.4883 9.58518 11.4773 8.79505 12.4664 8.00497Z" fill="#03264A"/>
</svg>
