<svg width="197" height="197" viewBox="0 0 197 197" fill="none" xmlns="http://www.w3.org/2000/svg">
<path d="M2.45638 3.90979C3.26072 3.90979 3.91276 3.25841 3.91276 2.45489C3.91276 1.65138 3.26072 1 2.45638 1C1.65204 1 1 1.65138 1 2.45489C1 3.25841 1.65204 3.90979 2.45638 3.90979Z" fill="#C6A874" stroke="#C6A874" stroke-miterlimit="10"/>
<path d="M20.0083 3.90979C20.8126 3.90979 21.4646 3.25841 21.4646 2.45489C21.4646 1.65138 20.8126 1 20.0083 1C19.2039 1 18.5519 1.65138 18.5519 2.45489C18.5519 3.25841 19.2039 3.90979 20.0083 3.90979Z" fill="#C6A874" stroke="#C6A874" stroke-miterlimit="10"/>
<path d="M37.5477 3.90979C38.352 3.90979 39.0041 3.25841 39.0041 2.45489C39.0041 1.65138 38.352 1 37.5477 1C36.7434 1 36.0913 1.65138 36.0913 2.45489C36.0913 3.25841 36.7434 3.90979 37.5477 3.90979Z" fill="#C6A874" stroke="#C6A874" stroke-miterlimit="10"/>
<path d="M55.087 3.90979C55.8913 3.90979 56.5434 3.25841 56.5434 2.45489C56.5434 1.65138 55.8913 1 55.087 1C54.2827 1 53.6306 1.65138 53.6306 2.45489C53.6306 3.25841 54.2827 3.90979 55.087 3.90979Z" fill="#C6A874" stroke="#C6A874" stroke-miterlimit="10"/>
<path d="M72.6264 3.90979C73.4308 3.90979 74.0828 3.25841 74.0828 2.45489C74.0828 1.65138 73.4308 1 72.6264 1C71.8221 1 71.17 1.65138 71.17 2.45489C71.17 3.25841 71.8221 3.90979 72.6264 3.90979Z" fill="#C6A874" stroke="#C6A874" stroke-miterlimit="10"/>
<path d="M90.1782 3.90979C90.9825 3.90979 91.6346 3.25841 91.6346 2.45489C91.6346 1.65138 90.9825 1 90.1782 1C89.3738 1 88.7218 1.65138 88.7218 2.45489C88.7218 3.25841 89.3738 3.90979 90.1782 3.90979Z" fill="#C6A874" stroke="#C6A874" stroke-miterlimit="10"/>
<path d="M2.45638 21.444C3.26072 21.444 3.91276 20.7926 3.91276 19.9891C3.91276 19.1856 3.26072 18.5342 2.45638 18.5342C1.65204 18.5342 1 19.1856 1 19.9891C1 20.7926 1.65204 21.444 2.45638 21.444Z" fill="#C6A874" stroke="#C6A874" stroke-miterlimit="10"/>
<path d="M20.0083 21.444C20.8126 21.444 21.4646 20.7926 21.4646 19.9891C21.4646 19.1856 20.8126 18.5342 20.0083 18.5342C19.2039 18.5342 18.5519 19.1856 18.5519 19.9891C18.5519 20.7926 19.2039 21.444 20.0083 21.444Z" fill="#C6A874" stroke="#C6A874" stroke-miterlimit="10"/>
<path d="M37.5477 21.444C38.352 21.444 39.0041 20.7926 39.0041 19.9891C39.0041 19.1856 38.352 18.5342 37.5477 18.5342C36.7434 18.5342 36.0913 19.1856 36.0913 19.9891C36.0913 20.7926 36.7434 21.444 37.5477 21.444Z" fill="#C6A874" stroke="#C6A874" stroke-miterlimit="10"/>
<path d="M55.087 21.444C55.8913 21.444 56.5434 20.7926 56.5434 19.9891C56.5434 19.1856 55.8913 18.5342 55.087 18.5342C54.2827 18.5342 53.6306 19.1856 53.6306 19.9891C53.6306 20.7926 54.2827 21.444 55.087 21.444Z" fill="#C6A874" stroke="#C6A874" stroke-miterlimit="10"/>
<path d="M72.6264 21.444C73.4308 21.444 74.0828 20.7926 74.0828 19.9891C74.0828 19.1856 73.4308 18.5342 72.6264 18.5342C71.8221 18.5342 71.17 19.1856 71.17 19.9891C71.17 20.7926 71.8221 21.444 72.6264 21.444Z" fill="#C6A874" stroke="#C6A874" stroke-miterlimit="10"/>
<path d="M90.1782 21.444C90.9825 21.444 91.6346 20.7926 91.6346 19.9891C91.6346 19.1856 90.9825 18.5342 90.1782 18.5342C89.3738 18.5342 88.7218 19.1856 88.7218 19.9891C88.7218 20.7926 89.3738 21.444 90.1782 21.444Z" fill="#C6A874" stroke="#C6A874" stroke-miterlimit="10"/>
<path d="M2.45638 38.9655C3.26072 38.9655 3.91276 38.3141 3.91276 37.5106C3.91276 36.707 3.26072 36.0557 2.45638 36.0557C1.65204 36.0557 1 36.707 1 37.5106C1 38.3141 1.65204 38.9655 2.45638 38.9655Z" fill="#C6A874" stroke="#C6A874" stroke-miterlimit="10"/>
<path d="M20.0083 38.9655C20.8126 38.9655 21.4646 38.3141 21.4646 37.5106C21.4646 36.707 20.8126 36.0557 20.0083 36.0557C19.2039 36.0557 18.5519 36.707 18.5519 37.5106C18.5519 38.3141 19.2039 38.9655 20.0083 38.9655Z" fill="#C6A874" stroke="#C6A874" stroke-miterlimit="10"/>
<path d="M37.5477 38.9655C38.352 38.9655 39.0041 38.3141 39.0041 37.5106C39.0041 36.707 38.352 36.0557 37.5477 36.0557C36.7434 36.0557 36.0913 36.707 36.0913 37.5106C36.0913 38.3141 36.7434 38.9655 37.5477 38.9655Z" fill="#C6A874" stroke="#C6A874" stroke-miterlimit="10"/>
<path d="M55.087 38.9655C55.8913 38.9655 56.5434 38.3141 56.5434 37.5106C56.5434 36.707 55.8913 36.0557 55.087 36.0557C54.2827 36.0557 53.6306 36.707 53.6306 37.5106C53.6306 38.3141 54.2827 38.9655 55.087 38.9655Z" fill="#C6A874" stroke="#C6A874" stroke-miterlimit="10"/>
<path d="M72.6264 38.9655C73.4308 38.9655 74.0828 38.3141 74.0828 37.5106C74.0828 36.707 73.4308 36.0557 72.6264 36.0557C71.8221 36.0557 71.17 36.707 71.17 37.5106C71.17 38.3141 71.8221 38.9655 72.6264 38.9655Z" fill="#C6A874" stroke="#C6A874" stroke-miterlimit="10"/>
<path d="M90.1782 38.9655C90.9825 38.9655 91.6346 38.3141 91.6346 37.5106C91.6346 36.707 90.9825 36.0557 90.1782 36.0557C89.3738 36.0557 88.7218 36.707 88.7218 37.5106C88.7218 38.3141 89.3738 38.9655 90.1782 38.9655Z" fill="#C6A874" stroke="#C6A874" stroke-miterlimit="10"/>
<path d="M2.45638 56.4864C3.26072 56.4864 3.91276 55.8351 3.91276 55.0316C3.91276 54.228 3.26072 53.5767 2.45638 53.5767C1.65204 53.5767 1 54.228 1 55.0316C1 55.8351 1.65204 56.4864 2.45638 56.4864Z" fill="#C6A874" stroke="#C6A874" stroke-miterlimit="10"/>
<path d="M20.0083 56.4864C20.8126 56.4864 21.4646 55.8351 21.4646 55.0316C21.4646 54.228 20.8126 53.5767 20.0083 53.5767C19.2039 53.5767 18.5519 54.228 18.5519 55.0316C18.5519 55.8351 19.2039 56.4864 20.0083 56.4864Z" fill="#C6A874" stroke="#C6A874" stroke-miterlimit="10"/>
<path d="M37.5477 56.4864C38.352 56.4864 39.0041 55.8351 39.0041 55.0316C39.0041 54.228 38.352 53.5767 37.5477 53.5767C36.7434 53.5767 36.0913 54.228 36.0913 55.0316C36.0913 55.8351 36.7434 56.4864 37.5477 56.4864Z" fill="#C6A874" stroke="#C6A874" stroke-miterlimit="10"/>
<path d="M55.087 56.4864C55.8913 56.4864 56.5434 55.8351 56.5434 55.0316C56.5434 54.228 55.8913 53.5767 55.087 53.5767C54.2827 53.5767 53.6306 54.228 53.6306 55.0316C53.6306 55.8351 54.2827 56.4864 55.087 56.4864Z" fill="#C6A874" stroke="#C6A874" stroke-miterlimit="10"/>
<path d="M72.6264 56.4864C73.4308 56.4864 74.0828 55.8351 74.0828 55.0316C74.0828 54.228 73.4308 53.5767 72.6264 53.5767C71.8221 53.5767 71.17 54.228 71.17 55.0316C71.17 55.8351 71.8221 56.4864 72.6264 56.4864Z" fill="#C6A874" stroke="#C6A874" stroke-miterlimit="10"/>
<path d="M90.1782 56.4864C90.9825 56.4864 91.6346 55.8351 91.6346 55.0316C91.6346 54.228 90.9825 53.5767 90.1782 53.5767C89.3738 53.5767 88.7218 54.228 88.7218 55.0316C88.7218 55.8351 89.3738 56.4864 90.1782 56.4864Z" fill="#C6A874" stroke="#C6A874" stroke-miterlimit="10"/>
<path d="M2.45638 74.0079C3.26072 74.0079 3.91276 73.3566 3.91276 72.553C3.91276 71.7495 3.26072 71.0981 2.45638 71.0981C1.65204 71.0981 1 71.7495 1 72.553C1 73.3566 1.65204 74.0079 2.45638 74.0079Z" fill="#C6A874" stroke="#C6A874" stroke-miterlimit="10"/>
<path d="M20.0083 74.0079C20.8126 74.0079 21.4646 73.3566 21.4646 72.553C21.4646 71.7495 20.8126 71.0981 20.0083 71.0981C19.2039 71.0981 18.5519 71.7495 18.5519 72.553C18.5519 73.3566 19.2039 74.0079 20.0083 74.0079Z" fill="#C6A874" stroke="#C6A874" stroke-miterlimit="10"/>
<path d="M37.5477 74.0079C38.352 74.0079 39.0041 73.3566 39.0041 72.553C39.0041 71.7495 38.352 71.0981 37.5477 71.0981C36.7434 71.0981 36.0913 71.7495 36.0913 72.553C36.0913 73.3566 36.7434 74.0079 37.5477 74.0079Z" fill="#C6A874" stroke="#C6A874" stroke-miterlimit="10"/>
<path d="M55.087 74.0079C55.8913 74.0079 56.5434 73.3566 56.5434 72.553C56.5434 71.7495 55.8913 71.0981 55.087 71.0981C54.2827 71.0981 53.6306 71.7495 53.6306 72.553C53.6306 73.3566 54.2827 74.0079 55.087 74.0079Z" fill="#C6A874" stroke="#C6A874" stroke-miterlimit="10"/>
<path d="M72.6264 74.0079C73.4308 74.0079 74.0828 73.3566 74.0828 72.553C74.0828 71.7495 73.4308 71.0981 72.6264 71.0981C71.8221 71.0981 71.17 71.7495 71.17 72.553C71.17 73.3566 71.8221 74.0079 72.6264 74.0079Z" fill="#C6A874" stroke="#C6A874" stroke-miterlimit="10"/>
<path d="M90.1782 74.0079C90.9825 74.0079 91.6346 73.3566 91.6346 72.553C91.6346 71.7495 90.9825 71.0981 90.1782 71.0981C89.3738 71.0981 88.7218 71.7495 88.7218 72.553C88.7218 73.3566 89.3738 74.0079 90.1782 74.0079Z" fill="#C6A874" stroke="#C6A874" stroke-miterlimit="10"/>
<path d="M2.45638 91.5421C3.26072 91.5421 3.91276 90.8907 3.91276 90.0872C3.91276 89.2837 3.26072 88.6323 2.45638 88.6323C1.65204 88.6323 1 89.2837 1 90.0872C1 90.8907 1.65204 91.5421 2.45638 91.5421Z" fill="#C6A874" stroke="#C6A874" stroke-miterlimit="10"/>
<path d="M20.0083 91.5421C20.8126 91.5421 21.4646 90.8907 21.4646 90.0872C21.4646 89.2837 20.8126 88.6323 20.0083 88.6323C19.2039 88.6323 18.5519 89.2837 18.5519 90.0872C18.5519 90.8907 19.2039 91.5421 20.0083 91.5421Z" fill="#C6A874" stroke="#C6A874" stroke-miterlimit="10"/>
<path d="M37.5477 91.5421C38.352 91.5421 39.0041 90.8907 39.0041 90.0872C39.0041 89.2837 38.352 88.6323 37.5477 88.6323C36.7434 88.6323 36.0913 89.2837 36.0913 90.0872C36.0913 90.8907 36.7434 91.5421 37.5477 91.5421Z" fill="#C6A874" stroke="#C6A874" stroke-miterlimit="10"/>
<path d="M55.087 91.5421C55.8913 91.5421 56.5434 90.8907 56.5434 90.0872C56.5434 89.2837 55.8913 88.6323 55.087 88.6323C54.2827 88.6323 53.6306 89.2837 53.6306 90.0872C53.6306 90.8907 54.2827 91.5421 55.087 91.5421Z" fill="#C6A874" stroke="#C6A874" stroke-miterlimit="10"/>
<path d="M72.6264 91.5421C73.4308 91.5421 74.0828 90.8907 74.0828 90.0872C74.0828 89.2837 73.4308 88.6323 72.6264 88.6323C71.8221 88.6323 71.17 89.2837 71.17 90.0872C71.17 90.8907 71.8221 91.5421 72.6264 91.5421Z" fill="#C6A874" stroke="#C6A874" stroke-miterlimit="10"/>
<path d="M90.1782 91.5421C90.9825 91.5421 91.6346 90.8907 91.6346 90.0872C91.6346 89.2837 90.9825 88.6323 90.1782 88.6323C89.3738 88.6323 88.7218 89.2837 88.7218 90.0872C88.7218 90.8907 89.3738 91.5421 90.1782 91.5421Z" fill="#C6A874" stroke="#C6A874" stroke-miterlimit="10"/>
<path d="M106.822 3.90979C107.626 3.90979 108.278 3.25841 108.278 2.45489C108.278 1.65138 107.626 1 106.822 1C106.017 1 105.365 1.65138 105.365 2.45489C105.365 3.25841 106.017 3.90979 106.822 3.90979Z" fill="#C6A874" stroke="#C6A874" stroke-miterlimit="10"/>
<path d="M124.374 3.90979C125.178 3.90979 125.83 3.25841 125.83 2.45489C125.83 1.65138 125.178 1 124.374 1C123.569 1 122.917 1.65138 122.917 2.45489C122.917 3.25841 123.569 3.90979 124.374 3.90979Z" fill="#C6A874" stroke="#C6A874" stroke-miterlimit="10"/>
<path d="M141.913 3.90979C142.717 3.90979 143.369 3.25841 143.369 2.45489C143.369 1.65138 142.717 1 141.913 1C141.109 1 140.457 1.65138 140.457 2.45489C140.457 3.25841 141.109 3.90979 141.913 3.90979Z" fill="#C6A874" stroke="#C6A874" stroke-miterlimit="10"/>
<path d="M159.452 3.90979C160.257 3.90979 160.909 3.25841 160.909 2.45489C160.909 1.65138 160.257 1 159.452 1C158.648 1 157.996 1.65138 157.996 2.45489C157.996 3.25841 158.648 3.90979 159.452 3.90979Z" fill="#C6A874" stroke="#C6A874" stroke-miterlimit="10"/>
<path d="M176.992 3.90979C177.796 3.90979 178.448 3.25841 178.448 2.45489C178.448 1.65138 177.796 1 176.992 1C176.187 1 175.535 1.65138 175.535 2.45489C175.535 3.25841 176.187 3.90979 176.992 3.90979Z" fill="#C6A874" stroke="#C6A874" stroke-miterlimit="10"/>
<path d="M194.544 3.90979C195.348 3.90979 196 3.25841 196 2.45489C196 1.65138 195.348 1 194.544 1C193.739 1 193.087 1.65138 193.087 2.45489C193.087 3.25841 193.739 3.90979 194.544 3.90979Z" fill="#C6A874" stroke="#C6A874" stroke-miterlimit="10"/>
<path d="M106.822 21.444C107.626 21.444 108.278 20.7926 108.278 19.9891C108.278 19.1856 107.626 18.5342 106.822 18.5342C106.017 18.5342 105.365 19.1856 105.365 19.9891C105.365 20.7926 106.017 21.444 106.822 21.444Z" fill="#C6A874" stroke="#C6A874" stroke-miterlimit="10"/>
<path d="M124.374 21.444C125.178 21.444 125.83 20.7926 125.83 19.9891C125.83 19.1856 125.178 18.5342 124.374 18.5342C123.569 18.5342 122.917 19.1856 122.917 19.9891C122.917 20.7926 123.569 21.444 124.374 21.444Z" fill="#C6A874" stroke="#C6A874" stroke-miterlimit="10"/>
<path d="M141.913 21.444C142.717 21.444 143.369 20.7926 143.369 19.9891C143.369 19.1856 142.717 18.5342 141.913 18.5342C141.109 18.5342 140.457 19.1856 140.457 19.9891C140.457 20.7926 141.109 21.444 141.913 21.444Z" fill="#C6A874" stroke="#C6A874" stroke-miterlimit="10"/>
<path d="M159.452 21.444C160.257 21.444 160.909 20.7926 160.909 19.9891C160.909 19.1856 160.257 18.5342 159.452 18.5342C158.648 18.5342 157.996 19.1856 157.996 19.9891C157.996 20.7926 158.648 21.444 159.452 21.444Z" fill="#C6A874" stroke="#C6A874" stroke-miterlimit="10"/>
<path d="M176.992 21.444C177.796 21.444 178.448 20.7926 178.448 19.9891C178.448 19.1856 177.796 18.5342 176.992 18.5342C176.187 18.5342 175.535 19.1856 175.535 19.9891C175.535 20.7926 176.187 21.444 176.992 21.444Z" fill="#C6A874" stroke="#C6A874" stroke-miterlimit="10"/>
<path d="M194.544 21.444C195.348 21.444 196 20.7926 196 19.9891C196 19.1856 195.348 18.5342 194.544 18.5342C193.739 18.5342 193.087 19.1856 193.087 19.9891C193.087 20.7926 193.739 21.444 194.544 21.444Z" fill="#C6A874" stroke="#C6A874" stroke-miterlimit="10"/>
<path d="M106.822 38.9655C107.626 38.9655 108.278 38.3141 108.278 37.5106C108.278 36.707 107.626 36.0557 106.822 36.0557C106.017 36.0557 105.365 36.707 105.365 37.5106C105.365 38.3141 106.017 38.9655 106.822 38.9655Z" fill="#C6A874" stroke="#C6A874" stroke-miterlimit="10"/>
<path d="M124.374 38.9655C125.178 38.9655 125.83 38.3141 125.83 37.5106C125.83 36.707 125.178 36.0557 124.374 36.0557C123.569 36.0557 122.917 36.707 122.917 37.5106C122.917 38.3141 123.569 38.9655 124.374 38.9655Z" fill="#C6A874" stroke="#C6A874" stroke-miterlimit="10"/>
<path d="M141.913 38.9655C142.717 38.9655 143.369 38.3141 143.369 37.5106C143.369 36.707 142.717 36.0557 141.913 36.0557C141.109 36.0557 140.457 36.707 140.457 37.5106C140.457 38.3141 141.109 38.9655 141.913 38.9655Z" fill="#C6A874" stroke="#C6A874" stroke-miterlimit="10"/>
<path d="M159.452 38.9655C160.257 38.9655 160.909 38.3141 160.909 37.5106C160.909 36.707 160.257 36.0557 159.452 36.0557C158.648 36.0557 157.996 36.707 157.996 37.5106C157.996 38.3141 158.648 38.9655 159.452 38.9655Z" fill="#C6A874" stroke="#C6A874" stroke-miterlimit="10"/>
<path d="M176.992 38.9655C177.796 38.9655 178.448 38.3141 178.448 37.5106C178.448 36.707 177.796 36.0557 176.992 36.0557C176.187 36.0557 175.535 36.707 175.535 37.5106C175.535 38.3141 176.187 38.9655 176.992 38.9655Z" fill="#C6A874" stroke="#C6A874" stroke-miterlimit="10"/>
<path d="M194.544 38.9655C195.348 38.9655 196 38.3141 196 37.5106C196 36.707 195.348 36.0557 194.544 36.0557C193.739 36.0557 193.087 36.707 193.087 37.5106C193.087 38.3141 193.739 38.9655 194.544 38.9655Z" fill="#C6A874" stroke="#C6A874" stroke-miterlimit="10"/>
<path d="M106.822 56.4864C107.626 56.4864 108.278 55.8351 108.278 55.0316C108.278 54.228 107.626 53.5767 106.822 53.5767C106.017 53.5767 105.365 54.228 105.365 55.0316C105.365 55.8351 106.017 56.4864 106.822 56.4864Z" fill="#C6A874" stroke="#C6A874" stroke-miterlimit="10"/>
<path d="M124.374 56.4864C125.178 56.4864 125.83 55.8351 125.83 55.0316C125.83 54.228 125.178 53.5767 124.374 53.5767C123.569 53.5767 122.917 54.228 122.917 55.0316C122.917 55.8351 123.569 56.4864 124.374 56.4864Z" fill="#C6A874" stroke="#C6A874" stroke-miterlimit="10"/>
<path d="M141.913 56.4864C142.717 56.4864 143.369 55.8351 143.369 55.0316C143.369 54.228 142.717 53.5767 141.913 53.5767C141.109 53.5767 140.457 54.228 140.457 55.0316C140.457 55.8351 141.109 56.4864 141.913 56.4864Z" fill="#C6A874" stroke="#C6A874" stroke-miterlimit="10"/>
<path d="M159.452 56.4864C160.257 56.4864 160.909 55.8351 160.909 55.0316C160.909 54.228 160.257 53.5767 159.452 53.5767C158.648 53.5767 157.996 54.228 157.996 55.0316C157.996 55.8351 158.648 56.4864 159.452 56.4864Z" fill="#C6A874" stroke="#C6A874" stroke-miterlimit="10"/>
<path d="M176.992 56.4864C177.796 56.4864 178.448 55.8351 178.448 55.0316C178.448 54.228 177.796 53.5767 176.992 53.5767C176.187 53.5767 175.535 54.228 175.535 55.0316C175.535 55.8351 176.187 56.4864 176.992 56.4864Z" fill="#C6A874" stroke="#C6A874" stroke-miterlimit="10"/>
<path d="M194.544 56.4864C195.348 56.4864 196 55.8351 196 55.0316C196 54.228 195.348 53.5767 194.544 53.5767C193.739 53.5767 193.087 54.228 193.087 55.0316C193.087 55.8351 193.739 56.4864 194.544 56.4864Z" fill="#C6A874" stroke="#C6A874" stroke-miterlimit="10"/>
<path d="M106.822 74.0079C107.626 74.0079 108.278 73.3566 108.278 72.553C108.278 71.7495 107.626 71.0981 106.822 71.0981C106.017 71.0981 105.365 71.7495 105.365 72.553C105.365 73.3566 106.017 74.0079 106.822 74.0079Z" fill="#C6A874" stroke="#C6A874" stroke-miterlimit="10"/>
<path d="M124.374 74.0079C125.178 74.0079 125.83 73.3566 125.83 72.553C125.83 71.7495 125.178 71.0981 124.374 71.0981C123.569 71.0981 122.917 71.7495 122.917 72.553C122.917 73.3566 123.569 74.0079 124.374 74.0079Z" fill="#C6A874" stroke="#C6A874" stroke-miterlimit="10"/>
<path d="M141.913 74.0079C142.717 74.0079 143.369 73.3566 143.369 72.553C143.369 71.7495 142.717 71.0981 141.913 71.0981C141.109 71.0981 140.457 71.7495 140.457 72.553C140.457 73.3566 141.109 74.0079 141.913 74.0079Z" fill="#C6A874" stroke="#C6A874" stroke-miterlimit="10"/>
<path d="M159.452 74.0079C160.257 74.0079 160.909 73.3566 160.909 72.553C160.909 71.7495 160.257 71.0981 159.452 71.0981C158.648 71.0981 157.996 71.7495 157.996 72.553C157.996 73.3566 158.648 74.0079 159.452 74.0079Z" fill="#C6A874" stroke="#C6A874" stroke-miterlimit="10"/>
<path d="M176.992 74.0079C177.796 74.0079 178.448 73.3566 178.448 72.553C178.448 71.7495 177.796 71.0981 176.992 71.0981C176.187 71.0981 175.535 71.7495 175.535 72.553C175.535 73.3566 176.187 74.0079 176.992 74.0079Z" fill="#C6A874" stroke="#C6A874" stroke-miterlimit="10"/>
<path d="M194.544 74.0079C195.348 74.0079 196 73.3566 196 72.553C196 71.7495 195.348 71.0981 194.544 71.0981C193.739 71.0981 193.087 71.7495 193.087 72.553C193.087 73.3566 193.739 74.0079 194.544 74.0079Z" fill="#C6A874" stroke="#C6A874" stroke-miterlimit="10"/>
<path d="M106.822 91.5421C107.626 91.5421 108.278 90.8907 108.278 90.0872C108.278 89.2837 107.626 88.6323 106.822 88.6323C106.017 88.6323 105.365 89.2837 105.365 90.0872C105.365 90.8907 106.017 91.5421 106.822 91.5421Z" fill="#C6A874" stroke="#C6A874" stroke-miterlimit="10"/>
<path d="M124.374 91.5421C125.178 91.5421 125.83 90.8907 125.83 90.0872C125.83 89.2837 125.178 88.6323 124.374 88.6323C123.569 88.6323 122.917 89.2837 122.917 90.0872C122.917 90.8907 123.569 91.5421 124.374 91.5421Z" fill="#C6A874" stroke="#C6A874" stroke-miterlimit="10"/>
<path d="M141.913 91.5421C142.717 91.5421 143.369 90.8907 143.369 90.0872C143.369 89.2837 142.717 88.6323 141.913 88.6323C141.109 88.6323 140.457 89.2837 140.457 90.0872C140.457 90.8907 141.109 91.5421 141.913 91.5421Z" fill="#C6A874" stroke="#C6A874" stroke-miterlimit="10"/>
<path d="M159.452 91.5421C160.257 91.5421 160.909 90.8907 160.909 90.0872C160.909 89.2837 160.257 88.6323 159.452 88.6323C158.648 88.6323 157.996 89.2837 157.996 90.0872C157.996 90.8907 158.648 91.5421 159.452 91.5421Z" fill="#C6A874" stroke="#C6A874" stroke-miterlimit="10"/>
<path d="M176.992 91.5421C177.796 91.5421 178.448 90.8907 178.448 90.0872C178.448 89.2837 177.796 88.6323 176.992 88.6323C176.187 88.6323 175.535 89.2837 175.535 90.0872C175.535 90.8907 176.187 91.5421 176.992 91.5421Z" fill="#C6A874" stroke="#C6A874" stroke-miterlimit="10"/>
<path d="M194.544 91.5421C195.348 91.5421 196 90.8907 196 90.0872C196 89.2837 195.348 88.6323 194.544 88.6323C193.739 88.6323 193.087 89.2837 193.087 90.0872C193.087 90.8907 193.739 91.5421 194.544 91.5421Z" fill="#C6A874" stroke="#C6A874" stroke-miterlimit="10"/>
<path d="M2.45638 108.368C3.26072 108.368 3.91276 107.716 3.91276 106.913C3.91276 106.109 3.26072 105.458 2.45638 105.458C1.65204 105.458 1 106.109 1 106.913C1 107.716 1.65204 108.368 2.45638 108.368Z" fill="#C6A874" stroke="#C6A874" stroke-miterlimit="10"/>
<path d="M20.0083 108.368C20.8126 108.368 21.4646 107.716 21.4646 106.913C21.4646 106.109 20.8126 105.458 20.0083 105.458C19.2039 105.458 18.5519 106.109 18.5519 106.913C18.5519 107.716 19.2039 108.368 20.0083 108.368Z" fill="#C6A874" stroke="#C6A874" stroke-miterlimit="10"/>
<path d="M37.5477 108.368C38.352 108.368 39.0041 107.716 39.0041 106.913C39.0041 106.109 38.352 105.458 37.5477 105.458C36.7434 105.458 36.0913 106.109 36.0913 106.913C36.0913 107.716 36.7434 108.368 37.5477 108.368Z" fill="#C6A874" stroke="#C6A874" stroke-miterlimit="10"/>
<path d="M55.087 108.368C55.8913 108.368 56.5434 107.716 56.5434 106.913C56.5434 106.109 55.8913 105.458 55.087 105.458C54.2827 105.458 53.6306 106.109 53.6306 106.913C53.6306 107.716 54.2827 108.368 55.087 108.368Z" fill="#C6A874" stroke="#C6A874" stroke-miterlimit="10"/>
<path d="M72.6264 108.368C73.4308 108.368 74.0828 107.716 74.0828 106.913C74.0828 106.109 73.4308 105.458 72.6264 105.458C71.8221 105.458 71.17 106.109 71.17 106.913C71.17 107.716 71.8221 108.368 72.6264 108.368Z" fill="#C6A874" stroke="#C6A874" stroke-miterlimit="10"/>
<path d="M90.1782 108.368C90.9825 108.368 91.6346 107.716 91.6346 106.913C91.6346 106.109 90.9825 105.458 90.1782 105.458C89.3738 105.458 88.7218 106.109 88.7218 106.913C88.7218 107.716 89.3738 108.368 90.1782 108.368Z" fill="#C6A874" stroke="#C6A874" stroke-miterlimit="10"/>
<path d="M2.45638 125.902C3.26072 125.902 3.91276 125.251 3.91276 124.447C3.91276 123.644 3.26072 122.992 2.45638 122.992C1.65204 122.992 1 123.644 1 124.447C1 125.251 1.65204 125.902 2.45638 125.902Z" fill="#C6A874" stroke="#C6A874" stroke-miterlimit="10"/>
<path d="M20.0083 125.902C20.8126 125.902 21.4646 125.251 21.4646 124.447C21.4646 123.644 20.8126 122.992 20.0083 122.992C19.2039 122.992 18.5519 123.644 18.5519 124.447C18.5519 125.251 19.2039 125.902 20.0083 125.902Z" fill="#C6A874" stroke="#C6A874" stroke-miterlimit="10"/>
<path d="M37.5477 125.902C38.352 125.902 39.0041 125.251 39.0041 124.447C39.0041 123.644 38.352 122.992 37.5477 122.992C36.7434 122.992 36.0913 123.644 36.0913 124.447C36.0913 125.251 36.7434 125.902 37.5477 125.902Z" fill="#C6A874" stroke="#C6A874" stroke-miterlimit="10"/>
<path d="M55.087 125.902C55.8913 125.902 56.5434 125.251 56.5434 124.447C56.5434 123.644 55.8913 122.992 55.087 122.992C54.2827 122.992 53.6306 123.644 53.6306 124.447C53.6306 125.251 54.2827 125.902 55.087 125.902Z" fill="#C6A874" stroke="#C6A874" stroke-miterlimit="10"/>
<path d="M72.6264 125.902C73.4308 125.902 74.0828 125.251 74.0828 124.447C74.0828 123.644 73.4308 122.992 72.6264 122.992C71.8221 122.992 71.17 123.644 71.17 124.447C71.17 125.251 71.8221 125.902 72.6264 125.902Z" fill="#C6A874" stroke="#C6A874" stroke-miterlimit="10"/>
<path d="M90.1782 125.902C90.9825 125.902 91.6346 125.251 91.6346 124.447C91.6346 123.644 90.9825 122.992 90.1782 122.992C89.3738 122.992 88.7218 123.644 88.7218 124.447C88.7218 125.251 89.3738 125.902 90.1782 125.902Z" fill="#C6A874" stroke="#C6A874" stroke-miterlimit="10"/>
<path d="M2.45638 143.423C3.26072 143.423 3.91276 142.772 3.91276 141.969C3.91276 141.165 3.26072 140.514 2.45638 140.514C1.65204 140.514 1 141.165 1 141.969C1 142.772 1.65204 143.423 2.45638 143.423Z" fill="#C6A874" stroke="#C6A874" stroke-miterlimit="10"/>
<path d="M20.0083 143.423C20.8126 143.423 21.4646 142.772 21.4646 141.969C21.4646 141.165 20.8126 140.514 20.0083 140.514C19.2039 140.514 18.5519 141.165 18.5519 141.969C18.5519 142.772 19.2039 143.423 20.0083 143.423Z" fill="#C6A874" stroke="#C6A874" stroke-miterlimit="10"/>
<path d="M37.5477 143.423C38.352 143.423 39.0041 142.772 39.0041 141.969C39.0041 141.165 38.352 140.514 37.5477 140.514C36.7434 140.514 36.0913 141.165 36.0913 141.969C36.0913 142.772 36.7434 143.423 37.5477 143.423Z" fill="#C6A874" stroke="#C6A874" stroke-miterlimit="10"/>
<path d="M55.087 143.423C55.8913 143.423 56.5434 142.772 56.5434 141.969C56.5434 141.165 55.8913 140.514 55.087 140.514C54.2827 140.514 53.6306 141.165 53.6306 141.969C53.6306 142.772 54.2827 143.423 55.087 143.423Z" fill="#C6A874" stroke="#C6A874" stroke-miterlimit="10"/>
<path d="M72.6264 143.423C73.4308 143.423 74.0828 142.772 74.0828 141.969C74.0828 141.165 73.4308 140.514 72.6264 140.514C71.8221 140.514 71.17 141.165 71.17 141.969C71.17 142.772 71.8221 143.423 72.6264 143.423Z" fill="#C6A874" stroke="#C6A874" stroke-miterlimit="10"/>
<path d="M90.1782 143.423C90.9825 143.423 91.6346 142.772 91.6346 141.969C91.6346 141.165 90.9825 140.514 90.1782 140.514C89.3738 140.514 88.7218 141.165 88.7218 141.969C88.7218 142.772 89.3738 143.423 90.1782 143.423Z" fill="#C6A874" stroke="#C6A874" stroke-miterlimit="10"/>
<path d="M2.45638 160.944C3.26072 160.944 3.91276 160.293 3.91276 159.49C3.91276 158.686 3.26072 158.035 2.45638 158.035C1.65204 158.035 1 158.686 1 159.49C1 160.293 1.65204 160.944 2.45638 160.944Z" fill="#C6A874" stroke="#C6A874" stroke-miterlimit="10"/>
<path d="M20.0083 160.944C20.8126 160.944 21.4646 160.293 21.4646 159.49C21.4646 158.686 20.8126 158.035 20.0083 158.035C19.2039 158.035 18.5519 158.686 18.5519 159.49C18.5519 160.293 19.2039 160.944 20.0083 160.944Z" fill="#C6A874" stroke="#C6A874" stroke-miterlimit="10"/>
<path d="M37.5477 160.944C38.352 160.944 39.0041 160.293 39.0041 159.49C39.0041 158.686 38.352 158.035 37.5477 158.035C36.7434 158.035 36.0913 158.686 36.0913 159.49C36.0913 160.293 36.7434 160.944 37.5477 160.944Z" fill="#C6A874" stroke="#C6A874" stroke-miterlimit="10"/>
<path d="M55.087 160.944C55.8913 160.944 56.5434 160.293 56.5434 159.49C56.5434 158.686 55.8913 158.035 55.087 158.035C54.2827 158.035 53.6306 158.686 53.6306 159.49C53.6306 160.293 54.2827 160.944 55.087 160.944Z" fill="#C6A874" stroke="#C6A874" stroke-miterlimit="10"/>
<path d="M72.6264 160.944C73.4308 160.944 74.0828 160.293 74.0828 159.49C74.0828 158.686 73.4308 158.035 72.6264 158.035C71.8221 158.035 71.17 158.686 71.17 159.49C71.17 160.293 71.8221 160.944 72.6264 160.944Z" fill="#C6A874" stroke="#C6A874" stroke-miterlimit="10"/>
<path d="M90.1782 160.944C90.9825 160.944 91.6346 160.293 91.6346 159.49C91.6346 158.686 90.9825 158.035 90.1782 158.035C89.3738 158.035 88.7218 158.686 88.7218 159.49C88.7218 160.293 89.3738 160.944 90.1782 160.944Z" fill="#C6A874" stroke="#C6A874" stroke-miterlimit="10"/>
<path d="M2.45638 178.466C3.26072 178.466 3.91276 177.815 3.91276 177.011C3.91276 176.208 3.26072 175.556 2.45638 175.556C1.65204 175.556 1 176.208 1 177.011C1 177.815 1.65204 178.466 2.45638 178.466Z" fill="#C6A874" stroke="#C6A874" stroke-miterlimit="10"/>
<path d="M20.0083 178.466C20.8126 178.466 21.4646 177.815 21.4646 177.011C21.4646 176.208 20.8126 175.556 20.0083 175.556C19.2039 175.556 18.5519 176.208 18.5519 177.011C18.5519 177.815 19.2039 178.466 20.0083 178.466Z" fill="#C6A874" stroke="#C6A874" stroke-miterlimit="10"/>
<path d="M37.5477 178.466C38.352 178.466 39.0041 177.815 39.0041 177.011C39.0041 176.208 38.352 175.556 37.5477 175.556C36.7434 175.556 36.0913 176.208 36.0913 177.011C36.0913 177.815 36.7434 178.466 37.5477 178.466Z" fill="#C6A874" stroke="#C6A874" stroke-miterlimit="10"/>
<path d="M55.087 178.466C55.8913 178.466 56.5434 177.815 56.5434 177.011C56.5434 176.208 55.8913 175.556 55.087 175.556C54.2827 175.556 53.6306 176.208 53.6306 177.011C53.6306 177.815 54.2827 178.466 55.087 178.466Z" fill="#C6A874" stroke="#C6A874" stroke-miterlimit="10"/>
<path d="M72.6264 178.466C73.4308 178.466 74.0828 177.815 74.0828 177.011C74.0828 176.208 73.4308 175.556 72.6264 175.556C71.8221 175.556 71.17 176.208 71.17 177.011C71.17 177.815 71.8221 178.466 72.6264 178.466Z" fill="#C6A874" stroke="#C6A874" stroke-miterlimit="10"/>
<path d="M90.1782 178.466C90.9825 178.466 91.6346 177.815 91.6346 177.011C91.6346 176.208 90.9825 175.556 90.1782 175.556C89.3738 175.556 88.7218 176.208 88.7218 177.011C88.7218 177.815 89.3738 178.466 90.1782 178.466Z" fill="#C6A874" stroke="#C6A874" stroke-miterlimit="10"/>
<path d="M2.45638 196C3.26072 196 3.91276 195.349 3.91276 194.545C3.91276 193.742 3.26072 193.09 2.45638 193.09C1.65204 193.09 1 193.742 1 194.545C1 195.349 1.65204 196 2.45638 196Z" fill="#C6A874" stroke="#C6A874" stroke-miterlimit="10"/>
<path d="M20.0083 196C20.8126 196 21.4646 195.349 21.4646 194.545C21.4646 193.742 20.8126 193.09 20.0083 193.09C19.2039 193.09 18.5519 193.742 18.5519 194.545C18.5519 195.349 19.2039 196 20.0083 196Z" fill="#C6A874" stroke="#C6A874" stroke-miterlimit="10"/>
<path d="M37.5477 196C38.352 196 39.0041 195.349 39.0041 194.545C39.0041 193.742 38.352 193.09 37.5477 193.09C36.7434 193.09 36.0913 193.742 36.0913 194.545C36.0913 195.349 36.7434 196 37.5477 196Z" fill="#C6A874" stroke="#C6A874" stroke-miterlimit="10"/>
<path d="M55.087 196C55.8913 196 56.5434 195.349 56.5434 194.545C56.5434 193.742 55.8913 193.09 55.087 193.09C54.2827 193.09 53.6306 193.742 53.6306 194.545C53.6306 195.349 54.2827 196 55.087 196Z" fill="#C6A874" stroke="#C6A874" stroke-miterlimit="10"/>
<path d="M72.6264 196C73.4308 196 74.0828 195.349 74.0828 194.545C74.0828 193.742 73.4308 193.09 72.6264 193.09C71.8221 193.09 71.17 193.742 71.17 194.545C71.17 195.349 71.8221 196 72.6264 196Z" fill="#C6A874" stroke="#C6A874" stroke-miterlimit="10"/>
<path d="M90.1782 196C90.9825 196 91.6346 195.349 91.6346 194.545C91.6346 193.742 90.9825 193.09 90.1782 193.09C89.3738 193.09 88.7218 193.742 88.7218 194.545C88.7218 195.349 89.3738 196 90.1782 196Z" fill="#C6A874" stroke="#C6A874" stroke-miterlimit="10"/>
<path d="M106.822 108.368C107.626 108.368 108.278 107.716 108.278 106.913C108.278 106.109 107.626 105.458 106.822 105.458C106.017 105.458 105.365 106.109 105.365 106.913C105.365 107.716 106.017 108.368 106.822 108.368Z" fill="#C6A874" stroke="#C6A874" stroke-miterlimit="10"/>
<path d="M124.374 108.368C125.178 108.368 125.83 107.716 125.83 106.913C125.83 106.109 125.178 105.458 124.374 105.458C123.569 105.458 122.917 106.109 122.917 106.913C122.917 107.716 123.569 108.368 124.374 108.368Z" fill="#C6A874" stroke="#C6A874" stroke-miterlimit="10"/>
<path d="M141.913 108.368C142.717 108.368 143.369 107.716 143.369 106.913C143.369 106.109 142.717 105.458 141.913 105.458C141.109 105.458 140.457 106.109 140.457 106.913C140.457 107.716 141.109 108.368 141.913 108.368Z" fill="#C6A874" stroke="#C6A874" stroke-miterlimit="10"/>
<path d="M159.452 108.368C160.257 108.368 160.909 107.716 160.909 106.913C160.909 106.109 160.257 105.458 159.452 105.458C158.648 105.458 157.996 106.109 157.996 106.913C157.996 107.716 158.648 108.368 159.452 108.368Z" fill="#C6A874" stroke="#C6A874" stroke-miterlimit="10"/>
<path d="M176.992 108.368C177.796 108.368 178.448 107.716 178.448 106.913C178.448 106.109 177.796 105.458 176.992 105.458C176.187 105.458 175.535 106.109 175.535 106.913C175.535 107.716 176.187 108.368 176.992 108.368Z" fill="#C6A874" stroke="#C6A874" stroke-miterlimit="10"/>
<path d="M194.544 108.368C195.348 108.368 196 107.716 196 106.913C196 106.109 195.348 105.458 194.544 105.458C193.739 105.458 193.087 106.109 193.087 106.913C193.087 107.716 193.739 108.368 194.544 108.368Z" fill="#C6A874" stroke="#C6A874" stroke-miterlimit="10"/>
<path d="M106.822 125.902C107.626 125.902 108.278 125.251 108.278 124.447C108.278 123.644 107.626 122.992 106.822 122.992C106.017 122.992 105.365 123.644 105.365 124.447C105.365 125.251 106.017 125.902 106.822 125.902Z" fill="#C6A874" stroke="#C6A874" stroke-miterlimit="10"/>
<path d="M124.374 125.902C125.178 125.902 125.83 125.251 125.83 124.447C125.83 123.644 125.178 122.992 124.374 122.992C123.569 122.992 122.917 123.644 122.917 124.447C122.917 125.251 123.569 125.902 124.374 125.902Z" fill="#C6A874" stroke="#C6A874" stroke-miterlimit="10"/>
<path d="M141.913 125.902C142.717 125.902 143.369 125.251 143.369 124.447C143.369 123.644 142.717 122.992 141.913 122.992C141.109 122.992 140.457 123.644 140.457 124.447C140.457 125.251 141.109 125.902 141.913 125.902Z" fill="#C6A874" stroke="#C6A874" stroke-miterlimit="10"/>
<path d="M159.452 125.902C160.257 125.902 160.909 125.251 160.909 124.447C160.909 123.644 160.257 122.992 159.452 122.992C158.648 122.992 157.996 123.644 157.996 124.447C157.996 125.251 158.648 125.902 159.452 125.902Z" fill="#C6A874" stroke="#C6A874" stroke-miterlimit="10"/>
<path d="M176.992 125.902C177.796 125.902 178.448 125.251 178.448 124.447C178.448 123.644 177.796 122.992 176.992 122.992C176.187 122.992 175.535 123.644 175.535 124.447C175.535 125.251 176.187 125.902 176.992 125.902Z" fill="#C6A874" stroke="#C6A874" stroke-miterlimit="10"/>
<path d="M194.544 125.902C195.348 125.902 196 125.251 196 124.447C196 123.644 195.348 122.992 194.544 122.992C193.739 122.992 193.087 123.644 193.087 124.447C193.087 125.251 193.739 125.902 194.544 125.902Z" fill="#C6A874" stroke="#C6A874" stroke-miterlimit="10"/>
<path d="M106.822 143.423C107.626 143.423 108.278 142.772 108.278 141.969C108.278 141.165 107.626 140.514 106.822 140.514C106.017 140.514 105.365 141.165 105.365 141.969C105.365 142.772 106.017 143.423 106.822 143.423Z" fill="#C6A874" stroke="#C6A874" stroke-miterlimit="10"/>
<path d="M124.374 143.423C125.178 143.423 125.83 142.772 125.83 141.969C125.83 141.165 125.178 140.514 124.374 140.514C123.569 140.514 122.917 141.165 122.917 141.969C122.917 142.772 123.569 143.423 124.374 143.423Z" fill="#C6A874" stroke="#C6A874" stroke-miterlimit="10"/>
<path d="M141.913 143.423C142.717 143.423 143.369 142.772 143.369 141.969C143.369 141.165 142.717 140.514 141.913 140.514C141.109 140.514 140.457 141.165 140.457 141.969C140.457 142.772 141.109 143.423 141.913 143.423Z" fill="#C6A874" stroke="#C6A874" stroke-miterlimit="10"/>
<path d="M159.452 143.423C160.257 143.423 160.909 142.772 160.909 141.969C160.909 141.165 160.257 140.514 159.452 140.514C158.648 140.514 157.996 141.165 157.996 141.969C157.996 142.772 158.648 143.423 159.452 143.423Z" fill="#C6A874" stroke="#C6A874" stroke-miterlimit="10"/>
<path d="M176.992 143.423C177.796 143.423 178.448 142.772 178.448 141.969C178.448 141.165 177.796 140.514 176.992 140.514C176.187 140.514 175.535 141.165 175.535 141.969C175.535 142.772 176.187 143.423 176.992 143.423Z" fill="#C6A874" stroke="#C6A874" stroke-miterlimit="10"/>
<path d="M194.544 143.423C195.348 143.423 196 142.772 196 141.969C196 141.165 195.348 140.514 194.544 140.514C193.739 140.514 193.087 141.165 193.087 141.969C193.087 142.772 193.739 143.423 194.544 143.423Z" fill="#C6A874" stroke="#C6A874" stroke-miterlimit="10"/>
<path d="M106.822 160.944C107.626 160.944 108.278 160.293 108.278 159.49C108.278 158.686 107.626 158.035 106.822 158.035C106.017 158.035 105.365 158.686 105.365 159.49C105.365 160.293 106.017 160.944 106.822 160.944Z" fill="#C6A874" stroke="#C6A874" stroke-miterlimit="10"/>
<path d="M124.374 160.944C125.178 160.944 125.83 160.293 125.83 159.49C125.83 158.686 125.178 158.035 124.374 158.035C123.569 158.035 122.917 158.686 122.917 159.49C122.917 160.293 123.569 160.944 124.374 160.944Z" fill="#C6A874" stroke="#C6A874" stroke-miterlimit="10"/>
<path d="M141.913 160.944C142.717 160.944 143.369 160.293 143.369 159.49C143.369 158.686 142.717 158.035 141.913 158.035C141.109 158.035 140.457 158.686 140.457 159.49C140.457 160.293 141.109 160.944 141.913 160.944Z" fill="#C6A874" stroke="#C6A874" stroke-miterlimit="10"/>
<path d="M159.452 160.944C160.257 160.944 160.909 160.293 160.909 159.49C160.909 158.686 160.257 158.035 159.452 158.035C158.648 158.035 157.996 158.686 157.996 159.49C157.996 160.293 158.648 160.944 159.452 160.944Z" fill="#C6A874" stroke="#C6A874" stroke-miterlimit="10"/>
<path d="M176.992 160.944C177.796 160.944 178.448 160.293 178.448 159.49C178.448 158.686 177.796 158.035 176.992 158.035C176.187 158.035 175.535 158.686 175.535 159.49C175.535 160.293 176.187 160.944 176.992 160.944Z" fill="#C6A874" stroke="#C6A874" stroke-miterlimit="10"/>
<path d="M194.544 160.944C195.348 160.944 196 160.293 196 159.49C196 158.686 195.348 158.035 194.544 158.035C193.739 158.035 193.087 158.686 193.087 159.49C193.087 160.293 193.739 160.944 194.544 160.944Z" fill="#C6A874" stroke="#C6A874" stroke-miterlimit="10"/>
<path d="M106.822 178.466C107.626 178.466 108.278 177.815 108.278 177.011C108.278 176.208 107.626 175.556 106.822 175.556C106.017 175.556 105.365 176.208 105.365 177.011C105.365 177.815 106.017 178.466 106.822 178.466Z" fill="#C6A874" stroke="#C6A874" stroke-miterlimit="10"/>
<path d="M124.374 178.466C125.178 178.466 125.83 177.815 125.83 177.011C125.83 176.208 125.178 175.556 124.374 175.556C123.569 175.556 122.917 176.208 122.917 177.011C122.917 177.815 123.569 178.466 124.374 178.466Z" fill="#C6A874" stroke="#C6A874" stroke-miterlimit="10"/>
<path d="M141.913 178.466C142.717 178.466 143.369 177.815 143.369 177.011C143.369 176.208 142.717 175.556 141.913 175.556C141.109 175.556 140.457 176.208 140.457 177.011C140.457 177.815 141.109 178.466 141.913 178.466Z" fill="#C6A874" stroke="#C6A874" stroke-miterlimit="10"/>
<path d="M159.452 178.466C160.257 178.466 160.909 177.815 160.909 177.011C160.909 176.208 160.257 175.556 159.452 175.556C158.648 175.556 157.996 176.208 157.996 177.011C157.996 177.815 158.648 178.466 159.452 178.466Z" fill="#C6A874" stroke="#C6A874" stroke-miterlimit="10"/>
<path d="M176.992 178.466C177.796 178.466 178.448 177.815 178.448 177.011C178.448 176.208 177.796 175.556 176.992 175.556C176.187 175.556 175.535 176.208 175.535 177.011C175.535 177.815 176.187 178.466 176.992 178.466Z" fill="#C6A874" stroke="#C6A874" stroke-miterlimit="10"/>
<path d="M194.544 178.466C195.348 178.466 196 177.815 196 177.011C196 176.208 195.348 175.556 194.544 175.556C193.739 175.556 193.087 176.208 193.087 177.011C193.087 177.815 193.739 178.466 194.544 178.466Z" fill="#C6A874" stroke="#C6A874" stroke-miterlimit="10"/>
<path d="M106.822 196C107.626 196 108.278 195.349 108.278 194.545C108.278 193.742 107.626 193.09 106.822 193.09C106.017 193.09 105.365 193.742 105.365 194.545C105.365 195.349 106.017 196 106.822 196Z" fill="#C6A874" stroke="#C6A874" stroke-miterlimit="10"/>
<path d="M124.374 196C125.178 196 125.83 195.349 125.83 194.545C125.83 193.742 125.178 193.09 124.374 193.09C123.569 193.09 122.917 193.742 122.917 194.545C122.917 195.349 123.569 196 124.374 196Z" fill="#C6A874" stroke="#C6A874" stroke-miterlimit="10"/>
<path d="M141.913 196C142.717 196 143.369 195.349 143.369 194.545C143.369 193.742 142.717 193.09 141.913 193.09C141.109 193.09 140.457 193.742 140.457 194.545C140.457 195.349 141.109 196 141.913 196Z" fill="#C6A874" stroke="#C6A874" stroke-miterlimit="10"/>
<path d="M159.452 196C160.257 196 160.909 195.349 160.909 194.545C160.909 193.742 160.257 193.09 159.452 193.09C158.648 193.09 157.996 193.742 157.996 194.545C157.996 195.349 158.648 196 159.452 196Z" fill="#C6A874" stroke="#C6A874" stroke-miterlimit="10"/>
<path d="M176.992 196C177.796 196 178.448 195.349 178.448 194.545C178.448 193.742 177.796 193.09 176.992 193.09C176.187 193.09 175.535 193.742 175.535 194.545C175.535 195.349 176.187 196 176.992 196Z" fill="#C6A874" stroke="#C6A874" stroke-miterlimit="10"/>
<path d="M194.544 196C195.348 196 196 195.349 196 194.545C196 193.742 195.348 193.09 194.544 193.09C193.739 193.09 193.087 193.742 193.087 194.545C193.087 195.349 193.739 196 194.544 196Z" fill="#C6A874" stroke="#C6A874" stroke-miterlimit="10"/>
</svg>
