<svg width="113" height="113" viewBox="0 0 113 113" fill="none" xmlns="http://www.w3.org/2000/svg">
<g opacity="0.5">
<path d="M1.66477 2.65634C2.1231 2.65634 2.49465 2.28556 2.49465 1.82817C2.49465 1.37078 2.1231 1 1.66477 1C1.20645 1 0.8349 1.37078 0.8349 1.82817C0.8349 2.28556 1.20645 2.65634 1.66477 2.65634Z" fill="#C6A874" stroke="#C6A874" stroke-miterlimit="10"/>
<path d="M11.6662 2.65634C12.1245 2.65634 12.496 2.28556 12.496 1.82817C12.496 1.37078 12.1245 1 11.6662 1C11.2079 1 10.8363 1.37078 10.8363 1.82817C10.8363 2.28556 11.2079 2.65634 11.6662 2.65634Z" fill="#C6A874" stroke="#C6A874" stroke-miterlimit="10"/>
<path d="M21.6604 2.65634C22.1188 2.65634 22.4903 2.28556 22.4903 1.82817C22.4903 1.37078 22.1188 1 21.6604 1C21.2021 1 20.8306 1.37078 20.8306 1.82817C20.8306 2.28556 21.2021 2.65634 21.6604 2.65634Z" fill="#C6A874" stroke="#C6A874" stroke-miterlimit="10"/>
<path d="M31.6546 2.65634C32.1129 2.65634 32.4845 2.28556 32.4845 1.82817C32.4845 1.37078 32.1129 1 31.6546 1C31.1963 1 30.8247 1.37078 30.8247 1.82817C30.8247 2.28556 31.1963 2.65634 31.6546 2.65634Z" fill="#C6A874" stroke="#C6A874" stroke-miterlimit="10"/>
<path d="M41.649 2.65634C42.1073 2.65634 42.4788 2.28556 42.4788 1.82817C42.4788 1.37078 42.1073 1 41.649 1C41.1906 1 40.8191 1.37078 40.8191 1.82817C40.8191 2.28556 41.1906 2.65634 41.649 2.65634Z" fill="#C6A874" stroke="#C6A874" stroke-miterlimit="10"/>
<path d="M51.6502 2.65634C52.1085 2.65634 52.4801 2.28556 52.4801 1.82817C52.4801 1.37078 52.1085 1 51.6502 1C51.1919 1 50.8203 1.37078 50.8203 1.82817C50.8203 2.28556 51.1919 2.65634 51.6502 2.65634Z" fill="#C6A874" stroke="#C6A874" stroke-miterlimit="10"/>
<path d="M1.66477 12.6373C2.1231 12.6373 2.49465 12.2665 2.49465 11.8091C2.49465 11.3517 2.1231 10.981 1.66477 10.981C1.20645 10.981 0.8349 11.3517 0.8349 11.8091C0.8349 12.2665 1.20645 12.6373 1.66477 12.6373Z" fill="#C6A874" stroke="#C6A874" stroke-miterlimit="10"/>
<path d="M11.6662 12.6373C12.1245 12.6373 12.496 12.2665 12.496 11.8091C12.496 11.3517 12.1245 10.981 11.6662 10.981C11.2079 10.981 10.8363 11.3517 10.8363 11.8091C10.8363 12.2665 11.2079 12.6373 11.6662 12.6373Z" fill="#C6A874" stroke="#C6A874" stroke-miterlimit="10"/>
<path d="M21.6604 12.6373C22.1188 12.6373 22.4903 12.2665 22.4903 11.8091C22.4903 11.3517 22.1188 10.981 21.6604 10.981C21.2021 10.981 20.8306 11.3517 20.8306 11.8091C20.8306 12.2665 21.2021 12.6373 21.6604 12.6373Z" fill="#C6A874" stroke="#C6A874" stroke-miterlimit="10"/>
<path d="M31.6546 12.6373C32.1129 12.6373 32.4845 12.2665 32.4845 11.8091C32.4845 11.3517 32.1129 10.981 31.6546 10.981C31.1963 10.981 30.8247 11.3517 30.8247 11.8091C30.8247 12.2665 31.1963 12.6373 31.6546 12.6373Z" fill="#C6A874" stroke="#C6A874" stroke-miterlimit="10"/>
<path d="M41.649 12.6373C42.1073 12.6373 42.4788 12.2665 42.4788 11.8091C42.4788 11.3517 42.1073 10.981 41.649 10.981C41.1906 10.981 40.8191 11.3517 40.8191 11.8091C40.8191 12.2665 41.1906 12.6373 41.649 12.6373Z" fill="#C6A874" stroke="#C6A874" stroke-miterlimit="10"/>
<path d="M51.6502 12.6373C52.1085 12.6373 52.4801 12.2665 52.4801 11.8091C52.4801 11.3517 52.1085 10.981 51.6502 10.981C51.1919 10.981 50.8203 11.3517 50.8203 11.8091C50.8203 12.2665 51.1919 12.6373 51.6502 12.6373Z" fill="#C6A874" stroke="#C6A874" stroke-miterlimit="10"/>
<path d="M1.66477 22.6109C2.1231 22.6109 2.49465 22.2401 2.49465 21.7828C2.49465 21.3254 2.1231 20.9546 1.66477 20.9546C1.20645 20.9546 0.8349 21.3254 0.8349 21.7828C0.8349 22.2401 1.20645 22.6109 1.66477 22.6109Z" fill="#C6A874" stroke="#C6A874" stroke-miterlimit="10"/>
<path d="M11.6662 22.6109C12.1245 22.6109 12.496 22.2401 12.496 21.7828C12.496 21.3254 12.1245 20.9546 11.6662 20.9546C11.2079 20.9546 10.8363 21.3254 10.8363 21.7828C10.8363 22.2401 11.2079 22.6109 11.6662 22.6109Z" fill="#C6A874" stroke="#C6A874" stroke-miterlimit="10"/>
<path d="M21.6604 22.6109C22.1188 22.6109 22.4903 22.2401 22.4903 21.7828C22.4903 21.3254 22.1188 20.9546 21.6604 20.9546C21.2021 20.9546 20.8306 21.3254 20.8306 21.7828C20.8306 22.2401 21.2021 22.6109 21.6604 22.6109Z" fill="#C6A874" stroke="#C6A874" stroke-miterlimit="10"/>
<path d="M31.6546 22.6109C32.1129 22.6109 32.4845 22.2401 32.4845 21.7828C32.4845 21.3254 32.1129 20.9546 31.6546 20.9546C31.1963 20.9546 30.8247 21.3254 30.8247 21.7828C30.8247 22.2401 31.1963 22.6109 31.6546 22.6109Z" fill="#C6A874" stroke="#C6A874" stroke-miterlimit="10"/>
<path d="M41.649 22.6109C42.1073 22.6109 42.4788 22.2401 42.4788 21.7828C42.4788 21.3254 42.1073 20.9546 41.649 20.9546C41.1906 20.9546 40.8191 21.3254 40.8191 21.7828C40.8191 22.2401 41.1906 22.6109 41.649 22.6109Z" fill="#C6A874" stroke="#C6A874" stroke-miterlimit="10"/>
<path d="M51.6502 22.6109C52.1085 22.6109 52.4801 22.2401 52.4801 21.7828C52.4801 21.3254 52.1085 20.9546 51.6502 20.9546C51.1919 20.9546 50.8203 21.3254 50.8203 21.7828C50.8203 22.2401 51.1919 22.6109 51.6502 22.6109Z" fill="#C6A874" stroke="#C6A874" stroke-miterlimit="10"/>
<path d="M1.66477 32.5848C2.1231 32.5848 2.49465 32.214 2.49465 31.7566C2.49465 31.2993 2.1231 30.9285 1.66477 30.9285C1.20645 30.9285 0.8349 31.2993 0.8349 31.7566C0.8349 32.214 1.20645 32.5848 1.66477 32.5848Z" fill="#C6A874" stroke="#C6A874" stroke-miterlimit="10"/>
<path d="M11.6662 32.5848C12.1245 32.5848 12.496 32.214 12.496 31.7566C12.496 31.2993 12.1245 30.9285 11.6662 30.9285C11.2079 30.9285 10.8363 31.2993 10.8363 31.7566C10.8363 32.214 11.2079 32.5848 11.6662 32.5848Z" fill="#C6A874" stroke="#C6A874" stroke-miterlimit="10"/>
<path d="M21.6604 32.5848C22.1188 32.5848 22.4903 32.214 22.4903 31.7566C22.4903 31.2993 22.1188 30.9285 21.6604 30.9285C21.2021 30.9285 20.8306 31.2993 20.8306 31.7566C20.8306 32.214 21.2021 32.5848 21.6604 32.5848Z" fill="#C6A874" stroke="#C6A874" stroke-miterlimit="10"/>
<path d="M31.6546 32.5848C32.1129 32.5848 32.4845 32.214 32.4845 31.7566C32.4845 31.2993 32.1129 30.9285 31.6546 30.9285C31.1963 30.9285 30.8247 31.2993 30.8247 31.7566C30.8247 32.214 31.1963 32.5848 31.6546 32.5848Z" fill="#C6A874" stroke="#C6A874" stroke-miterlimit="10"/>
<path d="M41.649 32.5848C42.1073 32.5848 42.4788 32.214 42.4788 31.7566C42.4788 31.2993 42.1073 30.9285 41.649 30.9285C41.1906 30.9285 40.8191 31.2993 40.8191 31.7566C40.8191 32.214 41.1906 32.5848 41.649 32.5848Z" fill="#C6A874" stroke="#C6A874" stroke-miterlimit="10"/>
<path d="M51.6502 32.5848C52.1085 32.5848 52.4801 32.214 52.4801 31.7566C52.4801 31.2993 52.1085 30.9285 51.6502 30.9285C51.1919 30.9285 50.8203 31.2993 50.8203 31.7566C50.8203 32.214 51.1919 32.5848 51.6502 32.5848Z" fill="#C6A874" stroke="#C6A874" stroke-miterlimit="10"/>
<path d="M1.66477 42.5584C2.1231 42.5584 2.49465 42.1877 2.49465 41.7303C2.49465 41.2729 2.1231 40.9021 1.66477 40.9021C1.20645 40.9021 0.8349 41.2729 0.8349 41.7303C0.8349 42.1877 1.20645 42.5584 1.66477 42.5584Z" fill="#C6A874" stroke="#C6A874" stroke-miterlimit="10"/>
<path d="M11.6662 42.5584C12.1245 42.5584 12.496 42.1877 12.496 41.7303C12.496 41.2729 12.1245 40.9021 11.6662 40.9021C11.2079 40.9021 10.8363 41.2729 10.8363 41.7303C10.8363 42.1877 11.2079 42.5584 11.6662 42.5584Z" fill="#C6A874" stroke="#C6A874" stroke-miterlimit="10"/>
<path d="M21.6604 42.5584C22.1188 42.5584 22.4903 42.1877 22.4903 41.7303C22.4903 41.2729 22.1188 40.9021 21.6604 40.9021C21.2021 40.9021 20.8306 41.2729 20.8306 41.7303C20.8306 42.1877 21.2021 42.5584 21.6604 42.5584Z" fill="#C6A874" stroke="#C6A874" stroke-miterlimit="10"/>
<path d="M31.6546 42.5584C32.1129 42.5584 32.4845 42.1877 32.4845 41.7303C32.4845 41.2729 32.1129 40.9021 31.6546 40.9021C31.1963 40.9021 30.8247 41.2729 30.8247 41.7303C30.8247 42.1877 31.1963 42.5584 31.6546 42.5584Z" fill="#C6A874" stroke="#C6A874" stroke-miterlimit="10"/>
<path d="M41.649 42.5584C42.1073 42.5584 42.4788 42.1877 42.4788 41.7303C42.4788 41.2729 42.1073 40.9021 41.649 40.9021C41.1906 40.9021 40.8191 41.2729 40.8191 41.7303C40.8191 42.1877 41.1906 42.5584 41.649 42.5584Z" fill="#C6A874" stroke="#C6A874" stroke-miterlimit="10"/>
<path d="M51.6502 42.5584C52.1085 42.5584 52.4801 42.1877 52.4801 41.7303C52.4801 41.2729 52.1085 40.9021 51.6502 40.9021C51.1919 40.9021 50.8203 41.2729 50.8203 41.7303C50.8203 42.1877 51.1919 42.5584 51.6502 42.5584Z" fill="#C6A874" stroke="#C6A874" stroke-miterlimit="10"/>
<path d="M1.66477 52.5394C2.1231 52.5394 2.49465 52.1686 2.49465 51.7112C2.49465 51.2538 2.1231 50.8831 1.66477 50.8831C1.20645 50.8831 0.8349 51.2538 0.8349 51.7112C0.8349 52.1686 1.20645 52.5394 1.66477 52.5394Z" fill="#C6A874" stroke="#C6A874" stroke-miterlimit="10"/>
<path d="M11.6662 52.5394C12.1245 52.5394 12.496 52.1686 12.496 51.7112C12.496 51.2538 12.1245 50.8831 11.6662 50.8831C11.2079 50.8831 10.8363 51.2538 10.8363 51.7112C10.8363 52.1686 11.2079 52.5394 11.6662 52.5394Z" fill="#C6A874" stroke="#C6A874" stroke-miterlimit="10"/>
<path d="M21.6604 52.5394C22.1188 52.5394 22.4903 52.1686 22.4903 51.7112C22.4903 51.2538 22.1188 50.8831 21.6604 50.8831C21.2021 50.8831 20.8306 51.2538 20.8306 51.7112C20.8306 52.1686 21.2021 52.5394 21.6604 52.5394Z" fill="#C6A874" stroke="#C6A874" stroke-miterlimit="10"/>
<path d="M31.6546 52.5394C32.1129 52.5394 32.4845 52.1686 32.4845 51.7112C32.4845 51.2538 32.1129 50.8831 31.6546 50.8831C31.1963 50.8831 30.8247 51.2538 30.8247 51.7112C30.8247 52.1686 31.1963 52.5394 31.6546 52.5394Z" fill="#C6A874" stroke="#C6A874" stroke-miterlimit="10"/>
<path d="M41.649 52.5394C42.1073 52.5394 42.4788 52.1686 42.4788 51.7112C42.4788 51.2538 42.1073 50.8831 41.649 50.8831C41.1906 50.8831 40.8191 51.2538 40.8191 51.7112C40.8191 52.1686 41.1906 52.5394 41.649 52.5394Z" fill="#C6A874" stroke="#C6A874" stroke-miterlimit="10"/>
<path d="M51.6502 52.5394C52.1085 52.5394 52.4801 52.1686 52.4801 51.7112C52.4801 51.2538 52.1085 50.8831 51.6502 50.8831C51.1919 50.8831 50.8203 51.2538 50.8203 51.7112C50.8203 52.1686 51.1919 52.5394 51.6502 52.5394Z" fill="#C6A874" stroke="#C6A874" stroke-miterlimit="10"/>
<path d="M61.1341 2.65634C61.5924 2.65634 61.9639 2.28556 61.9639 1.82817C61.9639 1.37078 61.5924 1 61.1341 1C60.6757 1 60.3042 1.37078 60.3042 1.82817C60.3042 2.28556 60.6757 2.65634 61.1341 2.65634Z" fill="#C6A874" stroke="#C6A874" stroke-miterlimit="10"/>
<path d="M71.1354 2.65634C71.5937 2.65634 71.9653 2.28556 71.9653 1.82817C71.9653 1.37078 71.5937 1 71.1354 1C70.6771 1 70.3055 1.37078 70.3055 1.82817C70.3055 2.28556 70.6771 2.65634 71.1354 2.65634Z" fill="#C6A874" stroke="#C6A874" stroke-miterlimit="10"/>
<path d="M81.1297 2.65634C81.588 2.65634 81.9595 2.28556 81.9595 1.82817C81.9595 1.37078 81.588 1 81.1297 1C80.6713 1 80.2998 1.37078 80.2998 1.82817C80.2998 2.28556 80.6713 2.65634 81.1297 2.65634Z" fill="#C6A874" stroke="#C6A874" stroke-miterlimit="10"/>
<path d="M91.124 2.65634C91.5823 2.65634 91.9538 2.28556 91.9538 1.82817C91.9538 1.37078 91.5823 1 91.124 1C90.6656 1 90.2941 1.37078 90.2941 1.82817C90.2941 2.28556 90.6656 2.65634 91.124 2.65634Z" fill="#C6A874" stroke="#C6A874" stroke-miterlimit="10"/>
<path d="M101.118 2.65634C101.577 2.65634 101.948 2.28556 101.948 1.82817C101.948 1.37078 101.577 1 101.118 1C100.66 1 100.288 1.37078 100.288 1.82817C100.288 2.28556 100.66 2.65634 101.118 2.65634Z" fill="#C6A874" stroke="#C6A874" stroke-miterlimit="10"/>
<path d="M111.12 2.65634C111.578 2.65634 111.95 2.28556 111.95 1.82817C111.95 1.37078 111.578 1 111.12 1C110.661 1 110.29 1.37078 110.29 1.82817C110.29 2.28556 110.661 2.65634 111.12 2.65634Z" fill="#C6A874" stroke="#C6A874" stroke-miterlimit="10"/>
<path d="M61.1341 12.6373C61.5924 12.6373 61.9639 12.2665 61.9639 11.8091C61.9639 11.3517 61.5924 10.981 61.1341 10.981C60.6757 10.981 60.3042 11.3517 60.3042 11.8091C60.3042 12.2665 60.6757 12.6373 61.1341 12.6373Z" fill="#C6A874" stroke="#C6A874" stroke-miterlimit="10"/>
<path d="M71.1354 12.6373C71.5937 12.6373 71.9653 12.2665 71.9653 11.8091C71.9653 11.3517 71.5937 10.981 71.1354 10.981C70.6771 10.981 70.3055 11.3517 70.3055 11.8091C70.3055 12.2665 70.6771 12.6373 71.1354 12.6373Z" fill="#C6A874" stroke="#C6A874" stroke-miterlimit="10"/>
<path d="M81.1297 12.6373C81.588 12.6373 81.9595 12.2665 81.9595 11.8091C81.9595 11.3517 81.588 10.981 81.1297 10.981C80.6713 10.981 80.2998 11.3517 80.2998 11.8091C80.2998 12.2665 80.6713 12.6373 81.1297 12.6373Z" fill="#C6A874" stroke="#C6A874" stroke-miterlimit="10"/>
<path d="M91.124 12.6373C91.5823 12.6373 91.9538 12.2665 91.9538 11.8091C91.9538 11.3517 91.5823 10.981 91.124 10.981C90.6656 10.981 90.2941 11.3517 90.2941 11.8091C90.2941 12.2665 90.6656 12.6373 91.124 12.6373Z" fill="#C6A874" stroke="#C6A874" stroke-miterlimit="10"/>
<path d="M101.118 12.6373C101.577 12.6373 101.948 12.2665 101.948 11.8091C101.948 11.3517 101.577 10.981 101.118 10.981C100.66 10.981 100.288 11.3517 100.288 11.8091C100.288 12.2665 100.66 12.6373 101.118 12.6373Z" fill="#C6A874" stroke="#C6A874" stroke-miterlimit="10"/>
<path d="M111.12 12.6373C111.578 12.6373 111.95 12.2665 111.95 11.8091C111.95 11.3517 111.578 10.981 111.12 10.981C110.661 10.981 110.29 11.3517 110.29 11.8091C110.29 12.2665 110.661 12.6373 111.12 12.6373Z" fill="#C6A874" stroke="#C6A874" stroke-miterlimit="10"/>
<path d="M61.1341 22.6109C61.5924 22.6109 61.9639 22.2401 61.9639 21.7828C61.9639 21.3254 61.5924 20.9546 61.1341 20.9546C60.6757 20.9546 60.3042 21.3254 60.3042 21.7828C60.3042 22.2401 60.6757 22.6109 61.1341 22.6109Z" fill="#C6A874" stroke="#C6A874" stroke-miterlimit="10"/>
<path d="M71.1354 22.6109C71.5937 22.6109 71.9653 22.2401 71.9653 21.7828C71.9653 21.3254 71.5937 20.9546 71.1354 20.9546C70.6771 20.9546 70.3055 21.3254 70.3055 21.7828C70.3055 22.2401 70.6771 22.6109 71.1354 22.6109Z" fill="#C6A874" stroke="#C6A874" stroke-miterlimit="10"/>
<path d="M81.1297 22.6109C81.588 22.6109 81.9595 22.2401 81.9595 21.7828C81.9595 21.3254 81.588 20.9546 81.1297 20.9546C80.6713 20.9546 80.2998 21.3254 80.2998 21.7828C80.2998 22.2401 80.6713 22.6109 81.1297 22.6109Z" fill="#C6A874" stroke="#C6A874" stroke-miterlimit="10"/>
<path d="M91.124 22.6109C91.5823 22.6109 91.9538 22.2401 91.9538 21.7828C91.9538 21.3254 91.5823 20.9546 91.124 20.9546C90.6656 20.9546 90.2941 21.3254 90.2941 21.7828C90.2941 22.2401 90.6656 22.6109 91.124 22.6109Z" fill="#C6A874" stroke="#C6A874" stroke-miterlimit="10"/>
<path d="M101.118 22.6109C101.577 22.6109 101.948 22.2401 101.948 21.7828C101.948 21.3254 101.577 20.9546 101.118 20.9546C100.66 20.9546 100.288 21.3254 100.288 21.7828C100.288 22.2401 100.66 22.6109 101.118 22.6109Z" fill="#C6A874" stroke="#C6A874" stroke-miterlimit="10"/>
<path d="M111.12 22.6109C111.578 22.6109 111.95 22.2401 111.95 21.7828C111.95 21.3254 111.578 20.9546 111.12 20.9546C110.661 20.9546 110.29 21.3254 110.29 21.7828C110.29 22.2401 110.661 22.6109 111.12 22.6109Z" fill="#C6A874" stroke="#C6A874" stroke-miterlimit="10"/>
<path d="M61.1341 32.5848C61.5924 32.5848 61.9639 32.214 61.9639 31.7566C61.9639 31.2993 61.5924 30.9285 61.1341 30.9285C60.6757 30.9285 60.3042 31.2993 60.3042 31.7566C60.3042 32.214 60.6757 32.5848 61.1341 32.5848Z" fill="#C6A874" stroke="#C6A874" stroke-miterlimit="10"/>
<path d="M71.1354 32.5848C71.5937 32.5848 71.9653 32.214 71.9653 31.7566C71.9653 31.2993 71.5937 30.9285 71.1354 30.9285C70.6771 30.9285 70.3055 31.2993 70.3055 31.7566C70.3055 32.214 70.6771 32.5848 71.1354 32.5848Z" fill="#C6A874" stroke="#C6A874" stroke-miterlimit="10"/>
<path d="M81.1297 32.5848C81.588 32.5848 81.9595 32.214 81.9595 31.7566C81.9595 31.2993 81.588 30.9285 81.1297 30.9285C80.6713 30.9285 80.2998 31.2993 80.2998 31.7566C80.2998 32.214 80.6713 32.5848 81.1297 32.5848Z" fill="#C6A874" stroke="#C6A874" stroke-miterlimit="10"/>
<path d="M91.124 32.5848C91.5823 32.5848 91.9538 32.214 91.9538 31.7566C91.9538 31.2993 91.5823 30.9285 91.124 30.9285C90.6656 30.9285 90.2941 31.2993 90.2941 31.7566C90.2941 32.214 90.6656 32.5848 91.124 32.5848Z" fill="#C6A874" stroke="#C6A874" stroke-miterlimit="10"/>
<path d="M101.118 32.5848C101.577 32.5848 101.948 32.214 101.948 31.7566C101.948 31.2993 101.577 30.9285 101.118 30.9285C100.66 30.9285 100.288 31.2993 100.288 31.7566C100.288 32.214 100.66 32.5848 101.118 32.5848Z" fill="#C6A874" stroke="#C6A874" stroke-miterlimit="10"/>
<path d="M111.12 32.5848C111.578 32.5848 111.95 32.214 111.95 31.7566C111.95 31.2993 111.578 30.9285 111.12 30.9285C110.661 30.9285 110.29 31.2993 110.29 31.7566C110.29 32.214 110.661 32.5848 111.12 32.5848Z" fill="#C6A874" stroke="#C6A874" stroke-miterlimit="10"/>
<path d="M61.1341 42.5584C61.5924 42.5584 61.9639 42.1877 61.9639 41.7303C61.9639 41.2729 61.5924 40.9021 61.1341 40.9021C60.6757 40.9021 60.3042 41.2729 60.3042 41.7303C60.3042 42.1877 60.6757 42.5584 61.1341 42.5584Z" fill="#C6A874" stroke="#C6A874" stroke-miterlimit="10"/>
<path d="M71.1354 42.5584C71.5937 42.5584 71.9653 42.1877 71.9653 41.7303C71.9653 41.2729 71.5937 40.9021 71.1354 40.9021C70.6771 40.9021 70.3055 41.2729 70.3055 41.7303C70.3055 42.1877 70.6771 42.5584 71.1354 42.5584Z" fill="#C6A874" stroke="#C6A874" stroke-miterlimit="10"/>
<path d="M81.1297 42.5584C81.588 42.5584 81.9595 42.1877 81.9595 41.7303C81.9595 41.2729 81.588 40.9021 81.1297 40.9021C80.6713 40.9021 80.2998 41.2729 80.2998 41.7303C80.2998 42.1877 80.6713 42.5584 81.1297 42.5584Z" fill="#C6A874" stroke="#C6A874" stroke-miterlimit="10"/>
<path d="M91.124 42.5584C91.5823 42.5584 91.9538 42.1877 91.9538 41.7303C91.9538 41.2729 91.5823 40.9021 91.124 40.9021C90.6656 40.9021 90.2941 41.2729 90.2941 41.7303C90.2941 42.1877 90.6656 42.5584 91.124 42.5584Z" fill="#C6A874" stroke="#C6A874" stroke-miterlimit="10"/>
<path d="M101.118 42.5584C101.577 42.5584 101.948 42.1877 101.948 41.7303C101.948 41.2729 101.577 40.9021 101.118 40.9021C100.66 40.9021 100.288 41.2729 100.288 41.7303C100.288 42.1877 100.66 42.5584 101.118 42.5584Z" fill="#C6A874" stroke="#C6A874" stroke-miterlimit="10"/>
<path d="M111.12 42.5584C111.578 42.5584 111.95 42.1877 111.95 41.7303C111.95 41.2729 111.578 40.9021 111.12 40.9021C110.661 40.9021 110.29 41.2729 110.29 41.7303C110.29 42.1877 110.661 42.5584 111.12 42.5584Z" fill="#C6A874" stroke="#C6A874" stroke-miterlimit="10"/>
<path d="M61.1341 52.5394C61.5924 52.5394 61.9639 52.1686 61.9639 51.7112C61.9639 51.2538 61.5924 50.8831 61.1341 50.8831C60.6757 50.8831 60.3042 51.2538 60.3042 51.7112C60.3042 52.1686 60.6757 52.5394 61.1341 52.5394Z" fill="#C6A874" stroke="#C6A874" stroke-miterlimit="10"/>
<path d="M71.1354 52.5394C71.5937 52.5394 71.9653 52.1686 71.9653 51.7112C71.9653 51.2538 71.5937 50.8831 71.1354 50.8831C70.6771 50.8831 70.3055 51.2538 70.3055 51.7112C70.3055 52.1686 70.6771 52.5394 71.1354 52.5394Z" fill="#C6A874" stroke="#C6A874" stroke-miterlimit="10"/>
<path d="M81.1297 52.5394C81.588 52.5394 81.9595 52.1686 81.9595 51.7112C81.9595 51.2538 81.588 50.8831 81.1297 50.8831C80.6713 50.8831 80.2998 51.2538 80.2998 51.7112C80.2998 52.1686 80.6713 52.5394 81.1297 52.5394Z" fill="#C6A874" stroke="#C6A874" stroke-miterlimit="10"/>
<path d="M91.124 52.5394C91.5823 52.5394 91.9538 52.1686 91.9538 51.7112C91.9538 51.2538 91.5823 50.8831 91.124 50.8831C90.6656 50.8831 90.2941 51.2538 90.2941 51.7112C90.2941 52.1686 90.6656 52.5394 91.124 52.5394Z" fill="#C6A874" stroke="#C6A874" stroke-miterlimit="10"/>
<path d="M101.118 52.5394C101.577 52.5394 101.948 52.1686 101.948 51.7112C101.948 51.2538 101.577 50.8831 101.118 50.8831C100.66 50.8831 100.288 51.2538 100.288 51.7112C100.288 52.1686 100.66 52.5394 101.118 52.5394Z" fill="#C6A874" stroke="#C6A874" stroke-miterlimit="10"/>
<path d="M111.12 52.5394C111.578 52.5394 111.95 52.1686 111.95 51.7112C111.95 51.2538 111.578 50.8831 111.12 50.8831C110.661 50.8831 110.29 51.2538 110.29 51.7112C110.29 52.1686 110.661 52.5394 111.12 52.5394Z" fill="#C6A874" stroke="#C6A874" stroke-miterlimit="10"/>
<path d="M1.66477 62.1171C2.1231 62.1171 2.49465 61.7463 2.49465 61.2889C2.49465 60.8315 2.1231 60.4607 1.66477 60.4607C1.20645 60.4607 0.8349 60.8315 0.8349 61.2889C0.8349 61.7463 1.20645 62.1171 1.66477 62.1171Z" fill="#C6A874" stroke="#C6A874" stroke-miterlimit="10"/>
<path d="M11.6662 62.1171C12.1245 62.1171 12.496 61.7463 12.496 61.2889C12.496 60.8315 12.1245 60.4607 11.6662 60.4607C11.2079 60.4607 10.8363 60.8315 10.8363 61.2889C10.8363 61.7463 11.2079 62.1171 11.6662 62.1171Z" fill="#C6A874" stroke="#C6A874" stroke-miterlimit="10"/>
<path d="M21.6604 62.1171C22.1188 62.1171 22.4903 61.7463 22.4903 61.2889C22.4903 60.8315 22.1188 60.4607 21.6604 60.4607C21.2021 60.4607 20.8306 60.8315 20.8306 61.2889C20.8306 61.7463 21.2021 62.1171 21.6604 62.1171Z" fill="#C6A874" stroke="#C6A874" stroke-miterlimit="10"/>
<path d="M31.6546 62.1171C32.1129 62.1171 32.4845 61.7463 32.4845 61.2889C32.4845 60.8315 32.1129 60.4607 31.6546 60.4607C31.1963 60.4607 30.8247 60.8315 30.8247 61.2889C30.8247 61.7463 31.1963 62.1171 31.6546 62.1171Z" fill="#C6A874" stroke="#C6A874" stroke-miterlimit="10"/>
<path d="M41.649 62.1171C42.1073 62.1171 42.4788 61.7463 42.4788 61.2889C42.4788 60.8315 42.1073 60.4607 41.649 60.4607C41.1906 60.4607 40.8191 60.8315 40.8191 61.2889C40.8191 61.7463 41.1906 62.1171 41.649 62.1171Z" fill="#C6A874" stroke="#C6A874" stroke-miterlimit="10"/>
<path d="M51.6502 62.1171C52.1085 62.1171 52.4801 61.7463 52.4801 61.2889C52.4801 60.8315 52.1085 60.4607 51.6502 60.4607C51.1919 60.4607 50.8203 60.8315 50.8203 61.2889C50.8203 61.7463 51.1919 62.1171 51.6502 62.1171Z" fill="#C6A874" stroke="#C6A874" stroke-miterlimit="10"/>
<path d="M1.66477 72.098C2.1231 72.098 2.49465 71.7272 2.49465 71.2698C2.49465 70.8124 2.1231 70.4417 1.66477 70.4417C1.20645 70.4417 0.8349 70.8124 0.8349 71.2698C0.8349 71.7272 1.20645 72.098 1.66477 72.098Z" fill="#C6A874" stroke="#C6A874" stroke-miterlimit="10"/>
<path d="M11.6662 72.098C12.1245 72.098 12.496 71.7272 12.496 71.2698C12.496 70.8124 12.1245 70.4417 11.6662 70.4417C11.2079 70.4417 10.8363 70.8124 10.8363 71.2698C10.8363 71.7272 11.2079 72.098 11.6662 72.098Z" fill="#C6A874" stroke="#C6A874" stroke-miterlimit="10"/>
<path d="M21.6604 72.098C22.1188 72.098 22.4903 71.7272 22.4903 71.2698C22.4903 70.8124 22.1188 70.4417 21.6604 70.4417C21.2021 70.4417 20.8306 70.8124 20.8306 71.2698C20.8306 71.7272 21.2021 72.098 21.6604 72.098Z" fill="#C6A874" stroke="#C6A874" stroke-miterlimit="10"/>
<path d="M31.6546 72.098C32.1129 72.098 32.4845 71.7272 32.4845 71.2698C32.4845 70.8124 32.1129 70.4417 31.6546 70.4417C31.1963 70.4417 30.8247 70.8124 30.8247 71.2698C30.8247 71.7272 31.1963 72.098 31.6546 72.098Z" fill="#C6A874" stroke="#C6A874" stroke-miterlimit="10"/>
<path d="M41.649 72.098C42.1073 72.098 42.4788 71.7272 42.4788 71.2698C42.4788 70.8124 42.1073 70.4417 41.649 70.4417C41.1906 70.4417 40.8191 70.8124 40.8191 71.2698C40.8191 71.7272 41.1906 72.098 41.649 72.098Z" fill="#C6A874" stroke="#C6A874" stroke-miterlimit="10"/>
<path d="M51.6502 72.098C52.1085 72.098 52.4801 71.7272 52.4801 71.2698C52.4801 70.8124 52.1085 70.4417 51.6502 70.4417C51.1919 70.4417 50.8203 70.8124 50.8203 71.2698C50.8203 71.7272 51.1919 72.098 51.6502 72.098Z" fill="#C6A874" stroke="#C6A874" stroke-miterlimit="10"/>
<path d="M1.66477 82.0716C2.1231 82.0716 2.49465 81.7008 2.49465 81.2435C2.49465 80.7861 2.1231 80.4153 1.66477 80.4153C1.20645 80.4153 0.8349 80.7861 0.8349 81.2435C0.8349 81.7008 1.20645 82.0716 1.66477 82.0716Z" fill="#C6A874" stroke="#C6A874" stroke-miterlimit="10"/>
<path d="M11.6662 82.0716C12.1245 82.0716 12.496 81.7008 12.496 81.2435C12.496 80.7861 12.1245 80.4153 11.6662 80.4153C11.2079 80.4153 10.8363 80.7861 10.8363 81.2435C10.8363 81.7008 11.2079 82.0716 11.6662 82.0716Z" fill="#C6A874" stroke="#C6A874" stroke-miterlimit="10"/>
<path d="M21.6604 82.0716C22.1188 82.0716 22.4903 81.7008 22.4903 81.2435C22.4903 80.7861 22.1188 80.4153 21.6604 80.4153C21.2021 80.4153 20.8306 80.7861 20.8306 81.2435C20.8306 81.7008 21.2021 82.0716 21.6604 82.0716Z" fill="#C6A874" stroke="#C6A874" stroke-miterlimit="10"/>
<path d="M31.6546 82.0716C32.1129 82.0716 32.4845 81.7008 32.4845 81.2435C32.4845 80.7861 32.1129 80.4153 31.6546 80.4153C31.1963 80.4153 30.8247 80.7861 30.8247 81.2435C30.8247 81.7008 31.1963 82.0716 31.6546 82.0716Z" fill="#C6A874" stroke="#C6A874" stroke-miterlimit="10"/>
<path d="M41.649 82.0716C42.1073 82.0716 42.4788 81.7008 42.4788 81.2435C42.4788 80.7861 42.1073 80.4153 41.649 80.4153C41.1906 80.4153 40.8191 80.7861 40.8191 81.2435C40.8191 81.7008 41.1906 82.0716 41.649 82.0716Z" fill="#C6A874" stroke="#C6A874" stroke-miterlimit="10"/>
<path d="M51.6502 82.0716C52.1085 82.0716 52.4801 81.7008 52.4801 81.2435C52.4801 80.7861 52.1085 80.4153 51.6502 80.4153C51.1919 80.4153 50.8203 80.7861 50.8203 81.2435C50.8203 81.7008 51.1919 82.0716 51.6502 82.0716Z" fill="#C6A874" stroke="#C6A874" stroke-miterlimit="10"/>
<path d="M1.66477 92.0455C2.1231 92.0455 2.49465 91.6747 2.49465 91.2173C2.49465 90.7599 2.1231 90.3892 1.66477 90.3892C1.20645 90.3892 0.8349 90.7599 0.8349 91.2173C0.8349 91.6747 1.20645 92.0455 1.66477 92.0455Z" fill="#C6A874" stroke="#C6A874" stroke-miterlimit="10"/>
<path d="M11.6662 92.0455C12.1245 92.0455 12.496 91.6747 12.496 91.2173C12.496 90.7599 12.1245 90.3892 11.6662 90.3892C11.2079 90.3892 10.8363 90.7599 10.8363 91.2173C10.8363 91.6747 11.2079 92.0455 11.6662 92.0455Z" fill="#C6A874" stroke="#C6A874" stroke-miterlimit="10"/>
<path d="M21.6604 92.0455C22.1188 92.0455 22.4903 91.6747 22.4903 91.2173C22.4903 90.7599 22.1188 90.3892 21.6604 90.3892C21.2021 90.3892 20.8306 90.7599 20.8306 91.2173C20.8306 91.6747 21.2021 92.0455 21.6604 92.0455Z" fill="#C6A874" stroke="#C6A874" stroke-miterlimit="10"/>
<path d="M31.6546 92.0455C32.1129 92.0455 32.4845 91.6747 32.4845 91.2173C32.4845 90.7599 32.1129 90.3892 31.6546 90.3892C31.1963 90.3892 30.8247 90.7599 30.8247 91.2173C30.8247 91.6747 31.1963 92.0455 31.6546 92.0455Z" fill="#C6A874" stroke="#C6A874" stroke-miterlimit="10"/>
<path d="M41.649 92.0455C42.1073 92.0455 42.4788 91.6747 42.4788 91.2173C42.4788 90.7599 42.1073 90.3892 41.649 90.3892C41.1906 90.3892 40.8191 90.7599 40.8191 91.2173C40.8191 91.6747 41.1906 92.0455 41.649 92.0455Z" fill="#C6A874" stroke="#C6A874" stroke-miterlimit="10"/>
<path d="M51.6502 92.0455C52.1085 92.0455 52.4801 91.6747 52.4801 91.2173C52.4801 90.7599 52.1085 90.3892 51.6502 90.3892C51.1919 90.3892 50.8203 90.7599 50.8203 91.2173C50.8203 91.6747 51.1919 92.0455 51.6502 92.0455Z" fill="#C6A874" stroke="#C6A874" stroke-miterlimit="10"/>
<path d="M1.66477 102.019C2.1231 102.019 2.49465 101.648 2.49465 101.191C2.49465 100.734 2.1231 100.363 1.66477 100.363C1.20645 100.363 0.8349 100.734 0.8349 101.191C0.8349 101.648 1.20645 102.019 1.66477 102.019Z" fill="#C6A874" stroke="#C6A874" stroke-miterlimit="10"/>
<path d="M11.6662 102.019C12.1245 102.019 12.496 101.648 12.496 101.191C12.496 100.734 12.1245 100.363 11.6662 100.363C11.2079 100.363 10.8363 100.734 10.8363 101.191C10.8363 101.648 11.2079 102.019 11.6662 102.019Z" fill="#C6A874" stroke="#C6A874" stroke-miterlimit="10"/>
<path d="M21.6604 102.019C22.1188 102.019 22.4903 101.648 22.4903 101.191C22.4903 100.734 22.1188 100.363 21.6604 100.363C21.2021 100.363 20.8306 100.734 20.8306 101.191C20.8306 101.648 21.2021 102.019 21.6604 102.019Z" fill="#C6A874" stroke="#C6A874" stroke-miterlimit="10"/>
<path d="M31.6546 102.019C32.1129 102.019 32.4845 101.648 32.4845 101.191C32.4845 100.734 32.1129 100.363 31.6546 100.363C31.1963 100.363 30.8247 100.734 30.8247 101.191C30.8247 101.648 31.1963 102.019 31.6546 102.019Z" fill="#C6A874" stroke="#C6A874" stroke-miterlimit="10"/>
<path d="M41.649 102.019C42.1073 102.019 42.4788 101.648 42.4788 101.191C42.4788 100.734 42.1073 100.363 41.649 100.363C41.1906 100.363 40.8191 100.734 40.8191 101.191C40.8191 101.648 41.1906 102.019 41.649 102.019Z" fill="#C6A874" stroke="#C6A874" stroke-miterlimit="10"/>
<path d="M51.6502 102.019C52.1085 102.019 52.4801 101.648 52.4801 101.191C52.4801 100.734 52.1085 100.363 51.6502 100.363C51.1919 100.363 50.8203 100.734 50.8203 101.191C50.8203 101.648 51.1919 102.019 51.6502 102.019Z" fill="#C6A874" stroke="#C6A874" stroke-miterlimit="10"/>
<path d="M1.66477 112C2.1231 112 2.49465 111.629 2.49465 111.172C2.49465 110.715 2.1231 110.344 1.66477 110.344C1.20645 110.344 0.8349 110.715 0.8349 111.172C0.8349 111.629 1.20645 112 1.66477 112Z" fill="#C6A874" stroke="#C6A874" stroke-miterlimit="10"/>
<path d="M11.6662 112C12.1245 112 12.496 111.629 12.496 111.172C12.496 110.715 12.1245 110.344 11.6662 110.344C11.2079 110.344 10.8363 110.715 10.8363 111.172C10.8363 111.629 11.2079 112 11.6662 112Z" fill="#C6A874" stroke="#C6A874" stroke-miterlimit="10"/>
<path d="M21.6604 112C22.1188 112 22.4903 111.629 22.4903 111.172C22.4903 110.715 22.1188 110.344 21.6604 110.344C21.2021 110.344 20.8306 110.715 20.8306 111.172C20.8306 111.629 21.2021 112 21.6604 112Z" fill="#C6A874" stroke="#C6A874" stroke-miterlimit="10"/>
<path d="M31.6546 112C32.1129 112 32.4845 111.629 32.4845 111.172C32.4845 110.715 32.1129 110.344 31.6546 110.344C31.1963 110.344 30.8247 110.715 30.8247 111.172C30.8247 111.629 31.1963 112 31.6546 112Z" fill="#C6A874" stroke="#C6A874" stroke-miterlimit="10"/>
<path d="M41.649 112C42.1073 112 42.4788 111.629 42.4788 111.172C42.4788 110.715 42.1073 110.344 41.649 110.344C41.1906 110.344 40.8191 110.715 40.8191 111.172C40.8191 111.629 41.1906 112 41.649 112Z" fill="#C6A874" stroke="#C6A874" stroke-miterlimit="10"/>
<path d="M51.6502 112C52.1085 112 52.4801 111.629 52.4801 111.172C52.4801 110.715 52.1085 110.344 51.6502 110.344C51.1919 110.344 50.8203 110.715 50.8203 111.172C50.8203 111.629 51.1919 112 51.6502 112Z" fill="#C6A874" stroke="#C6A874" stroke-miterlimit="10"/>
<path d="M61.1341 62.1171C61.5924 62.1171 61.9639 61.7463 61.9639 61.2889C61.9639 60.8315 61.5924 60.4607 61.1341 60.4607C60.6757 60.4607 60.3042 60.8315 60.3042 61.2889C60.3042 61.7463 60.6757 62.1171 61.1341 62.1171Z" fill="#C6A874" stroke="#C6A874" stroke-miterlimit="10"/>
<path d="M71.1354 62.1171C71.5937 62.1171 71.9653 61.7463 71.9653 61.2889C71.9653 60.8315 71.5937 60.4607 71.1354 60.4607C70.6771 60.4607 70.3055 60.8315 70.3055 61.2889C70.3055 61.7463 70.6771 62.1171 71.1354 62.1171Z" fill="#C6A874" stroke="#C6A874" stroke-miterlimit="10"/>
<path d="M81.1297 62.1171C81.588 62.1171 81.9595 61.7463 81.9595 61.2889C81.9595 60.8315 81.588 60.4607 81.1297 60.4607C80.6713 60.4607 80.2998 60.8315 80.2998 61.2889C80.2998 61.7463 80.6713 62.1171 81.1297 62.1171Z" fill="#C6A874" stroke="#C6A874" stroke-miterlimit="10"/>
<path d="M91.124 62.1171C91.5823 62.1171 91.9538 61.7463 91.9538 61.2889C91.9538 60.8315 91.5823 60.4607 91.124 60.4607C90.6656 60.4607 90.2941 60.8315 90.2941 61.2889C90.2941 61.7463 90.6656 62.1171 91.124 62.1171Z" fill="#C6A874" stroke="#C6A874" stroke-miterlimit="10"/>
<path d="M101.118 62.1171C101.577 62.1171 101.948 61.7463 101.948 61.2889C101.948 60.8315 101.577 60.4607 101.118 60.4607C100.66 60.4607 100.288 60.8315 100.288 61.2889C100.288 61.7463 100.66 62.1171 101.118 62.1171Z" fill="#C6A874" stroke="#C6A874" stroke-miterlimit="10"/>
<path d="M111.12 62.1171C111.578 62.1171 111.95 61.7463 111.95 61.2889C111.95 60.8315 111.578 60.4607 111.12 60.4607C110.661 60.4607 110.29 60.8315 110.29 61.2889C110.29 61.7463 110.661 62.1171 111.12 62.1171Z" fill="#C6A874" stroke="#C6A874" stroke-miterlimit="10"/>
<path d="M61.1341 72.098C61.5924 72.098 61.9639 71.7272 61.9639 71.2698C61.9639 70.8124 61.5924 70.4417 61.1341 70.4417C60.6757 70.4417 60.3042 70.8124 60.3042 71.2698C60.3042 71.7272 60.6757 72.098 61.1341 72.098Z" fill="#C6A874" stroke="#C6A874" stroke-miterlimit="10"/>
<path d="M71.1354 72.098C71.5937 72.098 71.9653 71.7272 71.9653 71.2698C71.9653 70.8124 71.5937 70.4417 71.1354 70.4417C70.6771 70.4417 70.3055 70.8124 70.3055 71.2698C70.3055 71.7272 70.6771 72.098 71.1354 72.098Z" fill="#C6A874" stroke="#C6A874" stroke-miterlimit="10"/>
<path d="M81.1297 72.098C81.588 72.098 81.9595 71.7272 81.9595 71.2698C81.9595 70.8124 81.588 70.4417 81.1297 70.4417C80.6713 70.4417 80.2998 70.8124 80.2998 71.2698C80.2998 71.7272 80.6713 72.098 81.1297 72.098Z" fill="#C6A874" stroke="#C6A874" stroke-miterlimit="10"/>
<path d="M91.124 72.098C91.5823 72.098 91.9538 71.7272 91.9538 71.2698C91.9538 70.8124 91.5823 70.4417 91.124 70.4417C90.6656 70.4417 90.2941 70.8124 90.2941 71.2698C90.2941 71.7272 90.6656 72.098 91.124 72.098Z" fill="#C6A874" stroke="#C6A874" stroke-miterlimit="10"/>
<path d="M101.118 72.098C101.577 72.098 101.948 71.7272 101.948 71.2698C101.948 70.8124 101.577 70.4417 101.118 70.4417C100.66 70.4417 100.288 70.8124 100.288 71.2698C100.288 71.7272 100.66 72.098 101.118 72.098Z" fill="#C6A874" stroke="#C6A874" stroke-miterlimit="10"/>
<path d="M111.12 72.098C111.578 72.098 111.95 71.7272 111.95 71.2698C111.95 70.8124 111.578 70.4417 111.12 70.4417C110.661 70.4417 110.29 70.8124 110.29 71.2698C110.29 71.7272 110.661 72.098 111.12 72.098Z" fill="#C6A874" stroke="#C6A874" stroke-miterlimit="10"/>
<path d="M61.1341 82.0716C61.5924 82.0716 61.9639 81.7008 61.9639 81.2435C61.9639 80.7861 61.5924 80.4153 61.1341 80.4153C60.6757 80.4153 60.3042 80.7861 60.3042 81.2435C60.3042 81.7008 60.6757 82.0716 61.1341 82.0716Z" fill="#C6A874" stroke="#C6A874" stroke-miterlimit="10"/>
<path d="M71.1354 82.0716C71.5937 82.0716 71.9653 81.7008 71.9653 81.2435C71.9653 80.7861 71.5937 80.4153 71.1354 80.4153C70.6771 80.4153 70.3055 80.7861 70.3055 81.2435C70.3055 81.7008 70.6771 82.0716 71.1354 82.0716Z" fill="#C6A874" stroke="#C6A874" stroke-miterlimit="10"/>
<path d="M81.1297 82.0716C81.588 82.0716 81.9595 81.7008 81.9595 81.2435C81.9595 80.7861 81.588 80.4153 81.1297 80.4153C80.6713 80.4153 80.2998 80.7861 80.2998 81.2435C80.2998 81.7008 80.6713 82.0716 81.1297 82.0716Z" fill="#C6A874" stroke="#C6A874" stroke-miterlimit="10"/>
<path d="M91.124 82.0716C91.5823 82.0716 91.9538 81.7008 91.9538 81.2435C91.9538 80.7861 91.5823 80.4153 91.124 80.4153C90.6656 80.4153 90.2941 80.7861 90.2941 81.2435C90.2941 81.7008 90.6656 82.0716 91.124 82.0716Z" fill="#C6A874" stroke="#C6A874" stroke-miterlimit="10"/>
<path d="M101.118 82.0716C101.577 82.0716 101.948 81.7008 101.948 81.2435C101.948 80.7861 101.577 80.4153 101.118 80.4153C100.66 80.4153 100.288 80.7861 100.288 81.2435C100.288 81.7008 100.66 82.0716 101.118 82.0716Z" fill="#C6A874" stroke="#C6A874" stroke-miterlimit="10"/>
<path d="M111.12 82.0716C111.578 82.0716 111.95 81.7008 111.95 81.2435C111.95 80.7861 111.578 80.4153 111.12 80.4153C110.661 80.4153 110.29 80.7861 110.29 81.2435C110.29 81.7008 110.661 82.0716 111.12 82.0716Z" fill="#C6A874" stroke="#C6A874" stroke-miterlimit="10"/>
<path d="M61.1341 92.0455C61.5924 92.0455 61.9639 91.6747 61.9639 91.2173C61.9639 90.7599 61.5924 90.3892 61.1341 90.3892C60.6757 90.3892 60.3042 90.7599 60.3042 91.2173C60.3042 91.6747 60.6757 92.0455 61.1341 92.0455Z" fill="#C6A874" stroke="#C6A874" stroke-miterlimit="10"/>
<path d="M71.1354 92.0455C71.5937 92.0455 71.9653 91.6747 71.9653 91.2173C71.9653 90.7599 71.5937 90.3892 71.1354 90.3892C70.6771 90.3892 70.3055 90.7599 70.3055 91.2173C70.3055 91.6747 70.6771 92.0455 71.1354 92.0455Z" fill="#C6A874" stroke="#C6A874" stroke-miterlimit="10"/>
<path d="M81.1297 92.0455C81.588 92.0455 81.9595 91.6747 81.9595 91.2173C81.9595 90.7599 81.588 90.3892 81.1297 90.3892C80.6713 90.3892 80.2998 90.7599 80.2998 91.2173C80.2998 91.6747 80.6713 92.0455 81.1297 92.0455Z" fill="#C6A874" stroke="#C6A874" stroke-miterlimit="10"/>
<path d="M91.124 92.0455C91.5823 92.0455 91.9538 91.6747 91.9538 91.2173C91.9538 90.7599 91.5823 90.3892 91.124 90.3892C90.6656 90.3892 90.2941 90.7599 90.2941 91.2173C90.2941 91.6747 90.6656 92.0455 91.124 92.0455Z" fill="#C6A874" stroke="#C6A874" stroke-miterlimit="10"/>
<path d="M101.118 92.0455C101.577 92.0455 101.948 91.6747 101.948 91.2173C101.948 90.7599 101.577 90.3892 101.118 90.3892C100.66 90.3892 100.288 90.7599 100.288 91.2173C100.288 91.6747 100.66 92.0455 101.118 92.0455Z" fill="#C6A874" stroke="#C6A874" stroke-miterlimit="10"/>
<path d="M111.12 92.0455C111.578 92.0455 111.95 91.6747 111.95 91.2173C111.95 90.7599 111.578 90.3892 111.12 90.3892C110.661 90.3892 110.29 90.7599 110.29 91.2173C110.29 91.6747 110.661 92.0455 111.12 92.0455Z" fill="#C6A874" stroke="#C6A874" stroke-miterlimit="10"/>
<path d="M61.1341 102.019C61.5924 102.019 61.9639 101.648 61.9639 101.191C61.9639 100.734 61.5924 100.363 61.1341 100.363C60.6757 100.363 60.3042 100.734 60.3042 101.191C60.3042 101.648 60.6757 102.019 61.1341 102.019Z" fill="#C6A874" stroke="#C6A874" stroke-miterlimit="10"/>
<path d="M71.1354 102.019C71.5937 102.019 71.9653 101.648 71.9653 101.191C71.9653 100.734 71.5937 100.363 71.1354 100.363C70.6771 100.363 70.3055 100.734 70.3055 101.191C70.3055 101.648 70.6771 102.019 71.1354 102.019Z" fill="#C6A874" stroke="#C6A874" stroke-miterlimit="10"/>
<path d="M81.1297 102.019C81.588 102.019 81.9595 101.648 81.9595 101.191C81.9595 100.734 81.588 100.363 81.1297 100.363C80.6713 100.363 80.2998 100.734 80.2998 101.191C80.2998 101.648 80.6713 102.019 81.1297 102.019Z" fill="#C6A874" stroke="#C6A874" stroke-miterlimit="10"/>
<path d="M91.124 102.019C91.5823 102.019 91.9538 101.648 91.9538 101.191C91.9538 100.734 91.5823 100.363 91.124 100.363C90.6656 100.363 90.2941 100.734 90.2941 101.191C90.2941 101.648 90.6656 102.019 91.124 102.019Z" fill="#C6A874" stroke="#C6A874" stroke-miterlimit="10"/>
<path d="M101.118 102.019C101.577 102.019 101.948 101.648 101.948 101.191C101.948 100.734 101.577 100.363 101.118 100.363C100.66 100.363 100.288 100.734 100.288 101.191C100.288 101.648 100.66 102.019 101.118 102.019Z" fill="#C6A874" stroke="#C6A874" stroke-miterlimit="10"/>
<path d="M111.12 102.019C111.578 102.019 111.95 101.648 111.95 101.191C111.95 100.734 111.578 100.363 111.12 100.363C110.661 100.363 110.29 100.734 110.29 101.191C110.29 101.648 110.661 102.019 111.12 102.019Z" fill="#C6A874" stroke="#C6A874" stroke-miterlimit="10"/>
<path d="M61.1341 112C61.5924 112 61.9639 111.629 61.9639 111.172C61.9639 110.715 61.5924 110.344 61.1341 110.344C60.6757 110.344 60.3042 110.715 60.3042 111.172C60.3042 111.629 60.6757 112 61.1341 112Z" fill="#C6A874" stroke="#C6A874" stroke-miterlimit="10"/>
<path d="M71.1354 112C71.5937 112 71.9653 111.629 71.9653 111.172C71.9653 110.715 71.5937 110.344 71.1354 110.344C70.6771 110.344 70.3055 110.715 70.3055 111.172C70.3055 111.629 70.6771 112 71.1354 112Z" fill="#C6A874" stroke="#C6A874" stroke-miterlimit="10"/>
<path d="M81.1297 112C81.588 112 81.9595 111.629 81.9595 111.172C81.9595 110.715 81.588 110.344 81.1297 110.344C80.6713 110.344 80.2998 110.715 80.2998 111.172C80.2998 111.629 80.6713 112 81.1297 112Z" fill="#C6A874" stroke="#C6A874" stroke-miterlimit="10"/>
<path d="M91.124 112C91.5823 112 91.9538 111.629 91.9538 111.172C91.9538 110.715 91.5823 110.344 91.124 110.344C90.6656 110.344 90.2941 110.715 90.2941 111.172C90.2941 111.629 90.6656 112 91.124 112Z" fill="#C6A874" stroke="#C6A874" stroke-miterlimit="10"/>
<path d="M101.118 112C101.577 112 101.948 111.629 101.948 111.172C101.948 110.715 101.577 110.344 101.118 110.344C100.66 110.344 100.288 110.715 100.288 111.172C100.288 111.629 100.66 112 101.118 112Z" fill="#C6A874" stroke="#C6A874" stroke-miterlimit="10"/>
<path d="M111.12 112C111.578 112 111.95 111.629 111.95 111.172C111.95 110.715 111.578 110.344 111.12 110.344C110.661 110.344 110.29 110.715 110.29 111.172C110.29 111.629 110.661 112 111.12 112Z" fill="#C6A874" stroke="#C6A874" stroke-miterlimit="10"/>
</g>
</svg>
