<svg width="371" height="371" viewBox="0 0 371 371" fill="none" xmlns="http://www.w3.org/2000/svg">
<path d="M3.75592 6.50622C5.27798 6.50622 6.51185 5.27361 6.51185 3.75311C6.51185 2.23261 5.27798 1 3.75592 1C2.23387 1 1 2.23261 1 3.75311C1 5.27361 2.23387 6.50622 3.75592 6.50622Z" fill="#C6A874" stroke="#C6A874" stroke-miterlimit="10"/>
<path d="M36.9694 6.50622C38.4915 6.50622 39.7253 5.27361 39.7253 3.75311C39.7253 2.23261 38.4915 1 36.9694 1C35.4474 1 34.2135 2.23261 34.2135 3.75311C34.2135 5.27361 35.4474 6.50622 36.9694 6.50622Z" fill="#C6A874" stroke="#C6A874" stroke-miterlimit="10"/>
<path d="M70.1595 6.50622C71.6815 6.50622 72.9154 5.27361 72.9154 3.75311C72.9154 2.23261 71.6815 1 70.1595 1C68.6374 1 67.4036 2.23261 67.4036 3.75311C67.4036 5.27361 68.6374 6.50622 70.1595 6.50622Z" fill="#C6A874" stroke="#C6A874" stroke-miterlimit="10"/>
<path d="M103.349 6.50622C104.871 6.50622 106.105 5.27361 106.105 3.75311C106.105 2.23261 104.871 1 103.349 1C101.827 1 100.593 2.23261 100.593 3.75311C100.593 5.27361 101.827 6.50622 103.349 6.50622Z" fill="#C6A874" stroke="#C6A874" stroke-miterlimit="10"/>
<path d="M136.539 6.50622C138.061 6.50622 139.295 5.27361 139.295 3.75311C139.295 2.23261 138.061 1 136.539 1C135.017 1 133.783 2.23261 133.783 3.75311C133.783 5.27361 135.017 6.50622 136.539 6.50622Z" fill="#C6A874" stroke="#C6A874" stroke-miterlimit="10"/>
<path d="M169.753 6.50622C171.275 6.50622 172.509 5.27361 172.509 3.75311C172.509 2.23261 171.275 1 169.753 1C168.231 1 166.997 2.23261 166.997 3.75311C166.997 5.27361 168.231 6.50622 169.753 6.50622Z" fill="#C6A874" stroke="#C6A874" stroke-miterlimit="10"/>
<path d="M3.75592 39.6859C5.27798 39.6859 6.51185 38.4533 6.51185 36.9328C6.51185 35.4123 5.27798 34.1797 3.75592 34.1797C2.23387 34.1797 1 35.4123 1 36.9328C1 38.4533 2.23387 39.6859 3.75592 39.6859Z" fill="#C6A874" stroke="#C6A874" stroke-miterlimit="10"/>
<path d="M36.9694 39.6859C38.4915 39.6859 39.7253 38.4533 39.7253 36.9328C39.7253 35.4123 38.4915 34.1797 36.9694 34.1797C35.4474 34.1797 34.2135 35.4123 34.2135 36.9328C34.2135 38.4533 35.4474 39.6859 36.9694 39.6859Z" fill="#C6A874" stroke="#C6A874" stroke-miterlimit="10"/>
<path d="M70.1595 39.6859C71.6815 39.6859 72.9154 38.4533 72.9154 36.9328C72.9154 35.4123 71.6815 34.1797 70.1595 34.1797C68.6374 34.1797 67.4036 35.4123 67.4036 36.9328C67.4036 38.4533 68.6374 39.6859 70.1595 39.6859Z" fill="#C6A874" stroke="#C6A874" stroke-miterlimit="10"/>
<path d="M103.349 39.6859C104.871 39.6859 106.105 38.4533 106.105 36.9328C106.105 35.4123 104.871 34.1797 103.349 34.1797C101.827 34.1797 100.593 35.4123 100.593 36.9328C100.593 38.4533 101.827 39.6859 103.349 39.6859Z" fill="#C6A874" stroke="#C6A874" stroke-miterlimit="10"/>
<path d="M136.539 39.6859C138.061 39.6859 139.295 38.4533 139.295 36.9328C139.295 35.4123 138.061 34.1797 136.539 34.1797C135.017 34.1797 133.783 35.4123 133.783 36.9328C133.783 38.4533 135.017 39.6859 136.539 39.6859Z" fill="#C6A874" stroke="#C6A874" stroke-miterlimit="10"/>
<path d="M169.753 39.6859C171.275 39.6859 172.509 38.4533 172.509 36.9328C172.509 35.4123 171.275 34.1797 169.753 34.1797C168.231 34.1797 166.997 35.4123 166.997 36.9328C166.997 38.4533 168.231 39.6859 169.753 39.6859Z" fill="#C6A874" stroke="#C6A874" stroke-miterlimit="10"/>
<path d="M3.75592 72.8419C5.27798 72.8419 6.51185 71.6093 6.51185 70.0888C6.51185 68.5683 5.27798 67.3357 3.75592 67.3357C2.23387 67.3357 1 68.5683 1 70.0888C1 71.6093 2.23387 72.8419 3.75592 72.8419Z" fill="#C6A874" stroke="#C6A874" stroke-miterlimit="10"/>
<path d="M36.9694 72.8419C38.4915 72.8419 39.7253 71.6093 39.7253 70.0888C39.7253 68.5683 38.4915 67.3357 36.9694 67.3357C35.4474 67.3357 34.2135 68.5683 34.2135 70.0888C34.2135 71.6093 35.4474 72.8419 36.9694 72.8419Z" fill="#C6A874" stroke="#C6A874" stroke-miterlimit="10"/>
<path d="M70.1595 72.8419C71.6815 72.8419 72.9154 71.6093 72.9154 70.0888C72.9154 68.5683 71.6815 67.3357 70.1595 67.3357C68.6374 67.3357 67.4036 68.5683 67.4036 70.0888C67.4036 71.6093 68.6374 72.8419 70.1595 72.8419Z" fill="#C6A874" stroke="#C6A874" stroke-miterlimit="10"/>
<path d="M103.349 72.8419C104.871 72.8419 106.105 71.6093 106.105 70.0888C106.105 68.5683 104.871 67.3357 103.349 67.3357C101.827 67.3357 100.593 68.5683 100.593 70.0888C100.593 71.6093 101.827 72.8419 103.349 72.8419Z" fill="#C6A874" stroke="#C6A874" stroke-miterlimit="10"/>
<path d="M136.539 72.8419C138.061 72.8419 139.295 71.6093 139.295 70.0888C139.295 68.5683 138.061 67.3357 136.539 67.3357C135.017 67.3357 133.783 68.5683 133.783 70.0888C133.783 71.6093 135.017 72.8419 136.539 72.8419Z" fill="#C6A874" stroke="#C6A874" stroke-miterlimit="10"/>
<path d="M169.753 72.8419C171.275 72.8419 172.509 71.6093 172.509 70.0888C172.509 68.5683 171.275 67.3357 169.753 67.3357C168.231 67.3357 166.997 68.5683 166.997 70.0888C166.997 71.6093 168.231 72.8419 169.753 72.8419Z" fill="#C6A874" stroke="#C6A874" stroke-miterlimit="10"/>
<path d="M3.75592 105.998C5.27798 105.998 6.51185 104.765 6.51185 103.245C6.51185 101.724 5.27798 100.492 3.75592 100.492C2.23387 100.492 1 101.724 1 103.245C1 104.765 2.23387 105.998 3.75592 105.998Z" fill="#C6A874" stroke="#C6A874" stroke-miterlimit="10"/>
<path d="M36.9694 105.998C38.4915 105.998 39.7253 104.765 39.7253 103.245C39.7253 101.724 38.4915 100.492 36.9694 100.492C35.4474 100.492 34.2135 101.724 34.2135 103.245C34.2135 104.765 35.4474 105.998 36.9694 105.998Z" fill="#C6A874" stroke="#C6A874" stroke-miterlimit="10"/>
<path d="M70.1595 105.998C71.6815 105.998 72.9154 104.765 72.9154 103.245C72.9154 101.724 71.6815 100.492 70.1595 100.492C68.6374 100.492 67.4036 101.724 67.4036 103.245C67.4036 104.765 68.6374 105.998 70.1595 105.998Z" fill="#C6A874" stroke="#C6A874" stroke-miterlimit="10"/>
<path d="M103.349 105.998C104.871 105.998 106.105 104.765 106.105 103.245C106.105 101.724 104.871 100.492 103.349 100.492C101.827 100.492 100.593 101.724 100.593 103.245C100.593 104.765 101.827 105.998 103.349 105.998Z" fill="#C6A874" stroke="#C6A874" stroke-miterlimit="10"/>
<path d="M136.539 105.998C138.061 105.998 139.295 104.765 139.295 103.245C139.295 101.724 138.061 100.492 136.539 100.492C135.017 100.492 133.783 101.724 133.783 103.245C133.783 104.765 135.017 105.998 136.539 105.998Z" fill="#C6A874" stroke="#C6A874" stroke-miterlimit="10"/>
<path d="M169.753 105.998C171.275 105.998 172.509 104.765 172.509 103.245C172.509 101.724 171.275 100.492 169.753 100.492C168.231 100.492 166.997 101.724 166.997 103.245C166.997 104.765 168.231 105.998 169.753 105.998Z" fill="#C6A874" stroke="#C6A874" stroke-miterlimit="10"/>
<path d="M3.75592 139.154C5.27798 139.154 6.51185 137.921 6.51185 136.401C6.51185 134.88 5.27798 133.648 3.75592 133.648C2.23387 133.648 1 134.88 1 136.401C1 137.921 2.23387 139.154 3.75592 139.154Z" fill="#C6A874" stroke="#C6A874" stroke-miterlimit="10"/>
<path d="M36.9694 139.154C38.4915 139.154 39.7253 137.921 39.7253 136.401C39.7253 134.88 38.4915 133.648 36.9694 133.648C35.4474 133.648 34.2135 134.88 34.2135 136.401C34.2135 137.921 35.4474 139.154 36.9694 139.154Z" fill="#C6A874" stroke="#C6A874" stroke-miterlimit="10"/>
<path d="M70.1595 139.154C71.6815 139.154 72.9154 137.921 72.9154 136.401C72.9154 134.88 71.6815 133.648 70.1595 133.648C68.6374 133.648 67.4036 134.88 67.4036 136.401C67.4036 137.921 68.6374 139.154 70.1595 139.154Z" fill="#C6A874" stroke="#C6A874" stroke-miterlimit="10"/>
<path d="M103.349 139.154C104.871 139.154 106.105 137.921 106.105 136.401C106.105 134.88 104.871 133.648 103.349 133.648C101.827 133.648 100.593 134.88 100.593 136.401C100.593 137.921 101.827 139.154 103.349 139.154Z" fill="#C6A874" stroke="#C6A874" stroke-miterlimit="10"/>
<path d="M136.539 139.154C138.061 139.154 139.295 137.921 139.295 136.401C139.295 134.88 138.061 133.648 136.539 133.648C135.017 133.648 133.783 134.88 133.783 136.401C133.783 137.921 135.017 139.154 136.539 139.154Z" fill="#C6A874" stroke="#C6A874" stroke-miterlimit="10"/>
<path d="M169.753 139.154C171.275 139.154 172.509 137.921 172.509 136.401C172.509 134.88 171.275 133.648 169.753 133.648C168.231 133.648 166.997 134.88 166.997 136.401C166.997 137.921 168.231 139.154 169.753 139.154Z" fill="#C6A874" stroke="#C6A874" stroke-miterlimit="10"/>
<path d="M3.75592 172.333C5.27798 172.333 6.51185 171.101 6.51185 169.58C6.51185 168.06 5.27798 166.827 3.75592 166.827C2.23387 166.827 1 168.06 1 169.58C1 171.101 2.23387 172.333 3.75592 172.333Z" fill="#C6A874" stroke="#C6A874" stroke-miterlimit="10"/>
<path d="M36.9694 172.333C38.4915 172.333 39.7253 171.101 39.7253 169.58C39.7253 168.06 38.4915 166.827 36.9694 166.827C35.4474 166.827 34.2135 168.06 34.2135 169.58C34.2135 171.101 35.4474 172.333 36.9694 172.333Z" fill="#C6A874" stroke="#C6A874" stroke-miterlimit="10"/>
<path d="M70.1595 172.333C71.6815 172.333 72.9154 171.101 72.9154 169.58C72.9154 168.06 71.6815 166.827 70.1595 166.827C68.6374 166.827 67.4036 168.06 67.4036 169.58C67.4036 171.101 68.6374 172.333 70.1595 172.333Z" fill="#C6A874" stroke="#C6A874" stroke-miterlimit="10"/>
<path d="M103.349 172.333C104.871 172.333 106.105 171.101 106.105 169.58C106.105 168.06 104.871 166.827 103.349 166.827C101.827 166.827 100.593 168.06 100.593 169.58C100.593 171.101 101.827 172.333 103.349 172.333Z" fill="#C6A874" stroke="#C6A874" stroke-miterlimit="10"/>
<path d="M136.539 172.333C138.061 172.333 139.295 171.101 139.295 169.58C139.295 168.06 138.061 166.827 136.539 166.827C135.017 166.827 133.783 168.06 133.783 169.58C133.783 171.101 135.017 172.333 136.539 172.333Z" fill="#C6A874" stroke="#C6A874" stroke-miterlimit="10"/>
<path d="M169.753 172.333C171.275 172.333 172.509 171.101 172.509 169.58C172.509 168.06 171.275 166.827 169.753 166.827C168.231 166.827 166.997 168.06 166.997 169.58C166.997 171.101 168.231 172.333 169.753 172.333Z" fill="#C6A874" stroke="#C6A874" stroke-miterlimit="10"/>
<path d="M201.247 6.50622C202.769 6.50622 204.003 5.27361 204.003 3.75311C204.003 2.23261 202.769 1 201.247 1C199.725 1 198.491 2.23261 198.491 3.75311C198.491 5.27361 199.725 6.50622 201.247 6.50622Z" fill="#C6A874" stroke="#C6A874" stroke-miterlimit="10"/>
<path d="M234.461 6.50622C235.983 6.50622 237.217 5.27361 237.217 3.75311C237.217 2.23261 235.983 1 234.461 1C232.939 1 231.705 2.23261 231.705 3.75311C231.705 5.27361 232.939 6.50622 234.461 6.50622Z" fill="#C6A874" stroke="#C6A874" stroke-miterlimit="10"/>
<path d="M267.651 6.50622C269.173 6.50622 270.407 5.27361 270.407 3.75311C270.407 2.23261 269.173 1 267.651 1C266.129 1 264.895 2.23261 264.895 3.75311C264.895 5.27361 266.129 6.50622 267.651 6.50622Z" fill="#C6A874" stroke="#C6A874" stroke-miterlimit="10"/>
<path d="M300.841 6.50622C302.363 6.50622 303.596 5.27361 303.596 3.75311C303.596 2.23261 302.363 1 300.841 1C299.318 1 298.085 2.23261 298.085 3.75311C298.085 5.27361 299.318 6.50622 300.841 6.50622Z" fill="#C6A874" stroke="#C6A874" stroke-miterlimit="10"/>
<path d="M334.03 6.50622C335.553 6.50622 336.786 5.27361 336.786 3.75311C336.786 2.23261 335.553 1 334.03 1C332.508 1 331.275 2.23261 331.275 3.75311C331.275 5.27361 332.508 6.50622 334.03 6.50622Z" fill="#C6A874" stroke="#C6A874" stroke-miterlimit="10"/>
<path d="M367.244 6.50622C368.766 6.50622 370 5.27361 370 3.75311C370 2.23261 368.766 1 367.244 1C365.722 1 364.488 2.23261 364.488 3.75311C364.488 5.27361 365.722 6.50622 367.244 6.50622Z" fill="#C6A874" stroke="#C6A874" stroke-miterlimit="10"/>
<path d="M201.247 39.6859C202.769 39.6859 204.003 38.4533 204.003 36.9328C204.003 35.4123 202.769 34.1797 201.247 34.1797C199.725 34.1797 198.491 35.4123 198.491 36.9328C198.491 38.4533 199.725 39.6859 201.247 39.6859Z" fill="#C6A874" stroke="#C6A874" stroke-miterlimit="10"/>
<path d="M234.461 39.6859C235.983 39.6859 237.217 38.4533 237.217 36.9328C237.217 35.4123 235.983 34.1797 234.461 34.1797C232.939 34.1797 231.705 35.4123 231.705 36.9328C231.705 38.4533 232.939 39.6859 234.461 39.6859Z" fill="#C6A874" stroke="#C6A874" stroke-miterlimit="10"/>
<path d="M267.651 39.6859C269.173 39.6859 270.407 38.4533 270.407 36.9328C270.407 35.4123 269.173 34.1797 267.651 34.1797C266.129 34.1797 264.895 35.4123 264.895 36.9328C264.895 38.4533 266.129 39.6859 267.651 39.6859Z" fill="#C6A874" stroke="#C6A874" stroke-miterlimit="10"/>
<path d="M300.841 39.6859C302.363 39.6859 303.596 38.4533 303.596 36.9328C303.596 35.4123 302.363 34.1797 300.841 34.1797C299.318 34.1797 298.085 35.4123 298.085 36.9328C298.085 38.4533 299.318 39.6859 300.841 39.6859Z" fill="#C6A874" stroke="#C6A874" stroke-miterlimit="10"/>
<path d="M334.03 39.6859C335.553 39.6859 336.786 38.4533 336.786 36.9328C336.786 35.4123 335.553 34.1797 334.03 34.1797C332.508 34.1797 331.275 35.4123 331.275 36.9328C331.275 38.4533 332.508 39.6859 334.03 39.6859Z" fill="#C6A874" stroke="#C6A874" stroke-miterlimit="10"/>
<path d="M367.244 39.6859C368.766 39.6859 370 38.4533 370 36.9328C370 35.4123 368.766 34.1797 367.244 34.1797C365.722 34.1797 364.488 35.4123 364.488 36.9328C364.488 38.4533 365.722 39.6859 367.244 39.6859Z" fill="#C6A874" stroke="#C6A874" stroke-miterlimit="10"/>
<path d="M201.247 72.8419C202.769 72.8419 204.003 71.6093 204.003 70.0888C204.003 68.5683 202.769 67.3357 201.247 67.3357C199.725 67.3357 198.491 68.5683 198.491 70.0888C198.491 71.6093 199.725 72.8419 201.247 72.8419Z" fill="#C6A874" stroke="#C6A874" stroke-miterlimit="10"/>
<path d="M234.461 72.8419C235.983 72.8419 237.217 71.6093 237.217 70.0888C237.217 68.5683 235.983 67.3357 234.461 67.3357C232.939 67.3357 231.705 68.5683 231.705 70.0888C231.705 71.6093 232.939 72.8419 234.461 72.8419Z" fill="#C6A874" stroke="#C6A874" stroke-miterlimit="10"/>
<path d="M267.651 72.8419C269.173 72.8419 270.407 71.6093 270.407 70.0888C270.407 68.5683 269.173 67.3357 267.651 67.3357C266.129 67.3357 264.895 68.5683 264.895 70.0888C264.895 71.6093 266.129 72.8419 267.651 72.8419Z" fill="#C6A874" stroke="#C6A874" stroke-miterlimit="10"/>
<path d="M300.841 72.8419C302.363 72.8419 303.596 71.6093 303.596 70.0888C303.596 68.5683 302.363 67.3357 300.841 67.3357C299.318 67.3357 298.085 68.5683 298.085 70.0888C298.085 71.6093 299.318 72.8419 300.841 72.8419Z" fill="#C6A874" stroke="#C6A874" stroke-miterlimit="10"/>
<path d="M334.03 72.8419C335.553 72.8419 336.786 71.6093 336.786 70.0888C336.786 68.5683 335.553 67.3357 334.03 67.3357C332.508 67.3357 331.275 68.5683 331.275 70.0888C331.275 71.6093 332.508 72.8419 334.03 72.8419Z" fill="#C6A874" stroke="#C6A874" stroke-miterlimit="10"/>
<path d="M367.244 72.8419C368.766 72.8419 370 71.6093 370 70.0888C370 68.5683 368.766 67.3357 367.244 67.3357C365.722 67.3357 364.488 68.5683 364.488 70.0888C364.488 71.6093 365.722 72.8419 367.244 72.8419Z" fill="#C6A874" stroke="#C6A874" stroke-miterlimit="10"/>
<path d="M201.247 105.998C202.769 105.998 204.003 104.765 204.003 103.245C204.003 101.724 202.769 100.492 201.247 100.492C199.725 100.492 198.491 101.724 198.491 103.245C198.491 104.765 199.725 105.998 201.247 105.998Z" fill="#C6A874" stroke="#C6A874" stroke-miterlimit="10"/>
<path d="M234.461 105.998C235.983 105.998 237.217 104.765 237.217 103.245C237.217 101.724 235.983 100.492 234.461 100.492C232.939 100.492 231.705 101.724 231.705 103.245C231.705 104.765 232.939 105.998 234.461 105.998Z" fill="#C6A874" stroke="#C6A874" stroke-miterlimit="10"/>
<path d="M267.651 105.998C269.173 105.998 270.407 104.765 270.407 103.245C270.407 101.724 269.173 100.492 267.651 100.492C266.129 100.492 264.895 101.724 264.895 103.245C264.895 104.765 266.129 105.998 267.651 105.998Z" fill="#C6A874" stroke="#C6A874" stroke-miterlimit="10"/>
<path d="M300.841 105.998C302.363 105.998 303.596 104.765 303.596 103.245C303.596 101.724 302.363 100.492 300.841 100.492C299.318 100.492 298.085 101.724 298.085 103.245C298.085 104.765 299.318 105.998 300.841 105.998Z" fill="#C6A874" stroke="#C6A874" stroke-miterlimit="10"/>
<path d="M334.03 105.998C335.553 105.998 336.786 104.765 336.786 103.245C336.786 101.724 335.553 100.492 334.03 100.492C332.508 100.492 331.275 101.724 331.275 103.245C331.275 104.765 332.508 105.998 334.03 105.998Z" fill="#C6A874" stroke="#C6A874" stroke-miterlimit="10"/>
<path d="M367.244 105.998C368.766 105.998 370 104.765 370 103.245C370 101.724 368.766 100.492 367.244 100.492C365.722 100.492 364.488 101.724 364.488 103.245C364.488 104.765 365.722 105.998 367.244 105.998Z" fill="#C6A874" stroke="#C6A874" stroke-miterlimit="10"/>
<path d="M201.247 139.154C202.769 139.154 204.003 137.921 204.003 136.401C204.003 134.88 202.769 133.648 201.247 133.648C199.725 133.648 198.491 134.88 198.491 136.401C198.491 137.921 199.725 139.154 201.247 139.154Z" fill="#C6A874" stroke="#C6A874" stroke-miterlimit="10"/>
<path d="M234.461 139.154C235.983 139.154 237.217 137.921 237.217 136.401C237.217 134.88 235.983 133.648 234.461 133.648C232.939 133.648 231.705 134.88 231.705 136.401C231.705 137.921 232.939 139.154 234.461 139.154Z" fill="#C6A874" stroke="#C6A874" stroke-miterlimit="10"/>
<path d="M267.651 139.154C269.173 139.154 270.407 137.921 270.407 136.401C270.407 134.88 269.173 133.648 267.651 133.648C266.129 133.648 264.895 134.88 264.895 136.401C264.895 137.921 266.129 139.154 267.651 139.154Z" fill="#C6A874" stroke="#C6A874" stroke-miterlimit="10"/>
<path d="M300.841 139.154C302.363 139.154 303.596 137.921 303.596 136.401C303.596 134.88 302.363 133.648 300.841 133.648C299.318 133.648 298.085 134.88 298.085 136.401C298.085 137.921 299.318 139.154 300.841 139.154Z" fill="#C6A874" stroke="#C6A874" stroke-miterlimit="10"/>
<path d="M334.03 139.154C335.553 139.154 336.786 137.921 336.786 136.401C336.786 134.88 335.553 133.648 334.03 133.648C332.508 133.648 331.275 134.88 331.275 136.401C331.275 137.921 332.508 139.154 334.03 139.154Z" fill="#C6A874" stroke="#C6A874" stroke-miterlimit="10"/>
<path d="M367.244 139.154C368.766 139.154 370 137.921 370 136.401C370 134.88 368.766 133.648 367.244 133.648C365.722 133.648 364.488 134.88 364.488 136.401C364.488 137.921 365.722 139.154 367.244 139.154Z" fill="#C6A874" stroke="#C6A874" stroke-miterlimit="10"/>
<path d="M201.247 172.333C202.769 172.333 204.003 171.101 204.003 169.58C204.003 168.06 202.769 166.827 201.247 166.827C199.725 166.827 198.491 168.06 198.491 169.58C198.491 171.101 199.725 172.333 201.247 172.333Z" fill="#C6A874" stroke="#C6A874" stroke-miterlimit="10"/>
<path d="M234.461 172.333C235.983 172.333 237.217 171.101 237.217 169.58C237.217 168.06 235.983 166.827 234.461 166.827C232.939 166.827 231.705 168.06 231.705 169.58C231.705 171.101 232.939 172.333 234.461 172.333Z" fill="#C6A874" stroke="#C6A874" stroke-miterlimit="10"/>
<path d="M267.651 172.333C269.173 172.333 270.407 171.101 270.407 169.58C270.407 168.06 269.173 166.827 267.651 166.827C266.129 166.827 264.895 168.06 264.895 169.58C264.895 171.101 266.129 172.333 267.651 172.333Z" fill="#C6A874" stroke="#C6A874" stroke-miterlimit="10"/>
<path d="M300.841 172.333C302.363 172.333 303.596 171.101 303.596 169.58C303.596 168.06 302.363 166.827 300.841 166.827C299.318 166.827 298.085 168.06 298.085 169.58C298.085 171.101 299.318 172.333 300.841 172.333Z" fill="#C6A874" stroke="#C6A874" stroke-miterlimit="10"/>
<path d="M334.03 172.333C335.553 172.333 336.786 171.101 336.786 169.58C336.786 168.06 335.553 166.827 334.03 166.827C332.508 166.827 331.275 168.06 331.275 169.58C331.275 171.101 332.508 172.333 334.03 172.333Z" fill="#C6A874" stroke="#C6A874" stroke-miterlimit="10"/>
<path d="M367.244 172.333C368.766 172.333 370 171.101 370 169.58C370 168.06 368.766 166.827 367.244 166.827C365.722 166.827 364.488 168.06 364.488 169.58C364.488 171.101 365.722 172.333 367.244 172.333Z" fill="#C6A874" stroke="#C6A874" stroke-miterlimit="10"/>
<path d="M3.75592 204.173C5.27798 204.173 6.51185 202.94 6.51185 201.42C6.51185 199.899 5.27798 198.667 3.75592 198.667C2.23387 198.667 1 199.899 1 201.42C1 202.94 2.23387 204.173 3.75592 204.173Z" fill="#C6A874" stroke="#C6A874" stroke-miterlimit="10"/>
<path d="M36.9694 204.173C38.4915 204.173 39.7253 202.94 39.7253 201.42C39.7253 199.899 38.4915 198.667 36.9694 198.667C35.4474 198.667 34.2135 199.899 34.2135 201.42C34.2135 202.94 35.4474 204.173 36.9694 204.173Z" fill="#C6A874" stroke="#C6A874" stroke-miterlimit="10"/>
<path d="M70.1595 204.173C71.6815 204.173 72.9154 202.94 72.9154 201.42C72.9154 199.899 71.6815 198.667 70.1595 198.667C68.6374 198.667 67.4036 199.899 67.4036 201.42C67.4036 202.94 68.6374 204.173 70.1595 204.173Z" fill="#C6A874" stroke="#C6A874" stroke-miterlimit="10"/>
<path d="M103.349 204.173C104.871 204.173 106.105 202.94 106.105 201.42C106.105 199.899 104.871 198.667 103.349 198.667C101.827 198.667 100.593 199.899 100.593 201.42C100.593 202.94 101.827 204.173 103.349 204.173Z" fill="#C6A874" stroke="#C6A874" stroke-miterlimit="10"/>
<path d="M136.539 204.173C138.061 204.173 139.295 202.94 139.295 201.42C139.295 199.899 138.061 198.667 136.539 198.667C135.017 198.667 133.783 199.899 133.783 201.42C133.783 202.94 135.017 204.173 136.539 204.173Z" fill="#C6A874" stroke="#C6A874" stroke-miterlimit="10"/>
<path d="M169.753 204.173C171.275 204.173 172.509 202.94 172.509 201.42C172.509 199.899 171.275 198.667 169.753 198.667C168.231 198.667 166.997 199.899 166.997 201.42C166.997 202.94 168.231 204.173 169.753 204.173Z" fill="#C6A874" stroke="#C6A874" stroke-miterlimit="10"/>
<path d="M3.75592 237.352C5.27798 237.352 6.51185 236.12 6.51185 234.599C6.51185 233.079 5.27798 231.846 3.75592 231.846C2.23387 231.846 1 233.079 1 234.599C1 236.12 2.23387 237.352 3.75592 237.352Z" fill="#C6A874" stroke="#C6A874" stroke-miterlimit="10"/>
<path d="M36.9694 237.352C38.4915 237.352 39.7253 236.12 39.7253 234.599C39.7253 233.079 38.4915 231.846 36.9694 231.846C35.4474 231.846 34.2135 233.079 34.2135 234.599C34.2135 236.12 35.4474 237.352 36.9694 237.352Z" fill="#C6A874" stroke="#C6A874" stroke-miterlimit="10"/>
<path d="M70.1595 237.352C71.6815 237.352 72.9154 236.12 72.9154 234.599C72.9154 233.079 71.6815 231.846 70.1595 231.846C68.6374 231.846 67.4036 233.079 67.4036 234.599C67.4036 236.12 68.6374 237.352 70.1595 237.352Z" fill="#C6A874" stroke="#C6A874" stroke-miterlimit="10"/>
<path d="M103.349 237.352C104.871 237.352 106.105 236.12 106.105 234.599C106.105 233.079 104.871 231.846 103.349 231.846C101.827 231.846 100.593 233.079 100.593 234.599C100.593 236.12 101.827 237.352 103.349 237.352Z" fill="#C6A874" stroke="#C6A874" stroke-miterlimit="10"/>
<path d="M136.539 237.352C138.061 237.352 139.295 236.12 139.295 234.599C139.295 233.079 138.061 231.846 136.539 231.846C135.017 231.846 133.783 233.079 133.783 234.599C133.783 236.12 135.017 237.352 136.539 237.352Z" fill="#C6A874" stroke="#C6A874" stroke-miterlimit="10"/>
<path d="M169.753 237.352C171.275 237.352 172.509 236.12 172.509 234.599C172.509 233.079 171.275 231.846 169.753 231.846C168.231 231.846 166.997 233.079 166.997 234.599C166.997 236.12 168.231 237.352 169.753 237.352Z" fill="#C6A874" stroke="#C6A874" stroke-miterlimit="10"/>
<path d="M3.75592 270.508C5.27798 270.508 6.51185 269.276 6.51185 267.755C6.51185 266.235 5.27798 265.002 3.75592 265.002C2.23387 265.002 1 266.235 1 267.755C1 269.276 2.23387 270.508 3.75592 270.508Z" fill="#C6A874" stroke="#C6A874" stroke-miterlimit="10"/>
<path d="M36.9694 270.508C38.4915 270.508 39.7253 269.276 39.7253 267.755C39.7253 266.235 38.4915 265.002 36.9694 265.002C35.4474 265.002 34.2135 266.235 34.2135 267.755C34.2135 269.276 35.4474 270.508 36.9694 270.508Z" fill="#C6A874" stroke="#C6A874" stroke-miterlimit="10"/>
<path d="M70.1595 270.508C71.6815 270.508 72.9154 269.276 72.9154 267.755C72.9154 266.235 71.6815 265.002 70.1595 265.002C68.6374 265.002 67.4036 266.235 67.4036 267.755C67.4036 269.276 68.6374 270.508 70.1595 270.508Z" fill="#C6A874" stroke="#C6A874" stroke-miterlimit="10"/>
<path d="M103.349 270.508C104.871 270.508 106.105 269.276 106.105 267.755C106.105 266.235 104.871 265.002 103.349 265.002C101.827 265.002 100.593 266.235 100.593 267.755C100.593 269.276 101.827 270.508 103.349 270.508Z" fill="#C6A874" stroke="#C6A874" stroke-miterlimit="10"/>
<path d="M136.539 270.508C138.061 270.508 139.295 269.276 139.295 267.755C139.295 266.235 138.061 265.002 136.539 265.002C135.017 265.002 133.783 266.235 133.783 267.755C133.783 269.276 135.017 270.508 136.539 270.508Z" fill="#C6A874" stroke="#C6A874" stroke-miterlimit="10"/>
<path d="M169.753 270.508C171.275 270.508 172.509 269.276 172.509 267.755C172.509 266.235 171.275 265.002 169.753 265.002C168.231 265.002 166.997 266.235 166.997 267.755C166.997 269.276 168.231 270.508 169.753 270.508Z" fill="#C6A874" stroke="#C6A874" stroke-miterlimit="10"/>
<path d="M3.75592 303.664C5.27798 303.664 6.51185 302.432 6.51185 300.911C6.51185 299.391 5.27798 298.158 3.75592 298.158C2.23387 298.158 1 299.391 1 300.911C1 302.432 2.23387 303.664 3.75592 303.664Z" fill="#C6A874" stroke="#C6A874" stroke-miterlimit="10"/>
<path d="M36.9694 303.664C38.4915 303.664 39.7253 302.432 39.7253 300.911C39.7253 299.391 38.4915 298.158 36.9694 298.158C35.4474 298.158 34.2135 299.391 34.2135 300.911C34.2135 302.432 35.4474 303.664 36.9694 303.664Z" fill="#C6A874" stroke="#C6A874" stroke-miterlimit="10"/>
<path d="M70.1595 303.664C71.6815 303.664 72.9154 302.432 72.9154 300.911C72.9154 299.391 71.6815 298.158 70.1595 298.158C68.6374 298.158 67.4036 299.391 67.4036 300.911C67.4036 302.432 68.6374 303.664 70.1595 303.664Z" fill="#C6A874" stroke="#C6A874" stroke-miterlimit="10"/>
<path d="M103.349 303.664C104.871 303.664 106.105 302.432 106.105 300.911C106.105 299.391 104.871 298.158 103.349 298.158C101.827 298.158 100.593 299.391 100.593 300.911C100.593 302.432 101.827 303.664 103.349 303.664Z" fill="#C6A874" stroke="#C6A874" stroke-miterlimit="10"/>
<path d="M136.539 303.664C138.061 303.664 139.295 302.432 139.295 300.911C139.295 299.391 138.061 298.158 136.539 298.158C135.017 298.158 133.783 299.391 133.783 300.911C133.783 302.432 135.017 303.664 136.539 303.664Z" fill="#C6A874" stroke="#C6A874" stroke-miterlimit="10"/>
<path d="M169.753 303.664C171.275 303.664 172.509 302.432 172.509 300.911C172.509 299.391 171.275 298.158 169.753 298.158C168.231 298.158 166.997 299.391 166.997 300.911C166.997 302.432 168.231 303.664 169.753 303.664Z" fill="#C6A874" stroke="#C6A874" stroke-miterlimit="10"/>
<path d="M3.75592 336.82C5.27798 336.82 6.51185 335.588 6.51185 334.067C6.51185 332.547 5.27798 331.314 3.75592 331.314C2.23387 331.314 1 332.547 1 334.067C1 335.588 2.23387 336.82 3.75592 336.82Z" fill="#C6A874" stroke="#C6A874" stroke-miterlimit="10"/>
<path d="M36.9694 336.82C38.4915 336.82 39.7253 335.588 39.7253 334.067C39.7253 332.547 38.4915 331.314 36.9694 331.314C35.4474 331.314 34.2135 332.547 34.2135 334.067C34.2135 335.588 35.4474 336.82 36.9694 336.82Z" fill="#C6A874" stroke="#C6A874" stroke-miterlimit="10"/>
<path d="M70.1595 336.82C71.6815 336.82 72.9154 335.588 72.9154 334.067C72.9154 332.547 71.6815 331.314 70.1595 331.314C68.6374 331.314 67.4036 332.547 67.4036 334.067C67.4036 335.588 68.6374 336.82 70.1595 336.82Z" fill="#C6A874" stroke="#C6A874" stroke-miterlimit="10"/>
<path d="M103.349 336.82C104.871 336.82 106.105 335.588 106.105 334.067C106.105 332.547 104.871 331.314 103.349 331.314C101.827 331.314 100.593 332.547 100.593 334.067C100.593 335.588 101.827 336.82 103.349 336.82Z" fill="#C6A874" stroke="#C6A874" stroke-miterlimit="10"/>
<path d="M136.539 336.82C138.061 336.82 139.295 335.588 139.295 334.067C139.295 332.547 138.061 331.314 136.539 331.314C135.017 331.314 133.783 332.547 133.783 334.067C133.783 335.588 135.017 336.82 136.539 336.82Z" fill="#C6A874" stroke="#C6A874" stroke-miterlimit="10"/>
<path d="M169.753 336.82C171.275 336.82 172.509 335.588 172.509 334.067C172.509 332.547 171.275 331.314 169.753 331.314C168.231 331.314 166.997 332.547 166.997 334.067C166.997 335.588 168.231 336.82 169.753 336.82Z" fill="#C6A874" stroke="#C6A874" stroke-miterlimit="10"/>
<path d="M3.75592 370C5.27798 370 6.51185 368.767 6.51185 367.247C6.51185 365.726 5.27798 364.494 3.75592 364.494C2.23387 364.494 1 365.726 1 367.247C1 368.767 2.23387 370 3.75592 370Z" fill="#C6A874" stroke="#C6A874" stroke-miterlimit="10"/>
<path d="M36.9694 370C38.4915 370 39.7253 368.767 39.7253 367.247C39.7253 365.726 38.4915 364.494 36.9694 364.494C35.4474 364.494 34.2135 365.726 34.2135 367.247C34.2135 368.767 35.4474 370 36.9694 370Z" fill="#C6A874" stroke="#C6A874" stroke-miterlimit="10"/>
<path d="M70.1595 370C71.6815 370 72.9154 368.767 72.9154 367.247C72.9154 365.726 71.6815 364.494 70.1595 364.494C68.6374 364.494 67.4036 365.726 67.4036 367.247C67.4036 368.767 68.6374 370 70.1595 370Z" fill="#C6A874" stroke="#C6A874" stroke-miterlimit="10"/>
<path d="M103.349 370C104.871 370 106.105 368.767 106.105 367.247C106.105 365.726 104.871 364.494 103.349 364.494C101.827 364.494 100.593 365.726 100.593 367.247C100.593 368.767 101.827 370 103.349 370Z" fill="#C6A874" stroke="#C6A874" stroke-miterlimit="10"/>
<path d="M136.539 370C138.061 370 139.295 368.767 139.295 367.247C139.295 365.726 138.061 364.494 136.539 364.494C135.017 364.494 133.783 365.726 133.783 367.247C133.783 368.767 135.017 370 136.539 370Z" fill="#C6A874" stroke="#C6A874" stroke-miterlimit="10"/>
<path d="M169.753 370C171.275 370 172.509 368.767 172.509 367.247C172.509 365.726 171.275 364.494 169.753 364.494C168.231 364.494 166.997 365.726 166.997 367.247C166.997 368.767 168.231 370 169.753 370Z" fill="#C6A874" stroke="#C6A874" stroke-miterlimit="10"/>
<path d="M201.247 204.173C202.769 204.173 204.003 202.94 204.003 201.42C204.003 199.899 202.769 198.667 201.247 198.667C199.725 198.667 198.491 199.899 198.491 201.42C198.491 202.94 199.725 204.173 201.247 204.173Z" fill="#C6A874" stroke="#C6A874" stroke-miterlimit="10"/>
<path d="M234.461 204.173C235.983 204.173 237.217 202.94 237.217 201.42C237.217 199.899 235.983 198.667 234.461 198.667C232.939 198.667 231.705 199.899 231.705 201.42C231.705 202.94 232.939 204.173 234.461 204.173Z" fill="#C6A874" stroke="#C6A874" stroke-miterlimit="10"/>
<path d="M267.651 204.173C269.173 204.173 270.407 202.94 270.407 201.42C270.407 199.899 269.173 198.667 267.651 198.667C266.129 198.667 264.895 199.899 264.895 201.42C264.895 202.94 266.129 204.173 267.651 204.173Z" fill="#C6A874" stroke="#C6A874" stroke-miterlimit="10"/>
<path d="M300.841 204.173C302.363 204.173 303.596 202.94 303.596 201.42C303.596 199.899 302.363 198.667 300.841 198.667C299.318 198.667 298.085 199.899 298.085 201.42C298.085 202.94 299.318 204.173 300.841 204.173Z" fill="#C6A874" stroke="#C6A874" stroke-miterlimit="10"/>
<path d="M334.03 204.173C335.553 204.173 336.786 202.94 336.786 201.42C336.786 199.899 335.553 198.667 334.03 198.667C332.508 198.667 331.275 199.899 331.275 201.42C331.275 202.94 332.508 204.173 334.03 204.173Z" fill="#C6A874" stroke="#C6A874" stroke-miterlimit="10"/>
<path d="M367.244 204.173C368.766 204.173 370 202.94 370 201.42C370 199.899 368.766 198.667 367.244 198.667C365.722 198.667 364.488 199.899 364.488 201.42C364.488 202.94 365.722 204.173 367.244 204.173Z" fill="#C6A874" stroke="#C6A874" stroke-miterlimit="10"/>
<path d="M201.247 237.352C202.769 237.352 204.003 236.12 204.003 234.599C204.003 233.079 202.769 231.846 201.247 231.846C199.725 231.846 198.491 233.079 198.491 234.599C198.491 236.12 199.725 237.352 201.247 237.352Z" fill="#C6A874" stroke="#C6A874" stroke-miterlimit="10"/>
<path d="M234.461 237.352C235.983 237.352 237.217 236.12 237.217 234.599C237.217 233.079 235.983 231.846 234.461 231.846C232.939 231.846 231.705 233.079 231.705 234.599C231.705 236.12 232.939 237.352 234.461 237.352Z" fill="#C6A874" stroke="#C6A874" stroke-miterlimit="10"/>
<path d="M267.651 237.352C269.173 237.352 270.407 236.12 270.407 234.599C270.407 233.079 269.173 231.846 267.651 231.846C266.129 231.846 264.895 233.079 264.895 234.599C264.895 236.12 266.129 237.352 267.651 237.352Z" fill="#C6A874" stroke="#C6A874" stroke-miterlimit="10"/>
<path d="M300.841 237.352C302.363 237.352 303.596 236.12 303.596 234.599C303.596 233.079 302.363 231.846 300.841 231.846C299.318 231.846 298.085 233.079 298.085 234.599C298.085 236.12 299.318 237.352 300.841 237.352Z" fill="#C6A874" stroke="#C6A874" stroke-miterlimit="10"/>
<path d="M334.03 237.352C335.553 237.352 336.786 236.12 336.786 234.599C336.786 233.079 335.553 231.846 334.03 231.846C332.508 231.846 331.275 233.079 331.275 234.599C331.275 236.12 332.508 237.352 334.03 237.352Z" fill="#C6A874" stroke="#C6A874" stroke-miterlimit="10"/>
<path d="M367.244 237.352C368.766 237.352 370 236.12 370 234.599C370 233.079 368.766 231.846 367.244 231.846C365.722 231.846 364.488 233.079 364.488 234.599C364.488 236.12 365.722 237.352 367.244 237.352Z" fill="#C6A874" stroke="#C6A874" stroke-miterlimit="10"/>
<path d="M201.247 270.508C202.769 270.508 204.003 269.276 204.003 267.755C204.003 266.235 202.769 265.002 201.247 265.002C199.725 265.002 198.491 266.235 198.491 267.755C198.491 269.276 199.725 270.508 201.247 270.508Z" fill="#C6A874" stroke="#C6A874" stroke-miterlimit="10"/>
<path d="M234.461 270.508C235.983 270.508 237.217 269.276 237.217 267.755C237.217 266.235 235.983 265.002 234.461 265.002C232.939 265.002 231.705 266.235 231.705 267.755C231.705 269.276 232.939 270.508 234.461 270.508Z" fill="#C6A874" stroke="#C6A874" stroke-miterlimit="10"/>
<path d="M267.651 270.508C269.173 270.508 270.407 269.276 270.407 267.755C270.407 266.235 269.173 265.002 267.651 265.002C266.129 265.002 264.895 266.235 264.895 267.755C264.895 269.276 266.129 270.508 267.651 270.508Z" fill="#C6A874" stroke="#C6A874" stroke-miterlimit="10"/>
<path d="M300.841 270.508C302.363 270.508 303.596 269.276 303.596 267.755C303.596 266.235 302.363 265.002 300.841 265.002C299.318 265.002 298.085 266.235 298.085 267.755C298.085 269.276 299.318 270.508 300.841 270.508Z" fill="#C6A874" stroke="#C6A874" stroke-miterlimit="10"/>
<path d="M334.03 270.508C335.553 270.508 336.786 269.276 336.786 267.755C336.786 266.235 335.553 265.002 334.03 265.002C332.508 265.002 331.275 266.235 331.275 267.755C331.275 269.276 332.508 270.508 334.03 270.508Z" fill="#C6A874" stroke="#C6A874" stroke-miterlimit="10"/>
<path d="M367.244 270.508C368.766 270.508 370 269.276 370 267.755C370 266.235 368.766 265.002 367.244 265.002C365.722 265.002 364.488 266.235 364.488 267.755C364.488 269.276 365.722 270.508 367.244 270.508Z" fill="#C6A874" stroke="#C6A874" stroke-miterlimit="10"/>
<path d="M201.247 303.664C202.769 303.664 204.003 302.432 204.003 300.911C204.003 299.391 202.769 298.158 201.247 298.158C199.725 298.158 198.491 299.391 198.491 300.911C198.491 302.432 199.725 303.664 201.247 303.664Z" fill="#C6A874" stroke="#C6A874" stroke-miterlimit="10"/>
<path d="M234.461 303.664C235.983 303.664 237.217 302.432 237.217 300.911C237.217 299.391 235.983 298.158 234.461 298.158C232.939 298.158 231.705 299.391 231.705 300.911C231.705 302.432 232.939 303.664 234.461 303.664Z" fill="#C6A874" stroke="#C6A874" stroke-miterlimit="10"/>
<path d="M267.651 303.664C269.173 303.664 270.407 302.432 270.407 300.911C270.407 299.391 269.173 298.158 267.651 298.158C266.129 298.158 264.895 299.391 264.895 300.911C264.895 302.432 266.129 303.664 267.651 303.664Z" fill="#C6A874" stroke="#C6A874" stroke-miterlimit="10"/>
<path d="M300.841 303.664C302.363 303.664 303.596 302.432 303.596 300.911C303.596 299.391 302.363 298.158 300.841 298.158C299.318 298.158 298.085 299.391 298.085 300.911C298.085 302.432 299.318 303.664 300.841 303.664Z" fill="#C6A874" stroke="#C6A874" stroke-miterlimit="10"/>
<path d="M334.03 303.664C335.553 303.664 336.786 302.432 336.786 300.911C336.786 299.391 335.553 298.158 334.03 298.158C332.508 298.158 331.275 299.391 331.275 300.911C331.275 302.432 332.508 303.664 334.03 303.664Z" fill="#C6A874" stroke="#C6A874" stroke-miterlimit="10"/>
<path d="M367.244 303.664C368.766 303.664 370 302.432 370 300.911C370 299.391 368.766 298.158 367.244 298.158C365.722 298.158 364.488 299.391 364.488 300.911C364.488 302.432 365.722 303.664 367.244 303.664Z" fill="#C6A874" stroke="#C6A874" stroke-miterlimit="10"/>
<path d="M201.247 336.82C202.769 336.82 204.003 335.588 204.003 334.067C204.003 332.547 202.769 331.314 201.247 331.314C199.725 331.314 198.491 332.547 198.491 334.067C198.491 335.588 199.725 336.82 201.247 336.82Z" fill="#C6A874" stroke="#C6A874" stroke-miterlimit="10"/>
<path d="M234.461 336.82C235.983 336.82 237.217 335.588 237.217 334.067C237.217 332.547 235.983 331.314 234.461 331.314C232.939 331.314 231.705 332.547 231.705 334.067C231.705 335.588 232.939 336.82 234.461 336.82Z" fill="#C6A874" stroke="#C6A874" stroke-miterlimit="10"/>
<path d="M267.651 336.82C269.173 336.82 270.407 335.588 270.407 334.067C270.407 332.547 269.173 331.314 267.651 331.314C266.129 331.314 264.895 332.547 264.895 334.067C264.895 335.588 266.129 336.82 267.651 336.82Z" fill="#C6A874" stroke="#C6A874" stroke-miterlimit="10"/>
<path d="M300.841 336.82C302.363 336.82 303.596 335.588 303.596 334.067C303.596 332.547 302.363 331.314 300.841 331.314C299.318 331.314 298.085 332.547 298.085 334.067C298.085 335.588 299.318 336.82 300.841 336.82Z" fill="#C6A874" stroke="#C6A874" stroke-miterlimit="10"/>
<path d="M334.03 336.82C335.553 336.82 336.786 335.588 336.786 334.067C336.786 332.547 335.553 331.314 334.03 331.314C332.508 331.314 331.275 332.547 331.275 334.067C331.275 335.588 332.508 336.82 334.03 336.82Z" fill="#C6A874" stroke="#C6A874" stroke-miterlimit="10"/>
<path d="M367.244 336.82C368.766 336.82 370 335.588 370 334.067C370 332.547 368.766 331.314 367.244 331.314C365.722 331.314 364.488 332.547 364.488 334.067C364.488 335.588 365.722 336.82 367.244 336.82Z" fill="#C6A874" stroke="#C6A874" stroke-miterlimit="10"/>
<path d="M201.247 370C202.769 370 204.003 368.767 204.003 367.247C204.003 365.726 202.769 364.494 201.247 364.494C199.725 364.494 198.491 365.726 198.491 367.247C198.491 368.767 199.725 370 201.247 370Z" fill="#C6A874" stroke="#C6A874" stroke-miterlimit="10"/>
<path d="M234.461 370C235.983 370 237.217 368.767 237.217 367.247C237.217 365.726 235.983 364.494 234.461 364.494C232.939 364.494 231.705 365.726 231.705 367.247C231.705 368.767 232.939 370 234.461 370Z" fill="#C6A874" stroke="#C6A874" stroke-miterlimit="10"/>
<path d="M267.651 370C269.173 370 270.407 368.767 270.407 367.247C270.407 365.726 269.173 364.494 267.651 364.494C266.129 364.494 264.895 365.726 264.895 367.247C264.895 368.767 266.129 370 267.651 370Z" fill="#C6A874" stroke="#C6A874" stroke-miterlimit="10"/>
<path d="M300.841 370C302.363 370 303.596 368.767 303.596 367.247C303.596 365.726 302.363 364.494 300.841 364.494C299.318 364.494 298.085 365.726 298.085 367.247C298.085 368.767 299.318 370 300.841 370Z" fill="#C6A874" stroke="#C6A874" stroke-miterlimit="10"/>
<path d="M334.03 370C335.553 370 336.786 368.767 336.786 367.247C336.786 365.726 335.553 364.494 334.03 364.494C332.508 364.494 331.275 365.726 331.275 367.247C331.275 368.767 332.508 370 334.03 370Z" fill="#C6A874" stroke="#C6A874" stroke-miterlimit="10"/>
<path d="M367.244 370C368.766 370 370 368.767 370 367.247C370 365.726 368.766 364.494 367.244 364.494C365.722 364.494 364.488 365.726 364.488 367.247C364.488 368.767 365.722 370 367.244 370Z" fill="#C6A874" stroke="#C6A874" stroke-miterlimit="10"/>
</svg>
