<svg width="106" height="106" viewBox="0 0 106 106" fill="none" xmlns="http://www.w3.org/2000/svg">
<g clip-path="url(#clip0)">
<path d="M40.5957 6.70283C66.1237 -0.136484 92.4579 15.0675 99.2972 40.5955C106.136 66.1236 90.9325 92.4577 65.4044 99.297C39.8764 106.136 13.5423 90.9324 6.70295 65.4043C-0.142562 39.8763 15.0614 13.5421 40.5957 6.70283ZM40.3972 5.97115C14.4228 12.9283 -0.992051 39.6282 5.97127 65.6027C12.9346 91.5772 39.6284 106.992 65.6029 100.029C91.5774 93.0654 106.992 66.3716 100.029 40.3971C93.0717 14.4226 66.3717 -0.992173 40.3972 5.97115Z" fill="#C2A375"/>
<path d="M39.8077 3.76951C66.9542 -3.50384 94.9563 12.6612 102.23 39.8077C109.503 66.9541 93.3379 94.9562 66.1915 102.23C39.0451 109.503 11.043 93.3316 3.76961 66.1914C-3.50374 39.045 12.6613 11.0429 39.8077 3.76951ZM39.2869 1.81631C11.0182 9.3935 -5.75458 38.4435 1.81641 66.7122C9.38739 94.981 38.4436 111.754 66.7123 104.177C94.9811 96.6056 111.754 67.5493 104.177 39.2806C96.6056 11.0181 67.5494 -5.75467 39.2869 1.81631Z" fill="#C2A375"/>
<path d="M39.9694 13.8522C39.7648 13.7344 39.6222 13.5484 39.5477 13.3004C39.4919 13.1082 39.4857 12.916 39.5353 12.7237C39.5849 12.5315 39.6966 12.3579 39.8764 12.1967C40.05 12.0355 40.2856 11.9114 40.5895 11.8184C40.8189 11.7502 41.0607 11.7068 41.3025 11.7006C41.5444 11.6944 41.7614 11.7192 41.9536 11.7874L41.8358 12.4633C41.6808 12.4075 41.5133 12.3765 41.3335 12.3765C41.1537 12.3765 40.9739 12.4013 40.8065 12.4509C40.6143 12.5067 40.4778 12.5935 40.391 12.6989C40.3042 12.8043 40.2794 12.9284 40.3228 13.0648C40.4034 13.3314 40.6515 13.4058 41.0607 13.2818L41.4079 13.1764L41.563 13.6786L41.1227 14.6521L42.5241 14.2243L42.7101 14.8381L40.4034 15.5388L40.2546 15.0428L40.7383 13.9701C40.4282 14.0135 40.174 13.9701 39.9694 13.8522Z" fill="#C2A375"/>
<path d="M39.678 15.7683L38.2271 16.3511C37.8798 16.4938 37.545 16.5496 37.2287 16.5248C36.9125 16.5 36.6273 16.3945 36.3855 16.2147C36.1436 16.0349 35.9576 15.7869 35.8274 15.4644C35.6972 15.1482 35.66 14.8382 35.7096 14.5344C35.7592 14.2367 35.8894 13.9639 36.1064 13.7283C36.3173 13.4864 36.5963 13.3004 36.9435 13.1578L38.3945 12.575L39.678 15.7683ZM37.2225 13.7531C36.9063 13.8833 36.6831 14.0755 36.5653 14.3297C36.4475 14.584 36.4475 14.863 36.5715 15.1668C36.6955 15.4706 36.8877 15.6753 37.1481 15.7745C37.4086 15.8737 37.7 15.8613 38.0162 15.7311L38.6921 15.4582L37.8922 13.4802L37.2225 13.7531Z" fill="#C2A375"/>
<path d="M34.8415 17.8641L33.4835 18.6391C33.1611 18.8251 32.8387 18.9244 32.5162 18.943C32.1938 18.9616 31.9024 18.8996 31.6358 18.7507C31.3691 18.6019 31.1521 18.3787 30.9785 18.0811C30.8111 17.7834 30.7305 17.4796 30.7367 17.1758C30.7491 16.8719 30.8421 16.5867 31.0219 16.3201C31.2017 16.0535 31.4497 15.8302 31.7784 15.6442L33.1363 14.8691L34.8415 17.8641ZM32.138 16.1961C31.8404 16.3635 31.6482 16.5867 31.5675 16.8533C31.4869 17.12 31.5241 17.399 31.6854 17.6842C31.8466 17.9695 32.0636 18.1431 32.3364 18.2113C32.6093 18.2795 32.8945 18.2237 33.1921 18.0563L33.8246 17.6966L32.7705 15.8426L32.138 16.1961Z" fill="#C2A375"/>
<path d="M27.5619 19.1537L27.196 18.6329L29.3787 17.1013L31.3505 19.9164L29.2237 21.4108L28.8578 20.8899L30.3398 19.8544L29.9119 19.2405L28.6036 20.1582L28.2502 19.6498L29.5585 18.7321L29.0996 18.081L27.5619 19.1537Z" fill="#C2A375"/>
<path d="M26.2412 23.8849L24.0151 21.2621L24.5112 20.8404L27.1713 21.3241L25.8195 19.7305L26.4148 19.222L28.6408 21.8449L28.1386 22.2728L25.4847 21.7891L26.8364 23.3827L26.2412 23.8849Z" fill="#C2A375"/>
<path d="M24.7096 24.4926L25.4847 23.7114L25.9436 24.164L23.8415 26.297L23.3827 25.8444L24.1578 25.0631L22.1674 23.1037L22.7254 22.5394L24.7096 24.4926Z" fill="#C2A375"/>
<path d="M20.208 26.4085L21.2373 25.187L20.8714 24.4801L21.3985 23.8539L23.0479 27.2394L22.5456 27.8409L18.9244 26.8054L19.4639 26.1667L20.208 26.4085ZM20.8342 26.607L22.1922 27.0348L21.5349 25.7699L20.8342 26.607Z" fill="#C2A375"/>
<path d="M21.3426 29.3415L20.8838 29.9926L18.6019 28.3866L17.6098 29.7942L17.0828 29.4221L18.5337 27.3635L21.3426 29.3415Z" fill="#C2A375"/>
<path d="M17.7029 35.1948L17.0581 36.6148C16.903 36.9558 16.7046 37.2287 16.4566 37.4271C16.2086 37.6317 15.9357 37.7495 15.6319 37.7867C15.3281 37.8239 15.0242 37.7743 14.708 37.6317C14.398 37.4891 14.1562 37.2907 13.9825 37.0426C13.8151 36.7884 13.7221 36.5032 13.7097 36.187C13.6973 35.8645 13.7717 35.5359 13.9267 35.1948L14.5716 33.7749L17.7029 35.1948ZM14.5344 35.4305C14.3918 35.7405 14.367 36.0319 14.4538 36.2986C14.5406 36.5652 14.739 36.7636 15.0366 36.9C15.3343 37.0364 15.6133 37.0488 15.8737 36.9434C16.1342 36.838 16.3326 36.6272 16.4752 36.311L16.779 35.6475L14.8382 34.767L14.5344 35.4305Z" fill="#C2A375"/>
<path d="M16.0845 38.9339L15.8055 39.678L12.5812 38.4813L12.8602 37.7372L16.0845 38.9339Z" fill="#C2A375"/>
<path d="M12.2649 41.8977L12.7175 40.3662L12.0975 39.8639L12.3269 39.0826L15.1978 41.5257L14.9746 42.2822L11.2356 42.7844L11.4712 41.9845L12.2649 41.8977ZM12.916 41.8295L14.3359 41.6745L13.226 40.7816L12.916 41.8295Z" fill="#C2A375"/>
<path d="M12.4261 45.9405L12.2835 46.6536L10.9132 46.387C10.8078 46.1762 10.7458 45.9467 10.721 45.6863C10.6962 45.4321 10.7024 45.1779 10.752 44.936C10.8202 44.5826 10.9566 44.285 11.1612 44.0369C11.3658 43.7889 11.6138 43.6091 11.9115 43.4975C12.2091 43.3921 12.5253 43.3673 12.8602 43.4355C13.195 43.5037 13.4802 43.6401 13.7159 43.8509C13.9515 44.0618 14.1127 44.3222 14.2057 44.6384C14.2987 44.9484 14.3111 45.2833 14.2429 45.6367C14.1871 45.9343 14.0817 46.1886 13.9329 46.4118C13.7841 46.635 13.6043 46.8086 13.381 46.9327L13.0152 46.3374C13.319 46.1452 13.4988 45.8785 13.5671 45.5375C13.6105 45.3205 13.6043 45.1221 13.5423 44.936C13.4864 44.75 13.381 44.595 13.2384 44.471C13.0896 44.347 12.916 44.2602 12.699 44.223C12.4881 44.1796 12.2959 44.192 12.1099 44.254C11.9301 44.316 11.7751 44.4214 11.6511 44.5702C11.527 44.719 11.4464 44.8988 11.403 45.1097C11.3596 45.3329 11.3658 45.5437 11.4278 45.7483L12.4261 45.9405Z" fill="#C2A375"/>
<path d="M13.5174 50.8266L10.0946 50.498L10.1566 49.8469L12.395 48.3402L10.3178 48.1418L10.3922 47.3605L13.815 47.6891L13.753 48.3464L11.5146 49.8531L13.5918 50.0516L13.5174 50.8266Z" fill="#C2A375"/>
<path d="M10.2125 52.3644C10.3613 52.0792 10.5721 51.8498 10.845 51.6886C11.1116 51.5211 11.4154 51.4405 11.7565 51.4343C12.0913 51.4343 12.3951 51.5087 12.668 51.67C12.9408 51.8312 13.1516 52.0544 13.3128 52.3396C13.4678 52.6249 13.5484 52.9473 13.5546 53.3007C13.5546 53.6604 13.4802 53.9828 13.3314 54.268C13.1826 54.5533 12.9718 54.7827 12.699 54.9439C12.4323 55.1113 12.1285 55.1919 11.7875 55.1981C11.4526 55.2043 11.1426 55.1237 10.876 54.9625C10.6031 54.8013 10.3923 54.5781 10.2311 54.2928C10.0761 54.0076 9.99548 53.6914 9.99548 53.3317C9.98927 52.9783 10.0637 52.6559 10.2125 52.3644ZM10.814 53.8774C10.907 54.0386 11.0372 54.1688 11.2108 54.2618C11.3782 54.3548 11.5704 54.3982 11.7813 54.3982C11.9921 54.3982 12.1843 54.3486 12.3517 54.2556C12.5191 54.1626 12.6494 54.0324 12.7424 53.865C12.8354 53.6976 12.8788 53.5177 12.8788 53.3131C12.8788 53.1085 12.8292 52.9287 12.7362 52.7613C12.6432 52.6 12.5129 52.4698 12.3393 52.3768C12.1719 52.2838 11.9797 52.2404 11.7689 52.2404C11.558 52.2404 11.3658 52.29 11.1984 52.383C11.031 52.476 10.9008 52.6063 10.8078 52.7737C10.7147 52.9411 10.6713 53.1209 10.6713 53.3255C10.6713 53.5301 10.721 53.7162 10.814 53.8774Z" fill="#C2A375"/>
<path d="M10.2373 56.4506C10.2869 56.1902 10.3613 55.9794 10.4605 55.812L11.0868 56.0228C10.9938 56.1778 10.9255 56.3638 10.8821 56.5746C10.8387 56.7855 10.8263 56.9901 10.8449 57.1885C10.8697 57.4117 10.9193 57.5791 10.9938 57.6783C11.0682 57.7776 11.1674 57.821 11.279 57.8148C11.3596 57.8086 11.4278 57.7652 11.4712 57.697C11.5208 57.6287 11.5518 57.5419 11.5766 57.4365C11.6014 57.3311 11.62 57.1947 11.6448 57.0211C11.682 56.7545 11.7192 56.5312 11.7626 56.3638C11.806 56.1902 11.8928 56.0414 12.0169 55.905C12.1409 55.7748 12.3207 55.6941 12.5439 55.6693C12.7423 55.6507 12.9284 55.6817 13.102 55.7747C13.2756 55.8678 13.4182 56.0166 13.536 56.2212C13.6538 56.4258 13.7282 56.6862 13.7592 57.0025C13.784 57.2195 13.7778 57.4365 13.7468 57.6535C13.7158 57.8644 13.66 58.0566 13.5794 58.224L12.9532 58.038C13.102 57.7032 13.1578 57.3807 13.1268 57.0645C13.102 56.8413 13.0524 56.68 12.9718 56.587C12.8912 56.4878 12.7919 56.4444 12.6741 56.4568C12.5563 56.4692 12.4757 56.5374 12.4323 56.6676C12.3889 56.7979 12.3517 56.9901 12.3207 57.2443C12.2835 57.5109 12.2463 57.7342 12.2029 57.9016C12.1595 58.0752 12.0727 58.224 11.9549 58.3604C11.8308 58.4906 11.6572 58.5712 11.4278 58.596C11.2356 58.6146 11.0496 58.5774 10.8759 58.4844C10.7023 58.3914 10.5597 58.2426 10.4419 58.0318C10.3241 57.821 10.2497 57.5605 10.2187 57.2505C10.1753 56.9777 10.1877 56.711 10.2373 56.4506Z" fill="#C2A375"/>
<path d="M13.4183 59.7493L13.2199 58.6642L13.8585 58.5464L14.398 61.4979L13.7593 61.6157L13.5609 60.5306L10.814 61.0328L10.6714 60.2516L13.4183 59.7493Z" fill="#C2A375"/>
<path d="M14.522 61.9445L14.708 62.7195L11.3658 63.5318L11.1798 62.7567L14.522 61.9445Z" fill="#C2A375"/>
<path d="M13.288 65.3548L12.6927 65.0572L11.8618 65.3176L11.6262 64.5612L14.9064 63.5319L15.142 64.2883L13.6104 64.772L15.6008 65.7455L15.8675 66.5888L13.9763 65.6897L12.6121 67.6987L12.3331 66.812L13.288 65.3548Z" fill="#C2A375"/>
<path d="M14.5096 70.3463L13.8833 68.8768L13.0834 68.883L12.761 68.1327L16.5248 68.1947L16.8348 68.9202L14.2739 71.6857L13.9453 70.9168L14.5096 70.3463ZM14.9622 69.8751L15.9605 68.8582L14.5344 68.8706L14.9622 69.8751Z" fill="#C2A375"/>
<path d="M17.6409 70.6688L18.0129 71.3695L15.5513 72.684L16.3635 74.2094L15.7931 74.5132L14.6088 72.2872L17.6409 70.6688Z" fill="#C2A375"/>
<path d="M17.8517 75.5053L16.8162 76.1502L16.3945 75.4743L17.4362 74.8233L18.602 72.5228L19.0484 73.2421L18.2423 74.8295L20.0219 74.7985L20.4374 75.4619L17.8517 75.5053Z" fill="#C2A375"/>
<path d="M19.7615 80.8626C19.5817 80.8564 19.4205 80.813 19.2655 80.7324C19.1105 80.6517 18.9802 80.5339 18.8624 80.3789C18.7074 80.1743 18.6144 79.9573 18.571 79.7279C18.5338 79.4984 18.5462 79.1946 18.6082 78.8102C18.4532 78.5373 18.3602 78.2583 18.3416 77.9669C18.323 77.6754 18.3726 77.3964 18.4904 77.136C18.6082 76.8756 18.7942 76.6523 19.036 76.4663C19.3027 76.2617 19.5941 76.1439 19.9103 76.1067C20.2204 76.0695 20.5304 76.1191 20.8218 76.2555C21.1195 76.3919 21.3737 76.6027 21.5907 76.8818C21.8077 77.167 21.9379 77.4708 21.9876 77.7871C22.0372 78.1095 22.0062 78.4133 21.8883 78.711C21.7705 79.0024 21.5783 79.2566 21.3117 79.4612C20.9954 79.703 20.6482 79.8271 20.27 79.8271C19.8917 79.8333 19.5445 79.7217 19.2283 79.4984C19.2097 79.6162 19.2097 79.7155 19.2283 79.8023C19.2469 79.8891 19.2779 79.9635 19.3337 80.0317C19.4639 80.1991 19.6437 80.2983 19.8793 80.3231L19.7615 80.8626ZM19.1601 77.5638C19.0857 77.7374 19.0608 77.9173 19.0857 78.1095C19.1105 78.2955 19.1849 78.4691 19.3089 78.6303C19.4329 78.7916 19.5817 78.9094 19.7553 78.9838C19.9289 79.0582 20.1088 79.083 20.301 79.052C20.4932 79.0272 20.673 78.9466 20.8404 78.8164C21.0078 78.6861 21.1319 78.5373 21.2125 78.3575C21.2869 78.1839 21.3117 78.0041 21.2869 77.8119C21.2621 77.6258 21.1877 77.4522 21.0637 77.291C20.9396 77.1298 20.7908 77.012 20.6172 76.9376C20.4436 76.8632 20.2638 76.8384 20.0716 76.8694C19.8793 76.8942 19.6995 76.9748 19.5321 77.105C19.3585 77.2352 19.2345 77.3902 19.1601 77.5638Z" fill="#C2A375"/>
<path d="M22.0806 82.5864C21.9876 82.2764 21.9752 81.9664 22.0558 81.6625C22.1302 81.3587 22.2914 81.0859 22.527 80.8441C22.7626 80.6022 23.0355 80.4472 23.3455 80.3728C23.6493 80.2984 23.9594 80.3046 24.2694 80.3976C24.5794 80.4906 24.8647 80.6642 25.1189 80.9185C25.3731 81.1727 25.5467 81.4517 25.6397 81.7618C25.7328 82.0718 25.739 82.3818 25.6645 82.6857C25.5901 82.9957 25.4351 83.2685 25.1933 83.5041C24.9577 83.746 24.6848 83.901 24.3748 83.9754C24.0648 84.0498 23.7609 84.0436 23.4509 83.9506C23.1409 83.8576 22.8557 83.684 22.6076 83.4359C22.3534 83.1817 22.1736 82.8965 22.0806 82.5864ZM23.5687 83.2437C23.7485 83.2933 23.9346 83.2933 24.1206 83.2375C24.3066 83.1879 24.474 83.0825 24.6228 82.9337C24.7717 82.7849 24.8771 82.6175 24.9267 82.4314C24.9763 82.2454 24.9825 82.0656 24.9267 81.8796C24.8771 81.6998 24.7779 81.5323 24.6352 81.3897C24.4926 81.2471 24.3314 81.1479 24.1454 81.0983C23.9656 81.0487 23.7795 81.0487 23.5935 81.1045C23.4075 81.1541 23.2401 81.2595 23.0913 81.4083C22.9425 81.5571 22.8371 81.7246 22.7874 81.9106C22.7378 82.0966 22.7316 82.2764 22.7874 82.4624C22.8371 82.6423 22.9363 82.8097 23.0789 82.9523C23.2277 83.0949 23.3889 83.1941 23.5687 83.2437Z" fill="#C2A375"/>
<path d="M26.3776 86.7098L26.4706 85.5503L26.4396 85.5255L25.9063 85.0852L25.2987 85.8293L24.6848 85.3271L26.8674 82.667L28.0208 83.6095C28.2564 83.8017 28.43 84.0125 28.5354 84.2296C28.647 84.4528 28.6842 84.6698 28.6594 84.893C28.6346 85.1163 28.5416 85.3271 28.3804 85.5193C28.2192 85.7177 28.0332 85.8479 27.8223 85.9161C27.6115 85.9843 27.3821 85.9781 27.1465 85.9161L27.0411 87.2617L26.3776 86.7098ZM27.8905 84.5458C27.8595 84.3846 27.7541 84.2296 27.5681 84.0807L27.0659 83.6715L26.3032 84.6016L26.8054 85.0108C26.9915 85.1597 27.1651 85.2403 27.3263 85.2341C27.4875 85.2341 27.6301 85.1597 27.7541 85.0108C27.8781 84.8558 27.9216 84.7008 27.8905 84.5458Z" fill="#C2A375"/>
<path d="M29.9305 85.8727L29.0252 85.2464L29.3911 84.7131L31.8589 86.4121L31.4931 86.9454L30.5878 86.3191L29.0066 88.6195L28.3494 88.1669L29.9305 85.8727Z" fill="#C2A375"/>
<path d="M32.5906 89.9589L31.2079 89.159L30.5754 89.6427L29.8685 89.2334L32.913 87.0198L33.5951 87.4104L33.2045 91.1618L32.479 90.7464L32.5906 89.9589ZM32.6774 89.3078L32.8634 87.8941L31.7349 88.7622L32.6774 89.3078Z" fill="#C2A375"/>
<path d="M35.2755 88.3282L35.9948 88.6693L34.8105 91.1991L36.373 91.9308L36.1002 92.5199L33.8184 91.4472L35.2755 88.3282Z" fill="#C2A375"/>
<path d="M38.3573 92.0859L37.917 93.2206L37.173 92.9354L37.6132 91.7882L37.1667 89.246L37.9542 89.5498L38.2581 91.3046L39.6656 90.2133L40.3973 90.4923L38.3573 92.0859Z" fill="#C2A375"/>
<path d="M43.1008 95.2295C42.9581 95.3287 42.7969 95.3969 42.6233 95.4217C42.4497 95.4465 42.2699 95.4341 42.09 95.3845C41.842 95.3163 41.6374 95.1985 41.47 95.0373C41.3026 94.8761 41.129 94.6218 40.9491 94.2808C40.6639 94.1568 40.4221 93.9832 40.2299 93.7599C40.0376 93.5367 39.9136 93.2887 39.8516 93.0035C39.7896 92.7244 39.802 92.433 39.8888 92.1354C39.9818 91.8129 40.1431 91.5401 40.3725 91.3231C40.6019 91.1061 40.8747 90.9634 41.1972 90.8952C41.5134 90.827 41.8482 90.8394 42.1893 90.9387C42.5303 91.0379 42.8217 91.1991 43.0511 91.4285C43.2806 91.6579 43.4418 91.9184 43.5224 92.2284C43.603 92.5322 43.5968 92.8484 43.51 93.1709C43.3984 93.5553 43.1938 93.8592 42.8961 94.0886C42.5985 94.318 42.2513 94.4358 41.8668 94.4482C41.9226 94.5536 41.9784 94.6342 42.0466 94.69C42.1086 94.7458 42.1831 94.7892 42.2699 94.8141C42.4745 94.8699 42.6791 94.8388 42.8775 94.721L43.1008 95.2295ZM40.6391 92.9477C40.6825 93.1337 40.7693 93.2949 40.9057 93.4313C41.0359 93.5677 41.2034 93.6607 41.3956 93.7165C41.594 93.7723 41.78 93.7785 41.966 93.7351C42.1521 93.6917 42.3071 93.5987 42.4435 93.4685C42.5799 93.3321 42.6791 93.1647 42.7349 92.9601C42.7907 92.7554 42.8031 92.557 42.7597 92.371C42.7163 92.185 42.6295 92.0238 42.4993 91.8873C42.3691 91.7509 42.2017 91.6579 42.0094 91.6021C41.811 91.5463 41.625 91.5401 41.439 91.5835C41.253 91.6269 41.0979 91.7199 40.9615 91.8501C40.8251 91.9866 40.7259 92.154 40.6701 92.3586C40.6081 92.5694 40.5957 92.7616 40.6391 92.9477Z" fill="#C2A375"/>
<path d="M51.7567 95.3411L51.6513 96.6991L50.9135 96.6433L50.9693 95.9302L48.551 95.7504L48.4952 96.4635L47.7573 96.4077L47.8627 95.0497L47.9992 95.0621C48.2038 95.0683 48.365 94.9319 48.4704 94.6467C48.5758 94.3614 48.6626 93.946 48.7246 93.4004L48.8424 92.3276L51.4777 92.5261L51.2669 95.3102L51.7567 95.3411ZM49.2455 94.5413C49.1711 94.8141 49.0781 95.0125 48.9603 95.1303L50.4918 95.2481L50.653 93.1089L49.4749 93.0221L49.4253 93.5182C49.3757 93.9274 49.3199 94.2684 49.2455 94.5413Z" fill="#C2A375"/>
<path d="M52.4451 92.5569L53.2387 92.5383L53.3008 94.7768L54.8819 92.4949L55.626 92.4763L55.719 95.9177L54.9315 95.9363L54.8695 93.704L53.2884 95.9859L52.5381 96.0045L52.4451 92.5569Z" fill="#C2A375"/>
<path d="M59.0797 94.7892L57.4924 94.9938L57.2815 95.7627L56.4755 95.8681L57.5606 92.2594L58.3419 92.1602L60.3013 95.3783L59.4704 95.4837L59.0797 94.7892ZM58.7573 94.225L58.0504 92.9848L57.6784 94.3614L58.7573 94.225Z" fill="#C2A375"/>
<path d="M62.8063 91.9741L61.2066 92.3214L61.8018 95.0497L61.0267 95.2171L60.3013 91.8563L62.6761 91.3417L62.8063 91.9741Z" fill="#C2A375"/>
<path d="M66.1237 90.3125L67.1344 93.5988L66.3718 93.8345L65.9563 92.4827L64.4619 92.9416L64.8774 94.2871L64.1147 94.5227L63.104 91.2364L63.8667 91.0008L64.2635 92.2967L65.7579 91.8379L65.361 90.5419L66.1237 90.3125Z" fill="#C2A375"/>
<path d="M68.759 92.7987C68.4365 92.7677 68.1451 92.6623 67.8909 92.4701C67.6366 92.2841 67.4444 92.0361 67.3142 91.726C67.184 91.416 67.1406 91.106 67.184 90.7897C67.2274 90.4797 67.3514 90.1945 67.556 89.9403C67.7607 89.686 68.0273 89.4938 68.3559 89.3512C68.6845 89.2148 69.0132 89.159 69.3356 89.19C69.658 89.221 69.9495 89.3326 70.2037 89.5186C70.4579 89.7046 70.6501 89.9527 70.7866 90.2627C70.9168 90.5727 70.9602 90.8828 70.9106 91.199C70.8672 91.509 70.737 91.7942 70.5385 92.0485C70.3339 92.3027 70.0673 92.4949 69.7387 92.6375C69.41 92.7739 69.0814 92.8297 68.759 92.7987ZM69.9309 91.6702C70.0487 91.5214 70.1169 91.3478 70.1355 91.1618C70.1541 90.9696 70.1293 90.7773 70.0425 90.5851C69.9619 90.3867 69.8441 90.2317 69.6891 90.1139C69.5402 89.9961 69.3666 89.9279 69.1806 89.9031C68.9946 89.8783 68.8086 89.9093 68.6163 89.9899C68.4303 90.0705 68.2815 90.1821 68.1637 90.3309C68.0459 90.4797 67.9777 90.6533 67.9591 90.8393C67.9405 91.0316 67.9653 91.2238 68.0521 91.4222C68.1327 91.6206 68.2505 91.7756 68.4055 91.8934C68.5543 92.0113 68.728 92.0795 68.914 92.1043C69.1 92.1291 69.286 92.0981 69.4782 92.0175C69.6643 91.9307 69.8131 91.819 69.9309 91.6702Z" fill="#C2A375"/>
<path d="M72.8017 90.951C72.4793 90.951 72.1817 90.8704 71.915 90.7091C71.6422 90.5479 71.4252 90.3185 71.264 90.0209C71.1028 89.7232 71.0284 89.4132 71.0408 89.097C71.0532 88.7807 71.1524 88.4893 71.326 88.2227C71.5058 87.956 71.7476 87.7328 72.0577 87.5654C72.3181 87.4228 72.5847 87.3422 72.8451 87.3174C73.1056 87.2926 73.3536 87.3298 73.5954 87.429L73.3722 88.0863C73.0374 87.9622 72.7211 87.9808 72.4173 88.1421C72.2313 88.2413 72.0825 88.3777 71.9833 88.5389C71.884 88.7001 71.8282 88.8799 71.8282 89.066C71.8282 89.2582 71.8778 89.4442 71.9771 89.6364C72.0763 89.8224 72.2065 89.9713 72.3739 90.0705C72.5351 90.1759 72.7149 90.2255 72.9009 90.2255C73.0932 90.2255 73.2792 90.1759 73.4714 90.0767C73.7752 89.9155 73.9613 89.655 74.0357 89.3078L74.7115 89.4814C74.6619 89.7356 74.5565 89.9651 74.3953 90.1759C74.2341 90.3805 74.0171 90.5603 73.7566 90.7029C73.4404 90.8704 73.1242 90.951 72.8017 90.951Z" fill="#C2A375"/>
<path d="M76.423 85.6867L75.5053 86.2944L77.0431 88.6258L76.3858 89.0599L74.848 86.7284L73.9365 87.3361L73.5769 86.7966L76.0634 85.1534L76.423 85.6867Z" fill="#C2A375"/>
<path d="M76.4292 84.8868L77.0493 84.3907L78.4506 86.1393L78.3328 83.3614L78.9157 82.8964L81.0611 85.5812L80.4472 86.0711L79.0521 84.3225L79.1637 87.0942L78.5746 87.5654L76.4292 84.8868Z" fill="#C2A375"/>
<path d="M81.5137 80.4161L83.9071 82.884L83.3428 83.4296L82.481 82.5429C82.3445 82.8282 82.1833 83.0576 81.9973 83.2374C81.6625 83.5599 81.3338 83.7273 81.0052 83.7397C80.6766 83.7521 80.3665 83.6095 80.0751 83.3118L79.3248 82.5368L79.8891 81.9911L80.5774 82.698C80.7448 82.8654 80.9122 82.9522 81.0858 82.9522C81.2594 82.9522 81.433 82.8654 81.6067 82.698C81.7927 82.5181 81.9353 82.3073 82.0283 82.0779L80.9494 80.968L81.5137 80.4161Z" fill="#C2A375"/>
<path d="M85.9223 79.6472L86.406 80.0627L84.6636 82.0779L82.0656 79.8271L83.7645 77.8615L84.2482 78.2769L83.0639 79.6472L83.6281 80.1371L84.676 78.928L85.1411 79.331L84.0932 80.5401L84.6946 81.061L85.9223 79.6472Z" fill="#C2A375"/>
<path d="M87.1997 78.7357C86.9083 78.8784 86.6106 78.9342 86.2944 78.9032C85.9782 78.8784 85.6867 78.7605 85.4077 78.5621C85.1349 78.3637 84.9303 78.1157 84.8062 77.8242C84.6822 77.5328 84.645 77.229 84.6884 76.9127C84.7318 76.5965 84.8558 76.2927 85.0667 76.0075C85.2403 75.7656 85.4449 75.5796 85.6681 75.4432C85.8976 75.313 86.1332 75.2324 86.3936 75.22L86.4742 75.9082C86.1208 75.9392 85.8417 76.0943 85.6371 76.3733C85.5131 76.5469 85.4387 76.7267 85.4139 76.919C85.3891 77.1112 85.4201 77.291 85.5007 77.4646C85.5813 77.6382 85.7053 77.787 85.879 77.9111C86.0526 78.0351 86.2324 78.1095 86.4246 78.1343C86.6168 78.1591 86.7966 78.1281 86.9703 78.0475C87.1439 77.9669 87.2927 77.8428 87.4167 77.6692C87.6213 77.3902 87.6771 77.0802 87.5965 76.7267L88.2786 76.5903C88.3468 76.8383 88.3468 77.0926 88.291 77.353C88.2352 77.6134 88.1174 77.8614 87.9438 78.1033C87.7391 78.3885 87.4911 78.5993 87.1997 78.7357Z" fill="#C2A375"/>
<path d="M88.6382 74.4139L88.353 74.8851L89.5435 75.5982L89.1342 76.2741L86.1827 74.5069L86.592 73.831L87.7825 74.5441L88.0739 74.0542L87.3485 72.5661L87.7825 71.8468L88.6258 73.6636L90.7464 73.583L90.2814 74.3581L88.6382 74.4139Z" fill="#C2A375"/>
<path d="M88.0057 71.4252L88.3468 70.7121L90.3682 71.6794L89.0536 69.2302L89.3761 68.5543L92.4826 70.0363L92.1416 70.7431L90.1202 69.7821L91.4347 72.2251L91.1123 72.901L88.0057 71.4252Z" fill="#C2A375"/>
<path d="M88.973 66.9049L89.159 66.3902C89.3885 66.4647 89.5435 66.3778 89.6365 66.1298C89.6799 66.0058 89.6861 65.9004 89.6551 65.8136C89.6179 65.7268 89.5497 65.6648 89.4381 65.6214L89.6241 65.1067C89.8535 65.1935 90.0023 65.3299 90.0705 65.5222C90.1387 65.7144 90.1201 65.9562 90.0085 66.26C89.7915 66.8553 89.4505 67.0661 88.973 66.9049ZM89.6737 67.8288L89.9403 67.0847L92.0485 67.8412L90.4922 65.5408L90.7464 64.8401L93.9831 66.0058L93.7165 66.7437L91.6145 65.9872L93.1647 68.2876L92.9104 68.9945L89.6737 67.8288Z" fill="#C2A375"/>
<path d="M94.8079 59.9292L96.1534 60.2207L95.9984 60.9337L95.2853 60.7787L94.6839 63.5876L91.3231 62.8683L91.4905 62.0933L94.2188 62.6823L94.5413 61.1818L91.813 60.5927L91.9804 59.8176L94.7087 60.4067L94.8079 59.9292Z" fill="#C2A375"/>
<path d="M95.2172 56.5313L95.8496 56.6057L95.5396 59.2534L92.123 58.8503L92.4269 56.2709L93.0593 56.3453L92.8485 58.1435L93.5926 58.2303L93.7786 56.6429L94.3925 56.7173L94.2065 58.3047L95.0001 58.3977L95.2172 56.5313Z" fill="#C2A375"/>
<path d="M92.5633 52.4326L96.0046 52.5194L95.986 53.3131L94.5785 53.2759L94.5413 54.8385L95.9488 54.8757L95.9302 55.6694L92.4889 55.5825L92.5075 54.7889L93.8654 54.8199L93.9026 53.2573L92.5447 53.2263L92.5633 52.4326Z" fill="#C2A375"/>
<path d="M93.0097 48.9603L93.0841 50.0578L95.8682 49.878L95.9178 50.6655L93.1275 50.8453L93.1957 51.9366L92.5509 51.98L92.3586 49.0037L93.0097 48.9603Z" fill="#C2A375"/>
<path d="M92.1168 46.2692C92.185 46.0336 92.3028 45.8414 92.4702 45.6926C92.6377 45.5438 92.8485 45.4508 93.1027 45.4136C93.3507 45.3763 93.5801 45.4012 93.7848 45.4942C93.9894 45.5872 94.1568 45.736 94.287 45.9406C94.4172 46.1452 94.5102 46.3995 94.5536 46.7033L94.6591 47.3854L95.5954 47.2427L95.7132 48.0302L92.309 48.5387L92.092 47.0629C92.0424 46.7777 92.0486 46.5049 92.1168 46.2692ZM93.6794 46.3312C93.5615 46.2258 93.4065 46.1824 93.2143 46.2134C93.0221 46.2444 92.8857 46.325 92.7989 46.4615C92.7121 46.5979 92.6934 46.7901 92.7245 47.0257L92.8175 47.6706L93.9956 47.497L93.9026 46.8521C93.8778 46.6103 93.8034 46.4367 93.6794 46.3312Z" fill="#C2A375"/>
<path d="M90.7837 41.2716L90.2628 39.7958C90.1388 39.4424 90.0954 39.1075 90.1326 38.7913C90.1698 38.4751 90.2876 38.1961 90.4737 37.9604C90.6659 37.7248 90.9201 37.5512 91.2487 37.4334C91.5712 37.3156 91.8812 37.2908 92.1788 37.3528C92.4765 37.4148 92.7369 37.5574 92.9725 37.7806C93.2019 38.0038 93.3818 38.2891 93.5058 38.6425L94.0266 40.1121L90.7837 41.2716ZM92.8981 38.9091C92.7803 38.5867 92.6005 38.3573 92.3525 38.2271C92.1044 38.0968 91.8254 38.0906 91.5154 38.1961C91.2053 38.3077 90.9945 38.4875 90.8829 38.7479C90.7713 39.0021 90.7713 39.2936 90.8891 39.6222L91.1309 40.3105L93.1399 39.5974L92.8981 38.9091Z" fill="#C2A375"/>
<path d="M89.3451 37.4395L89.0227 36.7078L92.1726 35.3251L92.4951 36.0567L89.3451 37.4395Z" fill="#C2A375"/>
<path d="M90.0271 32.6588L90.7712 34.0725L91.5649 33.9981L91.9431 34.7236L88.1855 34.9654L87.8197 34.2709L90.1511 31.3132L90.5418 32.0511L90.0271 32.6588ZM89.6117 33.161L88.7002 34.2585L90.1201 34.1283L89.6117 33.161Z" fill="#C2A375"/>
<path d="M87.1004 29.8623L86.7036 29.2546L87.8755 28.4919C88.0987 28.5726 88.3034 28.6966 88.5018 28.8578C88.7002 29.0252 88.8676 29.2112 88.9978 29.4158C89.1901 29.7135 89.3017 30.0235 89.3327 30.3459C89.3575 30.6684 89.3017 30.9722 89.1653 31.2512C89.0288 31.5365 88.8118 31.7659 88.5266 31.9519C88.2414 32.1379 87.9375 32.2371 87.6275 32.2495C87.3113 32.2619 87.0136 32.1875 86.7284 32.0263C86.4432 31.8651 86.2014 31.6357 86.0091 31.3318C85.8417 31.0776 85.7363 30.8234 85.6929 30.563C85.6433 30.3025 85.6557 30.0483 85.7239 29.8003L86.3998 29.9739C86.3192 30.3211 86.3688 30.6374 86.561 30.9288C86.6788 31.1148 86.8276 31.2512 86.995 31.3442C87.1624 31.4372 87.3485 31.4807 87.5407 31.4683C87.7329 31.4559 87.9189 31.3938 88.0987 31.276C88.2786 31.1582 88.4088 31.0156 88.5018 30.8482C88.5886 30.6746 88.6258 30.4948 88.6134 30.3025C88.601 30.1103 88.5328 29.9243 88.415 29.7445C88.291 29.5523 88.136 29.4034 87.9561 29.3042L87.1004 29.8623Z" fill="#C2A375"/>
<path d="M82.9213 27.1092L85.6123 24.9637L86.0216 25.4722L85.4635 28.1137L87.0943 26.8115L87.5841 27.4254L84.8931 29.5708L84.4838 29.0562L85.0481 26.4147L83.4173 27.7168L82.9213 27.1092Z" fill="#C2A375"/>
<path d="M84.2296 23.7236C84.3226 24.0336 84.3288 24.3436 84.2482 24.6475C84.1676 24.9513 84.0064 25.2241 83.7708 25.4598C83.529 25.6954 83.2561 25.8504 82.9523 25.9248C82.6485 25.9992 82.3384 25.9868 82.0284 25.8938C81.7184 25.7946 81.4393 25.621 81.1851 25.3667C80.9309 25.1125 80.7635 24.8273 80.6766 24.5173C80.5836 24.2072 80.5836 23.8972 80.658 23.5934C80.7387 23.2895 80.8937 23.0167 81.1355 22.7811C81.3773 22.5455 81.6501 22.3904 81.9602 22.316C82.2702 22.2416 82.574 22.254 82.8841 22.347C83.1941 22.44 83.4731 22.6199 83.7212 22.8741C83.9692 23.1283 84.1428 23.4073 84.2296 23.7236ZM82.7539 23.0539C82.5741 23.0043 82.388 23.0043 82.202 23.0539C82.016 23.1035 81.8486 23.2027 81.6998 23.3515C81.5447 23.5004 81.4455 23.6678 81.3897 23.8538C81.3339 24.0398 81.3339 24.2196 81.3835 24.4056C81.4331 24.5855 81.5261 24.7529 81.6688 24.8955C81.8114 25.0381 81.9726 25.1373 82.1524 25.1931C82.3322 25.2427 82.5182 25.2427 82.7043 25.1931C82.8903 25.1435 83.0577 25.0443 83.2065 24.8955C83.3615 24.7467 83.4607 24.5793 83.5165 24.3932C83.5724 24.2072 83.5724 24.0274 83.5227 23.8414C83.4731 23.6616 83.3801 23.4942 83.2375 23.3515C83.0949 23.2027 82.9337 23.1035 82.7539 23.0539Z" fill="#C2A375"/>
<path d="M81.3773 20.7969C81.5262 21.0202 81.6192 21.2248 81.6564 21.4108L81.0611 21.696C81.0177 21.5162 80.9433 21.3364 80.8255 21.1566C80.7139 20.9768 80.5775 20.8217 80.4224 20.6853C80.2488 20.5365 80.1 20.4559 79.976 20.4373C79.852 20.4187 79.7528 20.4497 79.6784 20.5365C79.6226 20.5985 79.604 20.6729 79.6164 20.7535C79.6288 20.8341 79.666 20.9209 79.7218 21.014C79.7776 21.1008 79.8582 21.2186 79.9636 21.3612C80.1248 21.5782 80.2488 21.7642 80.3356 21.9192C80.4224 22.0743 80.4658 22.2417 80.4721 22.4277C80.4721 22.6075 80.4038 22.7873 80.255 22.961C80.1248 23.116 79.9698 23.2152 79.7776 23.271C79.5916 23.3268 79.3807 23.3144 79.1575 23.2462C78.9281 23.178 78.6925 23.0416 78.4568 22.8369C78.2894 22.6943 78.1406 22.5393 78.0166 22.3595C77.8926 22.1859 77.7996 22.0061 77.7438 21.8324L78.3204 21.5286C78.4444 21.8696 78.6305 22.1425 78.8723 22.3533C79.0397 22.4959 79.1947 22.5765 79.3187 22.5889C79.4489 22.6013 79.5482 22.5641 79.6226 22.4773C79.697 22.3843 79.7094 22.2789 79.6536 22.1549C79.5978 22.0309 79.4924 21.8696 79.3311 21.6588C79.1699 21.4418 79.0459 21.2558 78.9591 21.1008C78.8723 20.9457 78.8289 20.7783 78.8227 20.5985C78.8165 20.4187 78.8909 20.2389 79.0397 20.0653C79.1637 19.9164 79.3249 19.811 79.511 19.7614C79.697 19.7118 79.9078 19.718 80.1372 19.7862C80.3666 19.8544 80.6023 19.9908 80.8441 20.1955C81.0549 20.3753 81.2285 20.5737 81.3773 20.7969Z" fill="#C2A375"/>
<path d="M76.7825 20.6233L77.6754 21.2682L77.2972 21.7952L74.8604 20.0466L75.2386 19.5196L76.1315 20.1645L77.7622 17.895L78.4071 18.3601L76.7825 20.6233Z" fill="#C2A375"/>
<path d="M74.4759 19.8235L73.8 19.3957L75.6416 16.4875L76.3175 16.9154L74.4759 19.8235Z" fill="#C2A375"/>
<path d="M74.0418 15.731C74.2155 15.9976 74.3147 16.2952 74.3271 16.6053C74.3395 16.9215 74.2651 17.2253 74.1039 17.5292C73.9426 17.8268 73.7256 18.0562 73.4528 18.2174C73.18 18.3786 72.8823 18.4593 72.5661 18.4531C72.2437 18.4531 71.9274 18.3662 71.6174 18.1988C71.357 18.0562 71.1462 17.8826 70.9849 17.678C70.8237 17.4734 70.7183 17.2439 70.6687 16.9897L71.3446 16.8161C71.419 17.1633 71.6112 17.4175 71.915 17.585C72.101 17.6842 72.2933 17.7338 72.4855 17.7338C72.6777 17.7338 72.8513 17.678 73.0125 17.5788C73.1738 17.4796 73.304 17.3307 73.4094 17.1447C73.5086 16.9587 73.5582 16.7665 73.5582 16.5743C73.5582 16.382 73.5024 16.2084 73.4032 16.0472C73.2978 15.886 73.1552 15.7558 72.9691 15.6504C72.6653 15.4891 72.3491 15.4705 72.0142 15.5946L71.791 14.9373C72.0328 14.8381 72.2809 14.8009 72.5475 14.8257C72.8079 14.8505 73.0745 14.9311 73.335 15.0737C73.6202 15.2473 73.862 15.4643 74.0418 15.731Z" fill="#C2A375"/>
<path d="M69.3356 13.443C69.5402 13.691 69.6704 13.97 69.7262 14.2801C69.782 14.5901 69.7386 14.9063 69.6146 15.2226C69.4906 15.5388 69.3046 15.793 69.0504 15.9852C68.8023 16.1775 68.5171 16.2891 68.1947 16.3325C67.8723 16.3697 67.5498 16.3263 67.2212 16.1961C66.9422 16.0845 66.7127 15.9418 66.5267 15.7558C66.3407 15.5698 66.2105 15.3528 66.1299 15.111L66.7809 14.8567C66.8988 15.1916 67.1158 15.421 67.4382 15.5512C67.6366 15.6318 67.8288 15.6566 68.0211 15.6318C68.2133 15.607 68.3807 15.5326 68.5295 15.4148C68.6783 15.2908 68.7899 15.1358 68.8706 14.9373C68.9512 14.7389 68.976 14.5467 68.9512 14.3545C68.9264 14.1623 68.852 13.9948 68.7341 13.846C68.6101 13.6972 68.4551 13.5856 68.2567 13.505C67.9343 13.381 67.618 13.3996 67.3018 13.567L66.998 12.9407C67.2212 12.8167 67.4692 12.7485 67.7358 12.7361C68.0025 12.7299 68.2691 12.7795 68.5481 12.8849C68.8644 13.0089 69.131 13.195 69.3356 13.443Z" fill="#C2A375"/>
<path d="M63.6745 12.0168L63.8543 11.403L66.409 12.1594L65.4293 15.4582L62.9366 14.7141L63.1165 14.1002L64.8526 14.6149L65.0635 13.9018L63.5319 13.4492L63.7055 12.8539L65.2371 13.3066L65.4665 12.5439L63.6745 12.0168Z" fill="#C2A375"/>
<path d="M59.1418 13.9204L59.8115 10.5472L60.4502 10.6775L61.7275 13.0585L62.1368 11.0123L62.9056 11.1673L62.236 14.5405L61.5911 14.4102L60.32 12.0292L59.9107 14.0754L59.1418 13.9204Z" fill="#C2A375"/>
<path d="M57.7156 13.102L58.8069 13.2198L58.7387 13.8647L55.7562 13.5422L55.8244 12.8974L56.9158 13.0152L57.2134 10.2373L58.0071 10.3241L57.7156 13.102Z" fill="#C2A375"/>
<path d="M52.7488 10.6527L52.7675 10.014L55.4275 10.0884L55.3345 13.5298L52.7365 13.4616L52.7551 12.8229L54.5656 12.8663L54.5842 12.1223L52.9845 12.0789L53.0031 11.4588L54.5966 11.5022L54.6152 10.7085L52.7488 10.6527Z" fill="#C2A375"/>
<path d="M49.6238 10.1628L50.343 11.0805H50.3802L51.0747 11.0371L51.0189 10.0822L51.8126 10.0326L52.0234 13.4677L50.5353 13.5608C50.2314 13.5794 49.9648 13.5422 49.7354 13.4553C49.5059 13.3685 49.3261 13.2321 49.1897 13.0585C49.0595 12.8725 48.9851 12.6555 48.9665 12.4012C48.9541 12.147 48.9975 11.9238 49.1091 11.7316C49.2207 11.5393 49.3881 11.3843 49.6052 11.2727L48.7681 10.2186L49.6238 10.1628ZM49.9896 12.7857C50.1198 12.8787 50.3058 12.9221 50.5415 12.9097L51.1863 12.8725L51.1119 11.6758L50.467 11.713C50.2314 11.7254 50.0516 11.7936 49.9338 11.9052C49.816 12.0168 49.7602 12.1656 49.7726 12.3578C49.785 12.5439 49.8594 12.6865 49.9896 12.7857Z" fill="#C2A375"/>
<path d="M68.7219 35.7715C68.6413 35.4119 68.3436 35.139 67.9778 35.0894L58.497 33.7997C58.2862 33.7687 58.0754 33.8183 57.8955 33.9361L49.3697 39.4857L39.213 38.9462C39.0022 38.9338 38.7914 39.002 38.6239 39.1322L31.0592 44.9856C30.7677 45.2089 30.6437 45.5933 30.7553 45.9467C30.7801 46.0212 30.8173 46.0956 30.8545 46.1576L47.2428 71.6918C47.3979 71.9336 47.6583 72.0825 47.9373 72.0949C48.0303 72.1011 48.1233 72.0887 48.2101 72.0639C48.39 72.0142 48.5512 71.9088 48.669 71.76L55.6571 62.9985L66.0928 67.0909C66.2726 67.1591 66.4648 67.1715 66.6447 67.1219C66.7315 67.0971 66.8183 67.0599 66.8989 67.0103C67.1407 66.8553 67.2895 66.5949 67.3019 66.3097L68.7281 36.0009C68.7467 35.9327 68.7405 35.8521 68.7219 35.7715ZM40.0687 47.0071L42.673 56.0042L38.1403 54.2246L33.279 46.6536L40.0687 47.0071ZM43.293 58.1434L45.4571 65.6276L39.7649 56.7607L43.293 58.1434ZM45.3702 58.9557L51.081 61.1941L48.1357 68.5109L45.3702 58.9557ZM44.7502 56.8165L42.3505 48.5386L52.8668 56.7669L51.7445 59.5572L44.7502 56.8165ZM43.4914 47.1869L51.2733 47.5961C51.3663 47.6023 51.4593 47.5899 51.5461 47.5651C51.6329 47.5403 51.7197 47.5031 51.8003 47.4535L58.3358 43.2123L53.5613 55.0679L43.4914 47.1869ZM54.3116 57.9016L56.2648 59.4331L55.1115 60.8841L53.3877 60.2082L54.3116 57.9016ZM54.9998 56.2026L59.9914 43.8199L62.0562 52.1846L57.3747 58.0566L54.9998 56.2026ZM62.5832 54.3424L64.9643 64.003L58.7574 59.1417L62.5832 54.3424ZM63.9784 52.6062L66.3408 49.6485L65.8448 60.171L63.9784 52.6062ZM66.4772 46.635L63.4389 50.4422L61.2005 41.3459L66.8989 37.6441L66.4772 46.635ZM58.59 35.5979L65.3859 36.5218L59.948 40.0499L52.3646 39.6469L58.59 35.5979ZM57.4367 41.6869L51.0748 45.8165L43.4977 45.4197L49.8595 41.2777L57.4367 41.6869ZM39.4548 40.7258L46.8646 41.1226L40.5027 45.2647L34.0293 44.9236L39.4548 40.7258ZM51.0748 65.9438L52.7242 61.8452L53.9581 62.3288L51.0748 65.9438ZM57.6599 60.5245L61.1385 63.2527L56.829 61.56L57.6599 60.5245Z" fill="#C2A375"/>
</g>
<defs>
<clipPath id="clip0">
<rect width="106" height="106" fill="white"/>
</clipPath>
</defs>
</svg>
