<svg viewBox="0 0 196 113" fill="none" xmlns="http://www.w3.org/2000/svg">
<g clip-path="url(#clip0)">
<path d="M126.513 6.7033C126.535 6.16614 126.222 5.67374 125.73 5.46671L112.928 0.100677C112.642 -0.0168274 112.329 -0.0336137 112.033 0.0615088L98 4.63858L83.9672 0.0615088C83.6764 -0.0336137 83.3576 -0.0224228 83.0723 0.100677L70.27 5.46671C69.7779 5.67374 69.4647 6.16614 69.487 6.7033C69.4926 6.8208 69.515 6.93271 69.5485 7.03903L82.9325 49.0104C83.0556 49.4021 83.3632 49.7155 83.7603 49.8386C83.8889 49.8777 84.0231 49.9001 84.1574 49.9001C84.4258 49.9001 84.6943 49.8162 84.918 49.6483L98.0112 39.985L111.104 49.6483C111.328 49.8106 111.596 49.9001 111.865 49.9001C111.999 49.9001 112.128 49.8777 112.262 49.8386C112.654 49.7099 112.961 49.4021 113.09 49.0104L126.474 7.03903C126.485 6.93271 126.507 6.8208 126.513 6.7033ZM82.1271 11.6888L82.4012 25.2858L76.7187 21.0892L72.7477 8.63932L82.1271 11.6888ZM82.4627 28.5199L82.692 39.8283L78.0443 25.2522L82.4627 28.5199ZM85.069 30.4392L92.2336 35.7269L85.3543 44.8754L85.069 30.4392ZM85.0019 27.205L84.7502 14.6936L96.3948 30.1874L93.7717 33.6789L85.0019 27.205ZM86.8532 13.2276L97.6029 16.7247C97.7315 16.7639 97.8657 16.7863 98 16.7863C98.1342 16.7863 98.2684 16.7639 98.3971 16.7247L109.147 13.2276L98 28.0611L86.8532 13.2276ZM98 32.3248L100.164 35.2065L98 36.8068L95.8355 35.2065L98 32.3248ZM99.6052 30.193L111.25 14.6992L110.998 27.2106L102.228 33.6845L99.6052 30.193ZM110.937 30.4392L110.646 44.881L103.766 35.7325L110.937 30.4392ZM113.537 28.5199L117.956 25.2578L113.308 39.8339L113.537 28.5199ZM119.287 21.0892L113.604 25.2858L113.878 11.6888L123.258 8.63932L119.287 21.0892ZM112.374 2.6466L121.558 6.49627L112.614 9.4059L102.139 5.98708L112.374 2.6466ZM108.47 10.7544L98 14.1564L87.5299 10.7544L98 7.34118L108.47 10.7544ZM83.626 2.6466L93.8668 5.98708L83.3911 9.4059L74.448 6.49627L83.626 2.6466ZM90.4383 42.3854L94.2918 37.2544L95.8411 38.3959L90.4383 42.3854ZM101.708 37.2544L105.562 42.3854L100.159 38.3959L101.708 37.2544Z" fill="#C6A874"/>
<path d="M6.70038 110.678V112.972H5.45874V111.769H1.36469V112.972H0.123047L0.12864 110.678H0.357952C0.704716 110.667 0.950806 110.415 1.09622 109.917C1.24164 109.419 1.32554 108.708 1.35909 107.785L1.42621 105.972H5.8838V110.678H6.70038ZM2.37701 109.648C2.28753 110.113 2.15329 110.46 1.96873 110.678H4.56386V107.063H2.57836L2.5504 107.908C2.52243 108.602 2.4665 109.184 2.37701 109.648Z" fill="#192A4A"/>
<path d="M11.0517 105.972H12.3829V109.749L15.1514 105.972H16.4098V111.769H15.0843V107.998L12.3157 111.769H11.0461V105.972H11.0517Z" fill="#192A4A"/>
<path d="M25.2355 110.532H22.5453L22.0307 111.775H20.6548L23.2388 105.978H24.5643L27.1595 111.775H25.75L25.2355 110.532ZM24.816 109.508L23.8988 107.287L22.9815 109.508H24.816Z" fill="#192A4A"/>
<path d="M35.4762 107.069H32.7188L32.7244 111.775H31.3933V105.978H35.4874L35.4762 107.069Z" fill="#192A4A"/>
<path d="M45.0681 105.972V111.769H43.7258V109.391H41.0915V111.769H39.7492V105.972H41.0915V108.255H43.7258V105.972H45.0681Z" fill="#192A4A"/>
<path d="M51.103 111.484C50.622 111.226 50.2416 110.868 49.9676 110.415C49.6935 109.962 49.5537 109.447 49.5537 108.876C49.5537 108.305 49.6935 107.796 49.9676 107.337C50.2416 106.884 50.6164 106.52 51.103 106.263C51.5896 106.006 52.1265 105.877 52.7305 105.877C53.3346 105.877 53.8715 106.006 54.3525 106.263C54.8335 106.52 55.2138 106.879 55.4879 107.337C55.7619 107.791 55.9017 108.305 55.9017 108.876C55.9017 109.447 55.7619 109.956 55.4879 110.415C55.2138 110.868 54.8335 111.226 54.3525 111.484C53.8715 111.747 53.329 111.875 52.7305 111.875C52.1265 111.875 51.584 111.747 51.103 111.484ZM53.659 110.493C53.933 110.337 54.1511 110.118 54.3077 109.833C54.4643 109.553 54.5426 109.229 54.5426 108.871C54.5426 108.512 54.4643 108.193 54.3077 107.908C54.1511 107.628 53.933 107.41 53.659 107.248C53.3849 107.091 53.0717 107.013 52.7305 107.013C52.3894 107.013 52.0761 107.091 51.8021 107.248C51.528 107.405 51.3099 107.623 51.1533 107.908C50.9967 108.193 50.9184 108.512 50.9184 108.871C50.9184 109.229 50.9967 109.548 51.1533 109.833C51.3099 110.118 51.528 110.337 51.8021 110.493C52.0761 110.65 52.3894 110.728 52.7305 110.728C53.0717 110.728 53.3793 110.65 53.659 110.493Z" fill="#192A4A"/>
<path d="M61.6066 111.489C61.1312 111.232 60.7508 110.879 60.4824 110.42C60.2083 109.967 60.0741 109.447 60.0741 108.876C60.0741 108.3 60.2083 107.785 60.4824 107.332C60.7564 106.879 61.1312 106.52 61.6066 106.263C62.0876 106.006 62.6245 105.877 63.2173 105.877C63.7207 105.877 64.1737 105.966 64.582 106.14C64.9903 106.319 65.3315 106.571 65.6055 106.901L64.7442 107.695C64.3527 107.242 63.8661 107.018 63.2845 107.018C62.9265 107.018 62.6077 107.097 62.3225 107.253C62.0428 107.41 61.8191 107.628 61.6625 107.914C61.5059 108.199 61.4276 108.518 61.4276 108.876C61.4276 109.234 61.5059 109.553 61.6625 109.839C61.8191 110.124 62.0372 110.342 62.3225 110.499C62.6021 110.655 62.9265 110.734 63.2845 110.734C63.8661 110.734 64.3527 110.504 64.7442 110.046L65.6055 110.84C65.3315 111.176 64.9847 111.433 64.5764 111.612C64.1681 111.786 63.7095 111.875 63.2117 111.875C62.6189 111.875 62.082 111.747 61.6066 111.489Z" fill="#192A4A"/>
<path d="M74.599 107.069H72.7421V111.775H71.4166V107.069H69.5709V105.978H74.599V107.069Z" fill="#192A4A"/>
<path d="M78.8832 105.972H80.2143V109.749L82.9829 105.972H84.2413V111.769H82.9157V107.998L80.1472 111.769H78.8776V105.972H78.8832Z" fill="#192A4A"/>
<path d="M93.85 105.972V111.769H92.5245V109.682C92.0211 109.861 91.5569 109.956 91.1263 109.956C90.3488 109.956 89.7504 109.771 89.3365 109.396C88.9226 109.022 88.7157 108.484 88.7157 107.785V105.972H90.0412V107.634C90.0412 108.031 90.1475 108.333 90.36 108.535C90.5726 108.736 90.8802 108.837 91.2829 108.837C91.7247 108.837 92.1386 108.753 92.5245 108.58V105.972H93.85Z" fill="#192A4A"/>
<path d="M103.185 110.7V111.775H98.6935V105.978H103.073V107.052H100.025V108.311H102.715V109.357H100.025V110.7H103.185Z" fill="#192A4A"/>
<path d="M108.789 111.489C108.313 111.232 107.933 110.879 107.665 110.42C107.391 109.967 107.256 109.447 107.256 108.876C107.256 108.3 107.391 107.785 107.665 107.332C107.939 106.879 108.313 106.52 108.789 106.263C109.27 106.006 109.807 105.877 110.4 105.877C110.903 105.877 111.356 105.966 111.764 106.14C112.173 106.319 112.514 106.571 112.788 106.901L111.926 107.695C111.535 107.242 111.048 107.018 110.467 107.018C110.109 107.018 109.79 107.097 109.505 107.253C109.225 107.41 109.001 107.628 108.845 107.914C108.688 108.199 108.61 108.518 108.61 108.876C108.61 109.234 108.688 109.553 108.845 109.839C109.001 110.124 109.219 110.342 109.505 110.499C109.784 110.655 110.109 110.734 110.467 110.734C111.048 110.734 111.535 110.504 111.926 110.046L112.788 110.84C112.514 111.176 112.167 111.433 111.759 111.612C111.35 111.786 110.892 111.875 110.394 111.875C109.801 111.875 109.264 111.747 108.789 111.489Z" fill="#192A4A"/>
<path d="M119.337 109.436H118.409V111.769H117.078V105.972H118.409V108.317H119.371L120.898 105.972H122.313L120.417 108.77L122.374 111.769H120.853L119.337 109.436Z" fill="#192A4A"/>
<path d="M126.636 105.972H127.967V109.749L130.736 105.972H131.994V111.769H130.668V107.998L127.9 111.769H126.63V105.972H126.636Z" fill="#192A4A"/>
<path d="M136.838 105.972H138.169V109.749L140.937 105.972H142.196V111.769H140.87V107.998L138.102 111.769H136.832V105.972H136.838ZM137.9 104.333H138.817C138.829 104.736 139.058 104.937 139.505 104.937C139.729 104.937 139.897 104.887 140.009 104.786C140.126 104.685 140.188 104.534 140.193 104.333H141.111C141.105 104.747 140.971 105.066 140.702 105.278C140.439 105.491 140.037 105.597 139.5 105.597C138.448 105.597 137.911 105.178 137.9 104.333Z" fill="#192A4A"/>
<path d="M158.684 110.678V113H157.448V111.775H152.604V105.978H153.935V110.683H156.519V105.978H157.85V110.683H158.684V110.678Z" fill="#192A4A"/>
<path d="M167.515 110.7V111.775H163.024V105.978H167.403V107.052H164.355V108.311H167.045V109.357H164.355V110.7H167.515Z" fill="#192A4A"/>
<path d="M177.375 105.972V111.769H176.033V109.391H173.399V111.769H172.057V105.972H173.399V108.255H176.033V105.972H177.375Z" fill="#192A4A"/>
<path d="M186.693 107.069H184.836V111.775H183.511V107.069H181.665V105.978H186.693V107.069Z" fill="#192A4A"/>
<path d="M194.82 106.229C195.2 106.397 195.491 106.643 195.692 106.957C195.894 107.27 196 107.645 196 108.076C196 108.501 195.899 108.87 195.692 109.189C195.485 109.508 195.195 109.749 194.82 109.917C194.445 110.085 193.998 110.169 193.483 110.169H192.314V111.769H190.972V105.972H193.483C193.998 105.972 194.445 106.056 194.82 106.229ZM194.328 108.82C194.535 108.647 194.641 108.4 194.641 108.076C194.641 107.751 194.535 107.5 194.328 107.326C194.115 107.153 193.813 107.063 193.41 107.063H192.32V109.078H193.41C193.813 109.083 194.115 108.994 194.328 108.82Z" fill="#192A4A"/>
<path d="M15.3974 84.7206C16.2364 85.6886 16.6559 86.8972 16.6559 88.3464C16.6559 90.3104 15.9176 91.8603 14.4466 92.9962C12.9757 94.1321 11.0014 94.7028 8.51809 94.7028C6.45429 94.7028 4.70369 94.272 3.27189 93.4047C1.84009 92.543 0.749458 91.2952 0 89.6669L3.0985 88.1953C4.23388 90.5734 6.02922 91.7596 8.48453 91.7596C9.79888 91.7596 10.8336 91.4463 11.583 90.8084C12.3325 90.1761 12.7072 89.3032 12.7072 88.1897C12.7072 86.8189 12.215 85.8117 11.2363 85.1682C10.2519 84.5247 8.73062 84.2002 6.66682 84.2002V81.6431C8.52368 81.6431 9.94989 81.3241 10.9454 80.6918C11.941 80.0596 12.4388 79.1363 12.4388 77.9221C12.4388 76.9653 12.1032 76.2099 11.432 75.656C10.7609 75.102 9.81566 74.8222 8.60199 74.8222C7.38831 74.8222 6.35361 75.1468 5.50348 75.7902C4.65335 76.4337 4.0549 77.329 3.71932 78.4649L0.503367 77.1835C1.06826 75.5049 2.08618 74.2067 3.54594 73.2891C5.00571 72.3714 6.75631 71.9126 8.79215 71.9126C11.0629 71.9126 12.8582 72.4274 14.1782 73.4625C15.4925 74.4977 16.1525 75.8798 16.1525 77.6088C16.1525 78.8509 15.7778 79.9197 15.0283 80.8261C14.2788 81.727 13.2833 82.3761 12.0473 82.7622C13.4399 83.0979 14.5585 83.7526 15.3974 84.7206Z" fill="#192A4A"/>
<path d="M18.2667 91.5974H20.9793V75.0125H18.2667V72.2987H30.5824C33.0377 72.2987 35.1295 72.7967 36.8577 73.7927C38.5859 74.7887 39.8779 76.1036 40.7336 77.7487C41.5838 79.3881 42.0144 81.1787 42.0144 83.1147C42.0144 85.3361 41.5893 87.2889 40.7336 88.9675C39.8835 90.6462 38.6027 91.9555 36.8968 92.9011C35.191 93.8468 33.0992 94.3168 30.6215 94.3168H18.2667V91.5974ZM30.0063 91.5974C32.5623 91.5974 34.4527 90.8364 35.6832 89.3089C36.908 87.7813 37.5233 85.7446 37.5233 83.1874C37.5233 80.8374 36.9024 78.8845 35.6664 77.3346C34.4248 75.7847 32.5791 75.0069 30.1293 75.0069H25.325V91.5918H30.0063V91.5974Z" fill="#192A4A"/>
<path d="M51.7462 91.5974H54.4587V75.0125H51.7462V72.2987H64.0619C66.5172 72.2987 68.609 72.7967 70.3372 73.7927C72.0654 74.7887 73.3574 76.1036 74.2131 77.7487C75.0633 79.3881 75.4939 81.1787 75.4939 83.1147C75.4939 85.3361 75.0688 87.2889 74.2131 88.9675C73.363 90.6462 72.0822 91.9555 70.3763 92.9011C68.6705 93.8468 66.5787 94.3168 64.101 94.3168H51.7462V91.5974ZM63.4858 91.5974C66.0418 91.5974 67.9322 90.8364 69.1627 89.3089C70.3875 87.7813 71.0028 85.7446 71.0028 83.1874C71.0028 80.8374 70.3819 78.8845 69.1459 77.3346C67.9098 75.7847 66.0586 75.0069 63.6089 75.0069H58.8045V91.5918H63.4858V91.5974Z" fill="#192A4A"/>
<path d="M77.1047 94.3112V91.5974H79.8564V75.0125H77.1047V72.2987H96.8199V79.1979H93.8388V75.0125H84.191V81.6375H89.8063V79.1587H91.9764V86.7909H89.8455V84.3121H84.191V91.5974H94.029V87.177H97.01V94.3056H77.1047V94.3112Z" fill="#192A4A"/>
<path d="M100.237 94.3112V91.5974H103.067V75.0125H100.237V72.2987H108.023L119.449 88.7325V75.0125H116.546V72.2987H125.299V75.0125H122.548V94.3112H118.247L106.082 76.7135V91.5974H108.99V94.3112H100.237Z" fill="#192A4A"/>
<path d="M133.985 94.3112V91.5974H136.815V74.9733H131.547V80.1267H128.526V72.2987H149.288V80.1267H146.306V74.9733H141.116V91.5974H143.946V94.3112H133.985Z" fill="#192A4A"/>
<path d="M149.288 94.3112V91.5974H151.883L157.923 75.0125H155.563V72.2987H167.839V75.0125H165.44L171.637 91.5974H174.115V94.3112H164.394V91.5974H167.146L165.25 86.0523H157.694L155.837 91.5974H158.471V94.3112H149.288ZM158.505 83.4616H164.472L161.642 75.0517H161.413L158.505 83.4616Z" fill="#192A4A"/>
<path d="M177.342 94.3112V91.5974H180.094V74.895H177.342V72.2987H187.141V74.895H184.389V91.5974H192.448V85.1626H195.664V94.3112H177.342Z" fill="#192A4A"/>
</g>
</svg>
