<svg viewBox="0 0 350 66" fill="none" xmlns="http://www.w3.org/2000/svg">
<g clip-path="url(#clip0)">
<path d="M91.8033 51.8233H95.3258C96.161 51.8233 96.9236 51.9691 97.541 52.2971C98.1947 52.6251 98.6667 53.0624 99.0299 53.6455C99.393 54.2286 99.5746 54.8846 99.5746 55.6499C99.5746 56.4152 99.393 57.0712 99.0299 57.6543C98.6667 58.2374 98.1583 58.6748 97.541 59.0028C96.8873 59.3308 96.161 59.4765 95.3258 59.4765H91.8033V51.8233ZM95.2169 58.0552C95.9795 58.0552 96.5968 57.8366 97.0689 57.3992C97.541 56.9619 97.7589 56.3788 97.7589 55.6499C97.7589 54.921 97.541 54.3379 97.0689 53.9006C96.5968 53.4633 95.9795 53.2446 95.2169 53.2446H93.5827V58.0188H95.2169V58.0552Z" fill="#C49A6C"/>
<path d="M109.489 51.8233H111.268V59.513H109.489V51.8233Z" fill="#C49A6C"/>
<path d="M126.774 57.873H123.179L122.489 59.513H120.673L124.123 51.8233H125.903L129.353 59.513H127.464L126.774 57.873ZM126.193 56.5246L124.959 53.5726L123.724 56.5246H126.193Z" fill="#C49A6C"/>
<path d="M143.624 55.5406H145.258V58.6383C144.823 58.9663 144.351 59.185 143.806 59.3672C143.261 59.5494 142.68 59.6223 142.135 59.6223C141.336 59.6223 140.61 59.4401 139.956 59.1121C139.303 58.7841 138.831 58.3103 138.431 57.6908C138.068 57.0713 137.887 56.4153 137.887 55.6499C137.887 54.8846 138.068 54.1922 138.431 53.6091C138.794 52.9895 139.303 52.5522 139.956 52.1878C140.61 51.8598 141.336 51.6776 142.135 51.6776C142.825 51.6776 143.443 51.7869 143.987 52.0055C144.532 52.2242 145.004 52.5522 145.367 52.9895L144.205 54.0464C143.661 53.4633 142.971 53.1718 142.208 53.1718C141.7 53.1718 141.264 53.2811 140.901 53.4633C140.501 53.682 140.211 53.9735 139.993 54.338C139.775 54.7024 139.666 55.1397 139.666 55.6135C139.666 56.0873 139.775 56.5246 139.993 56.889C140.211 57.2535 140.501 57.545 140.864 57.7637C141.227 57.9824 141.663 58.0917 142.172 58.0917C142.68 58.0917 143.152 57.9824 143.552 57.7637V55.5406H143.624Z" fill="#C49A6C"/>
<path d="M162.544 51.8233V59.513H161.092L157.242 54.8482V59.513H155.463V51.8233H156.952L160.801 56.4881V51.8233H162.544Z" fill="#C49A6C"/>
<path d="M174.528 59.1121C173.874 58.7841 173.366 58.3103 173.003 57.6908C172.64 57.0713 172.458 56.4153 172.458 55.6499C172.458 54.8846 172.64 54.2286 173.003 53.6091C173.366 52.9895 173.874 52.5158 174.528 52.1878C175.182 51.8598 175.908 51.6776 176.707 51.6776C177.506 51.6776 178.232 51.8598 178.886 52.1878C179.539 52.5158 180.048 52.9895 180.411 53.6091C180.774 54.2286 180.956 54.8846 180.956 55.6499C180.956 56.4153 180.774 57.0713 180.411 57.6908C180.048 58.3103 179.539 58.7477 178.886 59.1121C178.232 59.4401 177.542 59.6223 176.707 59.6223C175.872 59.6223 175.145 59.4765 174.528 59.1121ZM177.905 57.8001C178.268 57.5815 178.559 57.2899 178.777 56.9255C178.995 56.561 179.104 56.1237 179.104 55.6499C179.104 55.1762 178.995 54.7388 178.777 54.3744C178.559 54.01 178.268 53.7184 177.905 53.4997C177.542 53.2811 177.106 53.1718 176.671 53.1718C176.198 53.1718 175.799 53.2811 175.436 53.4997C175.073 53.7184 174.782 54.01 174.564 54.3744C174.346 54.7388 174.237 55.1762 174.237 55.6499C174.237 56.1237 174.346 56.561 174.564 56.9255C174.782 57.2899 175.073 57.5815 175.436 57.8001C175.799 58.0188 176.198 58.1281 176.671 58.1281C177.143 58.1281 177.542 58.0188 177.905 57.8001Z" fill="#C49A6C"/>
<path d="M191.559 59.4037C190.978 59.2214 190.543 59.0392 190.18 58.7477L190.797 57.3992C191.124 57.6543 191.523 57.8366 191.995 57.9823C192.467 58.1281 192.903 58.201 193.375 58.201C193.884 58.201 194.247 58.1281 194.501 57.9823C194.755 57.8366 194.864 57.6179 194.864 57.3992C194.864 57.217 194.791 57.0712 194.646 56.9619C194.501 56.8526 194.319 56.7433 194.101 56.6704C193.884 56.5975 193.593 56.5246 193.194 56.4153C192.613 56.2695 192.14 56.1237 191.741 56.0144C191.378 55.8686 191.051 55.6499 190.761 55.3584C190.506 55.0668 190.361 54.6295 190.361 54.1193C190.361 53.682 190.47 53.2811 190.724 52.9166C190.978 52.5522 191.342 52.2606 191.814 52.042C192.322 51.8233 192.903 51.714 193.593 51.714C194.101 51.714 194.574 51.7869 195.046 51.8962C195.518 52.0055 195.917 52.1878 196.28 52.4064L195.736 53.7548C195.009 53.354 194.319 53.1353 193.593 53.1353C193.085 53.1353 192.722 53.2082 192.467 53.3904C192.213 53.5362 192.104 53.7548 192.104 54.01C192.104 54.2651 192.249 54.4837 192.504 54.5931C192.794 54.7388 193.194 54.8482 193.775 54.9575C194.356 55.1033 194.828 55.249 195.227 55.3584C195.59 55.5042 195.917 55.7228 196.208 56.0144C196.462 56.3059 196.607 56.7068 196.607 57.217C196.607 57.6543 196.498 58.0552 196.244 58.4197C195.99 58.7841 195.627 59.0757 195.155 59.2943C194.646 59.513 194.065 59.6223 193.339 59.6223C192.722 59.6223 192.14 59.5494 191.559 59.4037Z" fill="#C49A6C"/>
<path d="M208.083 53.2811H205.613V51.8233H212.331V53.2811H209.862V59.513H208.083V53.2811Z" fill="#C49A6C"/>
<path d="M221.81 51.8233H223.589V59.513H221.81V51.8233Z" fill="#C49A6C"/>
<path d="M235.573 59.1121C234.919 58.7841 234.447 58.3103 234.084 57.6908C233.721 57.0712 233.539 56.4153 233.539 55.6499C233.539 54.8846 233.721 54.1922 234.084 53.6091C234.447 52.9895 234.955 52.5522 235.573 52.1878C236.226 51.8598 236.916 51.6776 237.715 51.6776C238.369 51.6776 238.986 51.7869 239.531 52.042C240.076 52.2607 240.512 52.6251 240.911 53.0624L239.749 54.1193C239.241 53.5362 238.587 53.2082 237.824 53.2082C237.352 53.2082 236.916 53.3175 236.553 53.5362C236.19 53.7549 235.9 54.0464 235.682 54.4108C235.464 54.7753 235.355 55.2126 235.355 55.6864C235.355 56.1602 235.464 56.5975 235.682 56.9619C235.9 57.3264 236.19 57.6179 236.553 57.8366C236.916 58.0552 237.352 58.1646 237.824 58.1646C238.587 58.1646 239.241 57.873 239.749 57.2535L240.911 58.3103C240.548 58.7477 240.076 59.1121 239.531 59.3308C238.986 59.5494 238.369 59.6952 237.715 59.6952C236.916 59.6223 236.19 59.4765 235.573 59.1121Z" fill="#C49A6C"/>
<path d="M263.353 59.1121C262.7 58.7841 262.228 58.3103 261.865 57.6908C261.501 57.0712 261.32 56.4153 261.32 55.6499C261.32 54.8846 261.501 54.1922 261.865 53.6091C262.228 52.9895 262.736 52.5522 263.353 52.1878C264.007 51.8598 264.697 51.6776 265.496 51.6776C266.15 51.6776 266.767 51.7869 267.312 52.042C267.856 52.2607 268.292 52.6251 268.692 53.0624L267.53 54.1193C267.021 53.5362 266.368 53.2082 265.605 53.2082C265.133 53.2082 264.697 53.3175 264.334 53.5362C263.971 53.7549 263.68 54.0464 263.462 54.4108C263.245 54.7753 263.136 55.2126 263.136 55.6864C263.136 56.1602 263.245 56.5975 263.462 56.9619C263.68 57.3264 263.971 57.6179 264.334 57.8366C264.697 58.0552 265.133 58.1646 265.605 58.1646C266.368 58.1646 267.021 57.873 267.53 57.2535L268.692 58.3103C268.329 58.7477 267.856 59.1121 267.312 59.3308C266.767 59.5494 266.15 59.6952 265.496 59.6952C264.697 59.6223 263.971 59.4765 263.353 59.1121Z" fill="#C49A6C"/>
<path d="M284.343 58.0917V59.513H278.351V51.8233H284.198V53.2446H280.131V54.921H283.726V56.3059H280.131V58.0917H284.343Z" fill="#C49A6C"/>
<path d="M301.447 51.8233V59.513H299.995L296.146 54.8482V59.513H294.366V51.8233H295.855L299.704 56.4881V51.8233H301.447Z" fill="#C49A6C"/>
<path d="M313.395 53.2811H310.926V51.8233H317.644V53.2811H315.174V59.513H313.395V53.2811Z" fill="#C49A6C"/>
<path d="M333.114 58.0917V59.513H327.122V51.8233H332.968V53.2446H328.901V54.921H332.496V56.3059H328.901V58.0917H333.114Z" fill="#C49A6C"/>
<path d="M348.075 59.513L346.586 57.3628H346.514H344.952V59.513H343.173V51.8233H346.514C347.204 51.8233 347.785 51.9326 348.293 52.1513C348.802 52.37 349.201 52.698 349.455 53.0988C349.746 53.4997 349.855 54.0099 349.855 54.593C349.855 55.1761 349.71 55.6499 349.455 56.0508C349.165 56.4517 348.802 56.7797 348.293 56.9983L350.036 59.4765H348.075V59.513ZM347.603 53.6091C347.313 53.3904 346.913 53.2811 346.369 53.2811H344.916V55.9415H346.369C346.913 55.9415 347.313 55.8321 347.603 55.577C347.894 55.3584 348.039 55.0304 348.039 54.593C348.039 54.1922 347.894 53.8642 347.603 53.6091Z" fill="#C49A6C"/>
<path d="M75.2076 8.857C75.2439 8.16456 74.8082 7.50857 74.1545 7.21702L57.2682 0.110446C56.9051 -0.0353299 56.4693 -0.0717738 56.1061 0.074002L37.5857 6.1237L19.0653 0.074002C18.7021 -0.0353299 18.3027 -0.0353299 17.9395 0.14689L1.05322 7.21702C0.399556 7.50857 -0.036219 8.16456 9.56052e-05 8.857C9.56052e-05 9.00277 0.0364102 9.14855 0.0727248 9.29432L17.7216 64.7985C17.9032 65.3087 18.3027 65.746 18.8111 65.8918C18.9926 65.9647 19.1742 65.9647 19.3195 65.9647C19.6826 65.9647 20.0458 65.8553 20.3363 65.6367L37.5857 52.8448L54.8351 65.6367C55.1257 65.8553 55.4888 65.9647 55.8519 65.9647C56.0335 65.9647 56.2151 65.9282 56.3603 65.8918C56.8688 65.7096 57.2682 65.3087 57.4498 64.7985L75.0987 9.29432C75.1713 9.18499 75.2076 9.03922 75.2076 8.857ZM16.6685 15.4534L17.0316 33.4202L9.55083 27.9172L4.28522 11.4445L16.6685 15.4534ZM17.1043 37.7206L17.3948 52.6991L11.2939 33.4202L17.1043 37.7206ZM20.5542 40.2717L29.996 47.2689L20.9173 59.3683L20.5542 40.2717ZM20.4452 36.0077L20.1184 19.4257L35.4795 39.9072L32.0296 44.5356L20.4452 36.0077ZM22.9146 17.4942L37.0773 22.1226C37.2589 22.1955 37.4404 22.1955 37.5857 22.1955C37.7673 22.1955 37.9488 22.159 38.0941 22.1226L52.2568 17.4942L37.5494 37.1011L22.9146 17.4942ZM37.622 42.7499L40.4909 46.5765L37.622 48.6902L34.7532 46.5765L37.622 42.7499ZM39.7283 39.9437L55.0893 19.4622L54.7625 36.0077L43.1782 44.5721L39.7283 39.9437ZM54.6536 40.2717L54.2541 59.3683L45.1754 47.2689L54.6536 40.2717ZM58.1035 37.7206L63.9501 33.4202L57.8129 52.6991L58.1035 37.7206ZM65.6569 27.9172L58.1761 33.4567L58.5392 15.4898L70.9225 11.4445L65.6569 27.9172ZM56.5782 3.49973L68.671 8.60189L56.8688 12.4649L43.0692 7.9459L56.5782 3.49973ZM51.4216 14.2143L37.622 18.7333L23.7862 14.2143L37.5857 9.69521L51.4216 14.2143ZM18.6658 3.49973L32.1748 7.90945L18.3753 12.4285L6.53672 8.60189L18.6658 3.49973ZM27.6355 56.0519L32.7195 49.2733L34.7532 50.7675L27.6355 56.0519ZM42.4882 49.2733L47.5722 56.0519L40.4546 50.7675L42.4882 49.2733Z" fill="#C49A6C"/>
<path d="M111.195 23.5792C112.285 24.8548 112.866 26.4583 112.866 28.3898C112.866 30.9774 111.885 33.0547 109.961 34.5489C108.036 36.0431 105.421 36.8084 102.153 36.8084C99.4293 36.8084 97.1052 36.2253 95.2168 35.0955C93.3285 33.9658 91.8759 32.2894 90.8954 30.1392L94.9989 28.2076C96.4878 31.3418 98.8483 32.9089 102.117 32.9089C103.86 32.9089 105.203 32.508 106.22 31.6698C107.201 30.8316 107.709 29.6654 107.709 28.2076C107.709 26.3854 107.055 25.0734 105.784 24.1988C104.477 23.3606 102.48 22.9233 99.7561 22.9233V19.534C102.226 19.534 104.078 19.0966 105.385 18.2949C106.692 17.4567 107.346 16.254 107.346 14.614C107.346 13.3385 106.91 12.3545 106.002 11.6256C105.094 10.8967 103.86 10.5323 102.262 10.5323C100.664 10.5323 99.2477 10.9332 98.122 11.7714C96.9962 12.6096 96.1973 13.8123 95.7615 15.3065L91.5127 13.63C92.2753 11.407 93.5827 9.6941 95.5073 8.49145C97.432 7.2888 99.7561 6.66925 102.443 6.66925C105.458 6.66925 107.818 7.36169 109.561 8.71011C111.304 10.095 112.176 11.9172 112.176 14.2131C112.176 15.8531 111.667 17.2744 110.687 18.4771C109.706 19.6797 108.399 20.518 106.765 21.0282C108.617 21.4655 110.069 22.3037 111.195 23.5792Z" fill="#C49A6C"/>
<path d="M114.972 32.6902H118.531V10.751H114.972V7.17947H131.205C134.437 7.17947 137.197 7.83546 139.484 9.14745C141.772 10.4594 143.479 12.2087 144.605 14.3589C145.73 16.5456 146.275 18.878 146.275 21.4655C146.275 24.4175 145.73 26.9685 144.605 29.1916C143.479 31.4147 141.808 33.164 139.557 34.4031C137.305 35.6422 134.546 36.2617 131.277 36.2617H114.972V32.6902ZM130.442 32.6902C133.819 32.6902 136.325 31.6698 137.923 29.6654C139.521 27.661 140.356 24.9641 140.356 21.5748C140.356 18.4771 139.557 15.8896 137.886 13.8487C136.252 11.8079 133.819 10.7874 130.587 10.7874H124.269V32.7267H130.442V32.6902Z" fill="#C49A6C"/>
<path d="M159.131 32.6902H162.689V10.751H159.131V7.17947H175.363C178.595 7.17947 181.355 7.83546 183.643 9.14745C185.931 10.4594 187.637 12.2087 188.763 14.3589C189.889 16.5456 190.434 18.878 190.434 21.4655C190.434 24.4175 189.889 26.9685 188.763 29.1916C187.637 31.4147 185.967 33.164 183.716 34.4031C181.464 35.6422 178.704 36.2617 175.436 36.2617H159.131V32.6902ZM174.601 32.6902C177.978 32.6902 180.484 31.6698 182.081 29.6654C183.679 27.661 184.514 24.9641 184.514 21.5748C184.514 18.4771 183.716 15.8896 182.045 13.8487C180.411 11.8079 177.978 10.7874 174.746 10.7874H168.427V32.7267H174.601V32.6902Z" fill="#C49A6C"/>
<path d="M192.576 36.2982V32.6902H196.208V10.751H192.576V7.17947H218.577V16.2905H214.619V10.751H201.909V19.534H209.317V16.254H212.186V26.349H209.39V23.069H201.909V32.7267H214.873V26.8957H218.795V36.3346H192.576V36.2982Z" fill="#C49A6C"/>
<path d="M223.081 36.2982V32.6902H226.821V10.751H223.081V7.17947H233.358L248.428 28.9001V10.751H244.615V7.17947H256.163V10.751H252.532V36.2982H246.867L230.816 13.0105V32.6902H234.665V36.2617H223.081V36.2982Z" fill="#C49A6C"/>
<path d="M267.566 36.2982V32.6902H271.306V10.7145H264.37V17.5296H260.376V7.17947H287.757V17.5296H283.835V10.7145H276.971V32.6902H280.712V36.2617H267.566V36.2982Z" fill="#C49A6C"/>
<path d="M287.757 36.2982V32.6902H291.17L299.123 10.751H296V7.17947H312.196V10.751H309.037L317.208 32.6902H320.476V36.2617H307.657V32.6902H311.289L308.783 25.365H298.833L296.363 32.6902H299.849V36.2617H287.757V36.2982ZM299.922 21.9393H307.802L304.062 10.8239H303.771L299.922 21.9393Z" fill="#C49A6C"/>
<path d="M324.761 36.2982V32.6902H328.393V10.6052H324.761V7.17947H337.689V10.6052H334.058V32.6902H344.698V24.1988H348.947V36.2982H324.761Z" fill="#C49A6C"/>
</g>
<defs>
</defs>
</svg>
